<svg xmlns="http://www.w3.org/2000/svg" viewBox="0 0 29.74 29.74"><defs><style>.cls-1{fill:#fff;}</style></defs><title>アセット 3</title><g id="レイヤー_2" data-name="レイヤー 2"><g id="レイヤー_1-2" data-name="レイヤー 1"><path class="cls-1" d="M14.87,0A14.87,14.87,0,1,0,29.74,14.87h0A14.87,14.87,0,0,0,14.87,0Zm7.19,22.05H7.68a1.44,1.44,0,0,1-1.44-1.43V12s7.22,5.56,8.62,5.56h0c1.54,0,8.62-5.56,8.62-5.56v8.61A1.43,1.43,0,0,1,22.06,22.05ZM23.49,9.84s-7.15,5.75-8.62,5.75S6.24,9.77,6.24,9.77V9.13A1.43,1.43,0,0,1,7.68,7.69H22.06A1.43,1.43,0,0,1,23.5,9.13Z"/></g></g></svg>