<svg id="レイヤー_1" data-name="レイヤー 1" xmlns="http://www.w3.org/2000/svg" viewBox="0 0 50 50"><defs><style>.cls-1{fill:#fff;}</style></defs><title>アートボード 1</title><path class="cls-1" d="M32.91,48.71c-1.27.25-1.72-.53-1.72-1.19,0-.83,0-3.52,0-6.86A6,6,0,0,0,29.53,36c5.57-.62,11.41-2.74,11.41-12.34A9.62,9.62,0,0,0,38.37,17a8.92,8.92,0,0,0-.25-6.62S36,9.7,31.26,12.93a23.54,23.54,0,0,0-12.52,0C14,9.7,11.87,10.36,11.87,10.36A9,9,0,0,0,11.62,17a9.73,9.73,0,0,0-2.57,6.71c0,9.58,5.84,11.72,11.38,12.36a5.33,5.33,0,0,0-1.58,3.33l-.05,0a5.33,5.33,0,0,1-7.23-2.1,5.25,5.25,0,0,0-3.83-2.58s-2.43,0-.16,1.52a6.64,6.64,0,0,1,2.77,3.66s1.46,4.46,8.41,3c0,2.08,0,4.06,0,4.65s-.46,1.43-1.71,1.2a25,25,0,1,1,15.82,0Z"/></svg>