<svg xmlns="http://www.w3.org/2000/svg" viewBox="-6396 404 29.74 29.74">
  <defs>
    <style>
      .cls-1 {
        fill: #fff;
      }
    </style>
  </defs>
  <path id="icon_phone" class="cls-1" d="M29.74,14.87A14.87,14.87,0,1,1,14.87,0,14.869,14.869,0,0,1,29.74,14.87ZM9.271,6.4A4.787,4.787,0,0,0,7.545,7.638,3.675,3.675,0,0,0,6.424,9.6s.29,3.979,5.007,8.69,8.725,5.042,8.725,5.042a4.458,4.458,0,0,0,1.952-1.179,5.064,5.064,0,0,0,1.214-1.708,5.16,5.16,0,0,0-1.609-2.567,4.95,4.95,0,0,0-2.544-1.586,9.918,9.918,0,0,0-.895.627,6.677,6.677,0,0,0-.743,1.365,6.135,6.135,0,0,1-3.944-2A6.54,6.54,0,0,1,11.5,12.337a7.064,7.064,0,0,0,1.446-.749,10.3,10.3,0,0,0,.656-.865,5.11,5.11,0,0,0-1.609-2.562A6.576,6.576,0,0,0,9.271,6.4Z" transform="translate(-6396 404)"/>
</svg>
