<svg xmlns="http://www.w3.org/2000/svg" viewBox="969.732 4089 60.268 72.5">
  <defs>
    <style>
      .cls-1 {
        fill: rgba(114,28,36,0.2);
      }
    </style>
  </defs>
  <g id="rip-ie" transform="translate(969.732 4089)">
    <path id="パス_9" data-name="パス 9" class="cls-1" d="M25.426,4.522A21.442,21.442,0,0,1,47.091,25.937V67.956H3.769V25.951A21.454,21.454,0,0,1,25.433,4.522M35.922,4.6c11.32.856,20.591,10.077,20.591,21.341V67.956H48.958V25.951A23.443,23.443,0,0,0,35.926,4.6M25.426,0C11.176,0,0,11.4,0,25.951V67.978C0,70.471,1.687,72.5,3.762,72.5H56.506c2.075,0,3.762-2.029,3.762-4.522V25.951A26.12,26.12,0,0,0,36.144.088H35.9C34.961.074,28.223,0,25.426,0"/>
    <path id="パス_10" data-name="パス 10" class="cls-1" d="M60.984,83.482a9.3,9.3,0,0,1-.092,1.338H46.068a4.068,4.068,0,0,0,1.409,3.17,4.8,4.8,0,0,0,3.318,1.268,4.973,4.973,0,0,0,2.388-.6,4.512,4.512,0,0,0,1.761-1.68h5.449a10.214,10.214,0,0,1-2.2,3.617,10.373,10.373,0,0,1-12.158,2.2,11.605,11.605,0,0,1-5.082,1.5q-3.054,0-3.054-3.388a13.384,13.384,0,0,1,.581-3.543,18.614,18.614,0,0,1,1.409-2.952A29.463,29.463,0,0,1,46,76.6a17.291,17.291,0,0,0-5.5,4.579,10.39,10.39,0,0,1,10.112-8.069h.578a14.165,14.165,0,0,1,5.579-1.493,6.294,6.294,0,0,1,1.493.166,4.065,4.065,0,0,1,1.219.525,2.43,2.43,0,0,1,.856.983,3.367,3.367,0,0,1,.31,1.483,9.512,9.512,0,0,1-.969,3.684,10.165,10.165,0,0,1,1.3,5.023Zm-.9-8.242a2.2,2.2,0,0,0-.683-1.7,2.487,2.487,0,0,0-1.761-.63,7.788,7.788,0,0,0-3.272.9A10.246,10.246,0,0,1,57.233,75.5a10.394,10.394,0,0,1,2.187,2.518A8.383,8.383,0,0,0,60.083,75.24ZM39.548,91.171a2.244,2.244,0,0,0,.627,1.715,2.4,2.4,0,0,0,1.733.6,7.386,7.386,0,0,0,3.424-1.057,10.4,10.4,0,0,1-2.747-2.36,10.024,10.024,0,0,1-1.761-3.17,10.6,10.6,0,0,0-1.275,4.272Zm6.488-9.182h9.383a4.11,4.11,0,0,0-1.455-3.054,4.9,4.9,0,0,0-6.474,0A4.114,4.114,0,0,0,46.036,81.989Z" transform="translate(-24.551 -46.394)"/>
    <path id="パス_11" data-name="パス 11" class="cls-1" d="M56.508,45.1a2.506,2.506,0,0,1-.254,0c-1.057-.049-1.384-.278-1.638-.634a15.5,15.5,0,0,1-.873-1.486.472.472,0,0,0-.507-.289h-.169v1.236c0,.683.085.743.7.817v.313H51.19v-.313c.645-.067.722-.134.722-.817v-3.24c0-.666-.085-.761-.722-.81V39.56h2.466a2.579,2.579,0,0,1,1.529.321A1.3,1.3,0,0,1,55.751,41a1.444,1.444,0,0,1-1.057,1.37c.127.254.454.8.7,1.194a6.4,6.4,0,0,0,.655.866,1.011,1.011,0,0,0,.532.373Zm-3.219-2.765a1.236,1.236,0,0,0,.828-.222,1.2,1.2,0,0,0,.4-.986c0-.895-.518-1.215-.99-1.215-.229,0-.352.032-.387.085a.568.568,0,0,0-.077.321v2.022Z" transform="translate(-33.16 -25.626)"/>
    <path id="パス_12" data-name="パス 12" class="cls-1" d="M67.3,45.025v-.313c.641-.056.7-.109.7-.817V40.671c0-.7-.085-.778-.7-.828V39.53h2.613v.313c-.634.06-.7.116-.7.828v3.223c0,.7.074.75.7.817v.313Z" transform="translate(-43.596 -25.607)"/>
    <path id="パス_13" data-name="パス 13" class="cls-1" d="M79.752,39.517a2.712,2.712,0,0,1,1.546.352,1.465,1.465,0,0,1,.634,1.275,1.8,1.8,0,0,1-1.944,1.761h-.254l-.49-.127v1.148c0,.7.06.743.8.81v.313H77.35v-.313c.634-.074.722-.1.722-.81V40.658c0-.7-.088-.785-.722-.828v-.313Zm-.507,2.867a1.109,1.109,0,0,0,.447.085c.391,0,1.025-.229,1.025-1.345,0-.947-.518-1.261-1.057-1.261a.507.507,0,0,0-.328.085.331.331,0,0,0-.077.264Z" transform="translate(-50.106 -25.594)"/>
    <path id="パス_14" data-name="パス 14" class="cls-1" d="M19.78,160.758v-.313c.87-.042.93-.134.93-.743V156.64c0-.43-.151-.465-.5-.507l-.254-.042v-.278a9.478,9.478,0,0,0,1.877-.423V159.7c0,.627.053.7.912.743v.313Z" transform="translate(-12.813 -100.659)"/>
    <path id="パス_15" data-name="パス 15" class="cls-1" d="M33.108,158.449l-.423.218a1.035,1.035,0,0,1-.49.144,1.546,1.546,0,0,1-1.638-1.606,1.917,1.917,0,1,1,3.818.331,3.357,3.357,0,0,1-2.222,3.11,4.166,4.166,0,0,1-1.243.236l-.056-.32A2.744,2.744,0,0,0,33.108,158.449Zm-.768-2.705c-.458,0-.659.581-.659,1.124,0,.736.4,1.345,1.021,1.345a1.085,1.085,0,0,0,.475-.109,3.875,3.875,0,0,0,.042-.609c-.011-.835-.229-1.751-.881-1.751Z" transform="translate(-19.794 -100.658)"/>
    <path id="パス_16" data-name="パス 16" class="cls-1" d="M45.3,158.449l-.423.218a1.035,1.035,0,0,1-.49.144,1.55,1.55,0,0,1-1.641-1.606,1.919,1.919,0,1,1,3.822.331,3.357,3.357,0,0,1-2.222,3.11,4.167,4.167,0,0,1-1.243.236l-.06-.32A2.776,2.776,0,0,0,45.3,158.449Zm-.768-2.705c-.458,0-.659.581-.659,1.124,0,.736.394,1.345,1.021,1.345a1.1,1.1,0,0,0,.465-.109,3.873,3.873,0,0,0,.042-.609c-.011-.835-.229-1.751-.881-1.751Z" transform="translate(-27.691 -100.658)"/>
    <path id="パス_17" data-name="パス 17" class="cls-1" d="M58.581,155.68l.049.085-.268.838H56.249c-.077.352-.187.919-.271,1.268a4.127,4.127,0,0,1,1.124-.264,1.5,1.5,0,0,1,1.666,1.409,1.761,1.761,0,0,1-.845,1.465,2.969,2.969,0,0,1-1.606.556,1.536,1.536,0,0,1-.895-.278c-.18-.137-.211-.222-.211-.352a.641.641,0,0,1,.278-.423.243.243,0,0,1,.331.049,1.67,1.67,0,0,0,1.106.525c.525,0,.771-.465.771-1.074a1.169,1.169,0,0,0-1.261-1.25,3.17,3.17,0,0,0-.888.134l-.042-.049c.169-.771.373-1.853.49-2.638Z" transform="translate(-35.764 -100.847)"/>
    <path id="パス_18" data-name="パス 18" class="cls-1" d="M69.7,164.789H67.59l.067-.659H69.77Z" transform="translate(-43.784 -106.321)"/>
    <path id="パス_19" data-name="パス 19" class="cls-1" d="M79.467,159.347c-.134.458-.3,1.057-.38,1.409H75.67v-.236a18.583,18.583,0,0,0,1.37-1.409,3.06,3.06,0,0,0,.923-1.969c0-.574-.3-.99-.87-.99a1.462,1.462,0,0,0-1.152.754l-.254-.211.542-.8a1.67,1.67,0,0,1,1.293-.525,1.483,1.483,0,0,1,1.557,1.515,2.638,2.638,0,0,1-1.117,1.994c-.331.289-.8.7-1.109.947h1.409c.525,0,.623-.035.937-.567Z" transform="translate(-49.018 -100.643)"/>
    <path id="パス_20" data-name="パス 20" class="cls-1" d="M89.59,155.39c1.437,0,1.913,1.515,1.913,2.73s-.475,2.74-1.913,2.74-1.92-1.515-1.92-2.73S88.177,155.39,89.59,155.39Zm-.018.352c-.574,0-.7,1.219-.7,2.342s.176,2.4.736,2.4.7-1.219.7-2.392-.176-2.342-.736-2.342Z" transform="translate(-56.791 -100.659)"/>
    <path id="パス_21" data-name="パス 21" class="cls-1" d="M101.21,160.758v-.313c.87-.042.93-.134.93-.743V156.64c0-.43-.151-.465-.5-.507l-.254-.042v-.278a9.478,9.478,0,0,0,1.877-.423V159.7c0,.627.053.7.912.743v.313Z" transform="translate(-65.562 -100.659)"/>
    <path id="パス_22" data-name="パス 22" class="cls-1" d="M115.671,155.635l.053.085-.271.838h-2.113c-.074.352-.183.919-.268,1.268a4.1,4.1,0,0,1,1.124-.264,1.5,1.5,0,0,1,1.666,1.409,1.761,1.761,0,0,1-.845,1.465,2.976,2.976,0,0,1-1.606.557,1.546,1.546,0,0,1-.9-.278c-.176-.137-.211-.222-.211-.352a.634.634,0,0,1,.264-.447.24.24,0,0,1,.328.049,1.68,1.68,0,0,0,1.109.525c.521,0,.768-.465.768-1.074a1.169,1.169,0,0,0-1.261-1.25,3.21,3.21,0,0,0-.888.134l-.042-.049c.169-.771.373-1.853.493-2.638Z" transform="translate(-72.746 -100.802)"/>
  </g>
</svg>
