<svg xmlns="http://www.w3.org/2000/svg" viewBox="0 0 29.74 29.74"><defs><style>.cls-1{fill:#fff;}</style></defs><title>アセット 2</title><g id="レイヤー_2" data-name="レイヤー 2"><g id="レイヤー_1-2" data-name="レイヤー 1"><rect class="cls-1" x="9.87" y="9.87" width="2" height="2"/><rect class="cls-1" x="9.87" y="17.87" width="2" height="2"/><rect class="cls-1" x="12.87" y="17.87" width="7" height="2"/><rect class="cls-1" x="9.87" y="13.87" width="2" height="2"/><rect class="cls-1" x="12.87" y="13.87" width="7" height="2"/><path class="cls-1" d="M14.87,0A14.87,14.87,0,1,0,29.74,14.87h0A14.87,14.87,0,0,0,14.87,0Zm9,21.87a2,2,0,0,1-2,2h-14a2,2,0,0,1-2-2v-14a2,2,0,0,1,2-2h14a2,2,0,0,1,2,2Z"/><rect class="cls-1" x="12.87" y="9.87" width="7" height="2"/></g></g></svg>