<svg id="レイヤー_1" data-name="レイヤー 1" xmlns="http://www.w3.org/2000/svg" viewBox="0 0 29.74 29.74"><defs><style>.cls-1{fill:#fff;}</style></defs><title>facebook</title><path class="cls-1" d="M14.87,0A14.87,14.87,0,1,0,29.74,14.87h0A14.87,14.87,0,0,0,14.87,0Zm8.31,22.26a.92.92,0,0,1-.92.92H18V16.74h2.16l.32-2.51H18v-1.6c0-.72.2-1.22,1.24-1.22H20.6V9.17a17.87,17.87,0,0,0-1.94-.1,3,3,0,0,0-3.22,3.32v1.85H13.27v2.5h2.17v6.44h-8a.92.92,0,0,1-.92-.92V7.48a.92.92,0,0,1,.92-.92H22.26a.92.92,0,0,1,.92.92Z"/></svg>