<svg xmlns="http://www.w3.org/2000/svg" viewBox="-6396 304 29.74 29.741">
  <defs>
    <style>
      .cls-1 {
        fill: #fff;
      }
    </style>
  </defs>
  <path id="名称未設定-1" class="cls-1" d="M27.65-.45H1.191A1.642,1.642,0,0,0-.45,1.191V27.65a1.642,1.642,0,0,0,1.641,1.641H15.436V17.774H11.56V13.285h3.876V9.976c0-3.842,2.34-5.934,5.773-5.934a31.775,31.775,0,0,1,3.463.177V8.231H22.3c-1.864,0-2.229.885-2.229,2.185v2.865h4.444l-.578,4.488H20.071V29.291h7.577A1.643,1.643,0,0,0,29.29,27.65V1.191A1.643,1.643,0,0,0,27.65-.45Z" transform="translate(-6395.55 304.45)"/>
</svg>
