<svg xmlns="http://www.w3.org/2000/svg" viewBox="-6197 -2456.212 29.938 29.2">
  <defs>
    <style>
      .cls-1 {
        fill: #262626;
      }
    </style>
  </defs>
  <path id="github" class="cls-1" d="M14.969,0a14.97,14.97,0,0,0-4.732,29.172c.748.137,1.021-.325,1.021-.72,0-.356-.014-1.537-.021-2.787C7.075,26.57,6.2,23.9,6.2,23.9a3.969,3.969,0,0,0-1.662-2.189c-1.36-.928.1-.91.1-.91a3.142,3.142,0,0,1,2.294,1.542,3.186,3.186,0,0,0,4.356,1.243,3.2,3.2,0,0,1,.95-2c-3.323-.378-6.818-1.663-6.818-7.4a5.8,5.8,0,0,1,1.539-4.017,5.392,5.392,0,0,1,.148-3.963s1.255-.4,4.117,1.535a14.17,14.17,0,0,1,7.494,0C21.573,5.806,22.83,6.21,22.83,6.21a5.369,5.369,0,0,1,.15,3.962,5.778,5.778,0,0,1,1.539,4.017c0,5.75-3.5,7.017-6.836,7.388a3.566,3.566,0,0,1,1.016,2.77c0,2-.02,3.614-.02,4.108,0,.4.272.864,1.031.718A14.972,14.972,0,0,0,14.969,0Z" transform="translate(-6197 -2456.212)"/>
</svg>
