<svg id="レイヤー_1" data-name="レイヤー 1" xmlns="http://www.w3.org/2000/svg" viewBox="0 0 260.51 33.87"><defs><style>.cls-1{fill:#fff;}</style></defs><title>名称未設定-1</title><path class="cls-1" d="M36,9.45l2.52,3.72a4.9,4.9,0,0,1,.83,2.4l.54,8a4.85,4.85,0,0,1-1.74,4.07l-6.08,5.06a4.86,4.86,0,0,1-3.47,1.12L14,32.79a5,5,0,0,1-2.52-.92L2,25A4.88,4.88,0,0,1,.16,19.78L3.44,7.4A4.88,4.88,0,0,1,6,4.27L13.76.49A4.91,4.91,0,0,1,17.9.43L34,7.74A4.79,4.79,0,0,1,36,9.45Zm-4.95,2.43a.86.86,0,0,0-1.21-.09L27.33,14l-3.1-1.28a.86.86,0,1,0-.65,1.59l3.14,1.3.55,3.35a.86.86,0,0,0,.84.72h.14a.86.86,0,0,0,.71-1l-.55-3.34L31,13.09A.86.86,0,0,0,31.09,11.88Z"/><path class="cls-1" d="M60.07,10.28a1.15,1.15,0,0,1-.12-.5,1.18,1.18,0,0,1,.12-.5,1.29,1.29,0,0,1,.8-.69,1.71,1.71,0,0,1,.53-.1L62,8.6a1.25,1.25,0,0,1,.77.7l1.73,3.92,1.7-3.92A1.27,1.27,0,0,1,67,8.6a1.65,1.65,0,0,1,.57-.11l.54.1a1.3,1.3,0,0,1,.79.69,1.18,1.18,0,0,1,.13.53,1.1,1.1,0,0,1-.1.47l-3,6.75v7.16a1.2,1.2,0,0,1-.43.93,1.6,1.6,0,0,1-2.07,0,1.22,1.22,0,0,1-.41-.93V17Z"/><path class="cls-1" d="M80.83,21.54V9.74a1.2,1.2,0,0,1,.43-.93,1.49,1.49,0,0,1,1-.38,1.52,1.52,0,0,1,1,.38,1.23,1.23,0,0,1,.42.93v11.2a2,2,0,0,0,.05.41,2.59,2.59,0,0,0,.14.45,1.19,1.19,0,0,0,.27.39,2.82,2.82,0,0,0,.32.2,1.73,1.73,0,0,0,.8.14,2,2,0,0,0,.88-.14,1.66,1.66,0,0,0,.32-.2,1.39,1.39,0,0,0,.42-.79,4.48,4.48,0,0,0,.07-.65v-11a1.2,1.2,0,0,1,.43-.93,1.49,1.49,0,0,1,1-.38,1.52,1.52,0,0,1,1,.38,1.23,1.23,0,0,1,.42.93V21.15c0,.09,0,.25,0,.49a3.58,3.58,0,0,1-.14.84,5.12,5.12,0,0,1-.39,1,3.32,3.32,0,0,1-.75,1,4.28,4.28,0,0,1-1.22.8,4.84,4.84,0,0,1-2.09.39,4.7,4.7,0,0,1-2.08-.39,4.52,4.52,0,0,1-1.2-.8,3.4,3.4,0,0,1-.74-1,5,5,0,0,1-.36-1A3.69,3.69,0,0,1,80.83,21.54Z"/><path class="cls-1" d="M102.13,21.54V9.74a1.24,1.24,0,0,1,.43-.93,1.59,1.59,0,0,1,2.06,0,1.2,1.2,0,0,1,.43.93v11.2a2,2,0,0,0,0,.41,2.64,2.64,0,0,0,.15.45,1.05,1.05,0,0,0,.27.39,2.43,2.43,0,0,0,.31.2,1.73,1.73,0,0,0,.8.14,2,2,0,0,0,.88-.14,2.4,2.4,0,0,0,.33-.2,1.32,1.32,0,0,0,.41-.79,5,5,0,0,0,.08-.65v-11a1.23,1.23,0,0,1,.42-.93,1.52,1.52,0,0,1,1-.38,1.51,1.51,0,0,1,1,.38,1.2,1.2,0,0,1,.43.93V21.15c0,.09,0,.25,0,.49a4.19,4.19,0,0,1-.14.84,5.12,5.12,0,0,1-.39,1,3.69,3.69,0,0,1-.75,1,4.51,4.51,0,0,1-1.23.8,4.84,4.84,0,0,1-2.09.39,4.73,4.73,0,0,1-2.08-.39,4.88,4.88,0,0,1-1.2-.8,3.58,3.58,0,0,1-.74-1,5,5,0,0,1-.36-1A4.3,4.3,0,0,1,102.13,21.54Z"/><path class="cls-1" d="M123.32,24.15V9.51l0,0v-.1l0,0v0s0,0,0,0,0,0,0,0l0,0v0s0,0,0,0,0,0,0,0v0s0,0,0,0v0l0,0s0,0,0,0a0,0,0,0,0,0,0l0,0V9a0,0,0,0,0,0,0h0s0,0,0,0,0,0,0,0h0a.06.06,0,0,1,0,0l0,0v0l0,0v0l0,0h0l0,0,0,0h0s0,0,0,0h.07l0-.05a.85.85,0,0,1,.34-.11h0a1.73,1.73,0,0,1,.36,0H125l0,0h.12l0,0h.07s0,0,0,0a.08.08,0,0,0,.07,0,.06.06,0,0,0,0,0h0s0,0,0,0v0s0,0,0,0h.07l0,0,0,0,0,0h0l0,0v0s0,0,0,0h0v0h0v0l0,0,.06,0,0,0a.08.08,0,0,0,0,0s0,0,0,0a.05.05,0,0,0,0,0s0,0,0,0v0a.08.08,0,0,1,0,0h0a.35.35,0,0,0,0,.06s0,0,0,0l4.14,8.62V9.7a1.2,1.2,0,0,1,.43-.93,1.49,1.49,0,0,1,1-.38,1.52,1.52,0,0,1,1,.38,1.23,1.23,0,0,1,.42.93V24.34l0,0v.1a0,0,0,0,0,0,0v0s0,0,0,0v0s0,0,0,0,0,0,0,0,0,0,0,0,0,0,0,0,0,0,0,0a0,0,0,0,0,0,0v0s0,0,0,0l0,0a0,0,0,0,1,0,0l0,0v0s0,0,0,0l0,0v0a0,0,0,0,0,0,0h0l0,0-.05,0,0,.05-.05,0h0l0,0a0,0,0,0,1,0,0,0,0,0,0,1,0,0l0,0h-.08l0,0-.17.07-.19.05-.29,0-.22,0h-.08a0,0,0,0,1,0,0h-.1v0h0l-.12-.06s0,0,0,0h0s0,0,0,0l0,0s0,0,0,0h0s0,0,0,0a1.4,1.4,0,0,1-.42-.42v0s0,0,0,0l0,0v0s0,0,0,0l0,0L126.23,16v8.12a1.23,1.23,0,0,1-.42.93,1.49,1.49,0,0,1-1,.38,1.51,1.51,0,0,1-1-.38A1.2,1.2,0,0,1,123.32,24.15Z"/><path class="cls-1" d="M145.26,24.15V9.7a1.24,1.24,0,0,1,.43-.93,1.52,1.52,0,0,1,1-.38,1.48,1.48,0,0,1,1,.38,1.23,1.23,0,0,1,.42.93V24.15a1.23,1.23,0,0,1-.42.93,1.48,1.48,0,0,1-1,.38,1.52,1.52,0,0,1-1-.38A1.24,1.24,0,0,1,145.26,24.15Z"/><path class="cls-1" d="M162.67,9.92a1,1,0,0,1,0-.18,1.19,1.19,0,0,1,.31-.8,1.47,1.47,0,0,1,1-.49h.2a1.46,1.46,0,0,1,.88.28,1.24,1.24,0,0,1,.54.87l1.17,8.64.8-2.16a0,0,0,0,1,0,0,0,0,0,0,0,0,0l0,0v0s0,0,0,0v0a.21.21,0,0,0,.06-.08l.07-.08,0,0v0h.05v0s0,0,0,0h0v0l0,0,.05,0v0s0,0,0,0v0a0,0,0,0,0,0,0l.07,0a.88.88,0,0,1,.18-.1l0,0s0,0,0,0h0l0,0,.07,0,.07,0h.07l0,0h.13l0,0h.29s0,0,0,0h.13l0,0h.07l.07,0a.15.15,0,0,0,.08,0l0,0,.25.14a0,0,0,0,1,.05,0h0l0,0s0,0,0,0l0,0s0,0,0,0a0,0,0,0,1,0,0s0,0,0,0,0,0,0,0a0,0,0,0,1,0,0,0,0,0,0,1,0,0l0,0,0,0,0,0,.06.08s0,0,.07.08a.08.08,0,0,0,0,.06v0l0,0,0,0s0,0,0,0l.77,2.16,1.19-8.64a1.22,1.22,0,0,1,.55-.87,1.43,1.43,0,0,1,.87-.28h.21a1.45,1.45,0,0,1,1,.49,1.15,1.15,0,0,1,.29.8,1.09,1.09,0,0,1,0,.18l-2,14.4a.08.08,0,0,1,0,.06s0,0,0,.05v0l0,0v.06l0,.05s0,.05,0,.06,0,.05,0,.07a.3.3,0,0,1,0,.08h0a.06.06,0,0,1,0,.06s0,0,0,0,0,0,0,0h0l0,0v0a0,0,0,0,0,0,0s0,0,0,0a0,0,0,0,0,0,0,1.44,1.44,0,0,1-.27.22h0l0,0h0l-.05,0,0,0,0,0h0v0l-.15.05-.16,0h-.1s0,0,0,0h-.17l-.25,0-.07,0h-.07l0,0h0l0,0h0l0,0a.22.22,0,0,1-.17-.07l-.05,0a.05.05,0,0,0,0,0,.1.1,0,0,1-.05,0s0,0,0,0h0l-.05,0a1.13,1.13,0,0,1-.34-.39.06.06,0,0,1,0-.05l0,0v0s0,0,0,0,0,0,0,0,0,0,0,0,0,0,0,0l-1.44-3.91-1.43,3.91a.08.08,0,0,0,0,.07.05.05,0,0,0,0,0v0a0,0,0,0,0,0,0s0,0,0,.05a1.71,1.71,0,0,1-.35.39l-.05,0h0l0,0-.05,0s0,0,0,0h0a0,0,0,0,1,0,0h0a.71.71,0,0,1-.2.1l-.05,0h0s0,0,0,0h-.08a.1.1,0,0,1-.07,0l-.25,0h-.16a0,0,0,0,0,0,0h-.1l-.18,0-.14-.05,0,0h0l0,0,0,0,0,0h0l-.05,0a2.7,2.7,0,0,1-.25-.2l0,0,0,0,0,0,0,0v0l0,0a0,0,0,0,0,0,0s0,0,0,0l-.12-.21a.11.11,0,0,1,0-.06s0,0,0-.05v0l0,0v-.05a.23.23,0,0,1,0-.11Z"/><path class="cls-1" d="M186.84,21.49V12.6a4,4,0,0,1,.49-2.12,4.75,4.75,0,0,1,1-1.22,4.46,4.46,0,0,1,3-1,5.26,5.26,0,0,1,1.65.26,4.17,4.17,0,0,1,2.54,2.18,4.29,4.29,0,0,1,.41,2v8.49c0,.09,0,.25,0,.49a4,4,0,0,1-.13.83,6,6,0,0,1-.39,1,3.54,3.54,0,0,1-.76,1,4.75,4.75,0,0,1-1.22.81,4.84,4.84,0,0,1-2.09.39,4.7,4.7,0,0,1-2.08-.39,4.77,4.77,0,0,1-1.2-.81,3.4,3.4,0,0,1-.74-1,4.7,4.7,0,0,1-.36-1A4.31,4.31,0,0,1,186.84,21.49Zm2.91-.07a2,2,0,0,0,.05.41,2.59,2.59,0,0,0,.14.45,1.36,1.36,0,0,0,.27.39l.32.2a1.73,1.73,0,0,0,.8.14,1.85,1.85,0,0,0,.88-.15l.33-.21a1.16,1.16,0,0,0,.26-.38,1.91,1.91,0,0,0,.15-.44,3.26,3.26,0,0,0,.06-.38,2.2,2.2,0,0,0,0-.23v-8.6a2,2,0,0,0-.18-.93,1.55,1.55,0,0,0-.44-.55,1.31,1.31,0,0,0-.55-.25,3.37,3.37,0,0,0-.52-.05,2.91,2.91,0,0,0-.46.05,1.28,1.28,0,0,0-.52.23,1.54,1.54,0,0,0-.42.53,2.14,2.14,0,0,0-.18.95v8.82Z"/><path class="cls-1" d="M207.65,24.13V9.72a1.2,1.2,0,0,1,.43-.93,1.49,1.49,0,0,1,1-.38h3.51a3.5,3.5,0,0,1,1.77.47,4.6,4.6,0,0,1,1.49,1.34A6,6,0,0,1,217,13.76a6,6,0,0,1-.28,1.85,5.69,5.69,0,0,1-.81,1.66,4.35,4.35,0,0,1-.51.6c-.18.17-.36.33-.53.47l2.54,5.27a1,1,0,0,1,.15.53,1.19,1.19,0,0,1-.11.47,1.36,1.36,0,0,1-.79.71,2.07,2.07,0,0,1-.58.12,1.52,1.52,0,0,1-.78-.21,1.42,1.42,0,0,1-.56-.58L212,19.11h-1.46v5a1.19,1.19,0,0,1-.42.92,1.49,1.49,0,0,1-1,.39,1.45,1.45,0,0,1-1-.39A1.17,1.17,0,0,1,207.65,24.13Zm2.91-7.64h2.06a.65.65,0,0,0,.33-.15,2.14,2.14,0,0,0,.48-.48,3,3,0,0,0,.47-1,3.82,3.82,0,0,0,.16-1.11,4.4,4.4,0,0,0-.16-1.13,3.48,3.48,0,0,0-.47-1,2.29,2.29,0,0,0-.48-.47.71.71,0,0,0-.33-.14h-2.06Z"/><path class="cls-1" d="M229.22,24.21V9.78a1.2,1.2,0,0,1,.43-.92,1.56,1.56,0,0,1,2.06,0,1.17,1.17,0,0,1,.43.92V15l4-5.81a1.35,1.35,0,0,1,.9-.59,2,2,0,0,1,.34,0,1.53,1.53,0,0,1,.77.2,1.27,1.27,0,0,1,.65.81,1,1,0,0,1-.19,1L235,15.72l4.41,7.81a1.24,1.24,0,0,1,.16.61,1.53,1.53,0,0,1-.07.41,1.26,1.26,0,0,1-.75.75,1.93,1.93,0,0,1-.65.14,1.44,1.44,0,0,1-.75-.19,1.26,1.26,0,0,1-.53-.54l-3.6-6.37L232.14,20v4.25a1.23,1.23,0,0,1-.42.93,1.6,1.6,0,0,1-2.07,0A1.24,1.24,0,0,1,229.22,24.21Z"/><path class="cls-1" d="M250.76,21.2a1.17,1.17,0,0,1,.43-.93,1.44,1.44,0,0,1,1-.38,1.48,1.48,0,0,1,1.05.38,1.22,1.22,0,0,1,.41.93,3.34,3.34,0,0,0,.06.62,1.57,1.57,0,0,0,.25.58,1.35,1.35,0,0,0,.57.43,2.71,2.71,0,0,0,1,.16,3.12,3.12,0,0,0,.82-.1,1.55,1.55,0,0,0,1.22-1.67,3.18,3.18,0,0,0-.2-1.17,3,3,0,0,0-.57-.93,4.59,4.59,0,0,0-.92-.81l-1.21-.82c-.42-.26-.84-.54-1.25-.82a8.2,8.2,0,0,1-1.15-1,5.62,5.62,0,0,1-1-1.46A4,4,0,0,1,251,12.6c0-.09,0-.25,0-.48a3.77,3.77,0,0,1,.13-.8,4.29,4.29,0,0,1,.36-1,3.59,3.59,0,0,1,.74-1,4.43,4.43,0,0,1,1.24-.81,5,5,0,0,1,2.13-.38,4.66,4.66,0,0,1,2.12.4,4.77,4.77,0,0,1,1.2.81,3.68,3.68,0,0,1,.7,1.06,4.84,4.84,0,0,1,.3,1,3.73,3.73,0,0,1,.05.64v.18c0,.23,0,.37-.05.42a1.27,1.27,0,0,1-.3.64,1.36,1.36,0,0,1-.52.41,1.12,1.12,0,0,1-.47.1,2.08,2.08,0,0,1-.41-.05,1.52,1.52,0,0,1-.79-.31,1.07,1.07,0,0,1-.34-.48,1.1,1.1,0,0,1-.07-.45c0-.13,0-.21,0-.24a1.25,1.25,0,0,0,0-.24,2,2,0,0,0,0-.33,1.93,1.93,0,0,0-.11-.34,1.08,1.08,0,0,0-.19-.31,1.44,1.44,0,0,0-1.12-.32,1.94,1.94,0,0,0-.91.15l-.33.21a1.07,1.07,0,0,0-.25.35,3.84,3.84,0,0,0-.14.4,2.61,2.61,0,0,0-.06.33c0,.1,0,.17,0,.21v.08a1.88,1.88,0,0,0,.17.8,2.81,2.81,0,0,0,.48.68,4.62,4.62,0,0,0,.76.63l1,.69,1.4.94a9,9,0,0,1,1.32,1.16,5.52,5.52,0,0,1,1.43,3.77,4.49,4.49,0,0,1-.16,1.21,5.22,5.22,0,0,1-.39.95,3.7,3.7,0,0,1-.52.72,6.82,6.82,0,0,1-.58.53,5.53,5.53,0,0,1-3.3,1,6.31,6.31,0,0,1-1.77-.24,4.23,4.23,0,0,1-1.45-.74,3.56,3.56,0,0,1-.55-.5,3.64,3.64,0,0,1-.51-.73,3.49,3.49,0,0,1-.37-1A4.63,4.63,0,0,1,250.76,21.2Z"/></svg>