<svg xmlns="http://www.w3.org/2000/svg" viewBox="0 0 260.42 33.87"><defs><style>.cls-1{fill:#fff;}</style></defs><title>アセット 1</title><g id="レイヤー_2" data-name="レイヤー 2"><g id="レイヤー_2-2" data-name="レイヤー 2"><path class="cls-1" d="M39.93,23.61l-.54-8a4.9,4.9,0,0,0-.83-2.4L36,9.45a4.79,4.79,0,0,0-2-1.71L17.9.43a4.91,4.91,0,0,0-4.14.06L6,4.27A4.88,4.88,0,0,0,3.44,7.4L.16,19.78A4.88,4.88,0,0,0,2,25l9.48,6.91a5,5,0,0,0,2.52.92l14.64,1.07a4.86,4.86,0,0,0,3.47-1.12l6.08-5.06A4.85,4.85,0,0,0,39.93,23.61ZM31,13.09,28.41,15.3,29,18.64a.86.86,0,0,1-.71,1h-.14a.86.86,0,0,1-.84-.72l-.55-3.35-3.14-1.3a.86.86,0,1,1,.65-1.59L27.33,14l2.55-2.17A.85.85,0,1,1,31,13.09Z"/><path class="cls-1" d="M145.28,24.15V9.69a1.23,1.23,0,0,1,.42-.93,1.57,1.57,0,0,1,2.05,0,1.25,1.25,0,0,1,.41.93V24.15a1.25,1.25,0,0,1-.41.93,1.57,1.57,0,0,1-2.05,0A1.23,1.23,0,0,1,145.28,24.15Z"/><path class="cls-1" d="M207.67,24.13V9.71a1.23,1.23,0,0,1,.42-.93,1.48,1.48,0,0,1,1-.38h3.48a3.43,3.43,0,0,1,1.75.47,4.67,4.67,0,0,1,1.48,1.34,6.09,6.09,0,0,1,1.07,3.54,6.44,6.44,0,0,1-.27,1.86,6.36,6.36,0,0,1-.8,1.66,4.25,4.25,0,0,1-.51.59c-.18.18-.35.33-.53.48l2.52,5.26a1.09,1.09,0,0,1,.14.54,1.17,1.17,0,0,1-.1.47,1.33,1.33,0,0,1-.79.71,1.94,1.94,0,0,1-.57.12,1.51,1.51,0,0,1-.77-.21,1.4,1.4,0,0,1-.55-.58L212,19.1h-1.44v5a1.19,1.19,0,0,1-.42.92,1.53,1.53,0,0,1-2,0A1.19,1.19,0,0,1,207.67,24.13ZM214,13.75c0-1.95-1.18-2.73-1.42-2.73h-2v5.46h2C212.83,16.48,214,15.71,214,13.75Z"/><path class="cls-1" d="M229.24,24.21V9.77a1.19,1.19,0,0,1,.42-.92,1.53,1.53,0,0,1,2,0,1.19,1.19,0,0,1,.42.92V15l3.94-5.82a1.31,1.31,0,0,1,.89-.59l.34-.05a1.48,1.48,0,0,1,.76.21,1.3,1.3,0,0,1,.65.81,1.1,1.1,0,0,1,0,.31,1.09,1.09,0,0,1-.23.67L235,15.71l4.37,7.82a1.24,1.24,0,0,1,.16.61,1.53,1.53,0,0,1-.07.41,1.27,1.27,0,0,1-.74.75,1.72,1.72,0,0,1-.65.14,1.43,1.43,0,0,1-.74-.19,1.24,1.24,0,0,1-.52-.54l-3.56-6.37L232.12,20v4.25a1.22,1.22,0,0,1-.41.93,1.57,1.57,0,0,1-2.05,0A1.23,1.23,0,0,1,229.24,24.21Z"/><path class="cls-1" d="M111.17,21.15c0,3.42-2.27,4.52-4.56,4.52s-4.44-1.1-4.44-4.67V9.73a1.23,1.23,0,0,1,.42-.93,1.56,1.56,0,0,1,2,0,1.23,1.23,0,0,1,.42.93V20.84c0,1.6.74,1.95,1.62,1.95s1.61-.42,1.61-1.89V9.75a1.2,1.2,0,0,1,.43-.93,1.55,1.55,0,0,1,2,0,1.2,1.2,0,0,1,.43.93Z"/><path class="cls-1" d="M89.87,21.15c0,3.42-2.26,4.52-4.56,4.52s-4.44-1.1-4.44-4.67V9.73a1.23,1.23,0,0,1,.42-.93,1.52,1.52,0,0,1,1-.38,1.48,1.48,0,0,1,1,.38,1.24,1.24,0,0,1,.43.93V20.84c0,1.6.74,1.95,1.61,1.95S87,22.37,87,20.9V9.75a1.23,1.23,0,0,1,.42-.93,1.56,1.56,0,0,1,2,0,1.23,1.23,0,0,1,.42.93Z"/><path class="cls-1" d="M130.21,17.81V9.69a1.23,1.23,0,0,1,.42-.93,1.47,1.47,0,0,1,1-.38,1.44,1.44,0,0,1,1,.38,1.24,1.24,0,0,1,.43.93V24.21A1.38,1.38,0,0,1,132,25.44a1.52,1.52,0,0,1-1.62-.79L126.23,16v8.13a1.23,1.23,0,0,1-.42.93,1.56,1.56,0,0,1-2,0,1.23,1.23,0,0,1-.42-.93V9.62a1.36,1.36,0,0,1,1.14-1.22,1.49,1.49,0,0,1,1.62.79Z"/><path class="cls-1" d="M170.28,16.06l.76,2.17,1.18-8.65a1.24,1.24,0,0,1,.54-.87,1.43,1.43,0,0,1,.87-.28h.2a1.4,1.4,0,0,1,1,.49,1.15,1.15,0,0,1,.29.8,1.09,1.09,0,0,1,0,.18l-1.94,14.41a1.43,1.43,0,0,1-1.27,1.16,1.49,1.49,0,0,1-1.53-.92l-1.42-3.91-1.42,3.91a1.5,1.5,0,0,1-1.54.92,1.42,1.42,0,0,1-1.26-1.16l-2-14.41a1.09,1.09,0,0,1,0-.18,1.23,1.23,0,0,1,.3-.8,1.47,1.47,0,0,1,1-.49h.2a1.41,1.41,0,0,1,.86.28,1.21,1.21,0,0,1,.54.87l1.16,8.65.79-2.17a1.5,1.5,0,0,1,2.74,0Z"/><path class="cls-1" d="M63,17l-2.92-6.75a1.27,1.27,0,0,1,.81-1.69,1.5,1.5,0,0,1,1.87.71l1.68,3.92,1.67-3.92A1.52,1.52,0,0,1,68,8.58a1.27,1.27,0,0,1,.81,1.69L65.92,17v7.17a1.23,1.23,0,0,1-.42.93,1.48,1.48,0,0,1-1,.38,1.45,1.45,0,0,1-1-.38,1.22,1.22,0,0,1-.41-.93Z"/><path class="cls-1" d="M195.86,12.88c0-3.57-2.15-4.67-4.45-4.67s-4.55,1.1-4.55,4.52V21c0,3.57,2.14,4.67,4.44,4.67s4.56-1.1,4.56-4.52Zm-2.89,8c0,1.46-.69,1.89-1.61,1.89s-1.62-.35-1.62-1.95V13c0-1.46.69-1.88,1.62-1.88S193,11.44,193,13Z"/><path class="cls-1" d="M259.85,12.73a1.35,1.35,0,0,1-1.28,1.15,1.48,1.48,0,0,1-1.52-.84c-.19-.41.09-.74-.14-1.5a1.21,1.21,0,0,0-1.34-.73,1.46,1.46,0,0,0-1.67,1.51,2.16,2.16,0,0,0,.63,1.7,5.19,5.19,0,0,0,.76.64l1,.68,1.38.95a8.3,8.3,0,0,1,1.3,1.15,5.54,5.54,0,0,1,1.42,3.78c0,2.65-2,4.39-4.9,4.39-2.55,0-4.13-1.33-4.6-3.17a4.73,4.73,0,0,1-.14-1.25,1.18,1.18,0,0,1,.41-.92,1.47,1.47,0,0,1,1-.39,1.42,1.42,0,0,1,1,.39,1.25,1.25,0,0,1,.41.92c0,1.69,1.1,1.87,2.17,1.79a1.64,1.64,0,0,0,1.71-1.76,3.28,3.28,0,0,0-.2-1.18c-.36-.94-.94-1.39-2.55-2.47a13.64,13.64,0,0,1-2.5-1.88,5.24,5.24,0,0,1-.95-1.45,4.88,4.88,0,0,1,0-3.62,4.2,4.2,0,0,1,4.19-2.44C259.35,8.18,260.1,11.18,259.85,12.73Z"/></g></g></svg>