<svg xmlns="http://www.w3.org/2000/svg" viewBox="-6182.481 -3710.481 12.481 12.481">
  <defs>
    <style>
      .cls-1 {
        fill: #999;
        fill-rule: evenodd;
      }
    </style>
  </defs>
  <g id="question" transform="translate(-6182.481 -3710.481)">
    <g id="Group">
      <path id="Oval_318" data-name="Oval 318" class="cls-1" d="M53.367,440.627v1.514H55.2v-1.514Zm.874,3.854a6.241,6.241,0,1,1,6.241-6.241A6.241,6.241,0,0,1,54.241,444.481Zm-1.9-9.743a2.355,2.355,0,0,0-1.225,2.117H52.9a1.392,1.392,0,0,1,.3-.839,1.177,1.177,0,0,1,1.012-.4,1.254,1.254,0,0,1,1,.328,1.1,1.1,0,0,1,.274.725.953.953,0,0,1-.246.633l-.357.31-.449.3a2.309,2.309,0,0,0-.825.778,3.545,3.545,0,0,0-.2,1.223h1.662a1.986,1.986,0,0,1,.08-.618,1.157,1.157,0,0,1,.474-.551l.437-.288a4.357,4.357,0,0,0,.9-.723,1.7,1.7,0,0,0,.4-1.148,1.845,1.845,0,0,0-.92-1.676,4.346,4.346,0,0,0-2.311-.566A3.673,3.673,0,0,0,52.345,434.738Zm0,0" transform="translate(-48 -432)"/>
    </g>
  </g>
</svg>
