<?xml version="1.0" ?><!DOCTYPE svg  PUBLIC '-//W3C//DTD SVG 1.1//EN'  'http://www.w3.org/Graphics/SVG/1.1/DTD/svg11.dtd'><svg enable-background="new 0 0 50 50" id="Layer_1" version="1.1" viewBox="0 0 50 50" xml:space="preserve" xmlns="http://www.w3.org/2000/svg" xmlns:xlink="http://www.w3.org/1999/xlink"><path d="M45,1H5C2.8,1,1,2.8,1,5v40c0,2.2,1.8,4,4,4h40c2.2,0,4-1.8,4-4V5C49,2.8,47.2,1,45,1z" fill="#F2890A"/><g id="_x2E__x29__x29_"><circle cx="15.5" cy="34.5" fill="#FFFFFF" id="Dot__x28____x29_" r="3.5"/><path d="M12,12v4.3c12,0,21.7,9.7,21.7,21.7H38C38,23.6,26.4,12,12,12z" fill="#FFFFFF" id="Line__x29__1_"/><path d="M12,20.7V25c7.2,0,13,5.8,13,13h4.3C29.3,28.4,21.6,20.7,12,20.7z" fill="#FFFFFF" id="Line__x29_"/></g></svg>