<?xml version="1.0" standalone="no"?>
<!DOCTYPE svg PUBLIC "-//W3C//DTD SVG 20010904//EN"
 "http://www.w3.org/TR/2001/REC-SVG-20010904/DTD/svg10.dtd">
<svg version="1.0" xmlns="http://www.w3.org/2000/svg"
 width="351.000000pt" height="351.000000pt" viewBox="0 0 351.000000 351.000000"
 preserveAspectRatio="xMidYMid meet">
<metadata>
Created by potrace 1.11, written by Peter Selinger 2001-2013
</metadata>
<g transform="translate(0.000000,351.000000) scale(0.100000,-0.100000)"
fill="#000000" stroke="none">
<path d="M1297 3229 c-41 -10 -93 -34 -527 -246 -315 -155 -363 -188 -418
-290 -17 -32 -40 -92 -51 -133 -11 -41 -34 -129 -51 -195 -18 -66 -48 -178
-67 -250 -19 -71 -64 -240 -100 -375 -70 -261 -82 -344 -64 -431 13 -60 52
-139 91 -185 28 -32 106 -96 201 -164 81 -58 491 -357 504 -367 44 -36 231
-166 262 -181 68 -35 99 -41 318 -57 39 -3 97 -7 130 -10 33 -2 101 -7 150
-10 50 -3 113 -8 140 -10 28 -3 86 -7 130 -10 87 -6 176 -12 270 -20 364 -31
444 -26 543 32 24 13 141 106 260 205 119 99 240 198 267 221 103 86 153 142
186 212 32 67 33 75 33 190 0 105 -6 241 -19 395 -2 25 -6 88 -10 140 -14 233
-18 261 -41 316 -13 32 -156 257 -174 274 -3 3 -31 44 -63 92 -96 144 -97 144
-527 338 -113 51 -242 110 -288 131 -46 21 -85 39 -87 39 -2 0 -36 15 -77 34
-254 118 -641 291 -683 306 -56 19 -178 24 -238 9z m1435 -1033 c23 -28 23
-67 0 -92 -11 -10 -56 -50 -102 -89 -45 -38 -94 -80 -107 -91 l-25 -22 16 -98
c9 -55 19 -112 22 -129 2 -16 7 -42 10 -56 7 -38 -12 -78 -43 -90 -57 -21 -96
10 -107 86 -19 129 -44 257 -52 264 -5 5 -67 32 -139 60 -153 62 -181 83 -171
134 5 26 15 39 38 50 31 15 47 13 103 -13 45 -21 219 -90 226 -90 4 0 27 16
51 36 63 52 150 127 164 142 35 34 87 33 116 -2z"/>
</g>
</svg>
