<svg id="Lambda" xmlns="http://www.w3.org/2000/svg" xmlns:xlink="http://www.w3.org/1999/xlink" viewBox="0 0 487.67 461.49"><defs><style>.cls-1{fill:none;stroke:#4d4d4d;stroke-miterlimit:10;}.cls-2{fill:#4d4d4d;}.cls-3{fill:#9d5025;}.cls-4{fill:#f58536;}.cls-5{fill:#6b3a19;}.cls-6{fill:#fbbf93;}.cls-7{fill:#fad791;}.cls-8{fill:#624a1e;}.cls-9{fill:#d9a741;}.cls-10{fill:#876929;}.cls-11{fill:url(#名称未設定グラデーション_3);}.cls-12{fill:url(#名称未設定グラデーション_2);}.cls-13{fill:#1e1a1a;fill-rule:evenodd;}.cls-14{fill:#151515;}.cls-15{fill:#fff;}</style><radialGradient id="名称未設定グラデーション_3" cx="-254.26" cy="587.91" r="0.81" gradientTransform="matrix(59.84, 0, 0, -59.95, 15475.7, 35439.32)" gradientUnits="userSpaceOnUse"><stop offset="0" stop-color="#20c6b7"/><stop offset="1" stop-color="#4d9abf"/></radialGradient><linearGradient id="名称未設定グラデーション_2" x1="-257.57" y1="582.66" x2="-257.57" y2="583.35" gradientTransform="matrix(96.57, 0, 0, -34.11, 25205.27, 20103.47)" gradientUnits="userSpaceOnUse"><stop offset="0" stop-color="#313d3e"/><stop offset="1" stop-color="#425253"/></linearGradient></defs><title>structure</title><line class="cls-1" x1="248.5" y1="189.99" x2="248.5" y2="75.17"/><polygon class="cls-2" points="253.49 76.63 248.5 67.99 243.51 76.63 253.49 76.63"/><line class="cls-1" x1="232.5" y1="425.99" x2="387.07" y2="349.18"/><polygon class="cls-2" points="387.99 354.3 393.5 345.99 383.55 345.37 387.99 354.3"/><line class="cls-1" x1="369.5" y1="245.99" x2="403.92" y2="287.47"/><polygon class="cls-2" points="399.15 289.53 408.5 292.99 406.82 283.16 399.15 289.53"/><g id="Lambda-2" data-name="Lambda"><polygon class="cls-3" points="41.52 210.34 43.89 211.53 48.08 197.19 43.89 182.8 41.52 183.99 41.52 210.34"/><polygon class="cls-4" points="48.48 183.89 43.89 182.82 43.89 211.53 48.48 210.45 48.48 183.89"/><polygon class="cls-3" points="46.74 181.37 50.22 179.63 54.56 197.19 50.22 214.69 46.74 212.95 46.74 181.37"/><polygon class="cls-4" points="57.35 212.36 50.22 214.63 50.22 179.63 57.35 181.91 57.35 212.36"/><polygon class="cls-3" points="73.54 185.78 76.39 185.78 76.39 207.61 73.54 207.45 73.54 185.78"/><polygon class="cls-5" points="62.47 186.1 65.67 184.45 76.17 185.78 76.48 188.57 73.6 188.98 62.47 186.1"/><polygon class="cls-6" points="62.57 208.23 65.76 209.88 76.56 205.75 73.7 205.35 62.57 208.23"/><polygon class="cls-3" points="63.38 203.59 69.08 204.36 69.08 189.97 63.38 190.73 63.38 203.59"/><polygon class="cls-3" points="54.56 216.86 60.14 219.65 64.92 197.13 60.14 174.68 54.56 177.46 54.56 216.86"/><path class="cls-4" d="M60.14,175.24v45l18.63-9.31V184.55Zm16.25,31.1-10.68,3.21V185.9l10.67,3.2Z" transform="translate(0 -0.56)"/><polygon class="cls-4" points="69.08 189.97 69.08 204.4 75.02 197.19 69.08 189.97"/></g><g id="API"><polygon class="cls-7" points="78.85 292.79 69.8 292.42 63.94 292.79 73.61 305.95 78.85 292.79"/><polygon class="cls-8" points="78.85 287.34 69.8 287.72 63.94 287.34 73.61 274.19 78.85 287.34"/><polygon class="cls-8" points="41.59 287.33 50.63 287.72 56.5 287.34 46.82 274.25 41.59 287.33"/><polygon class="cls-7" points="41.59 292.79 50.63 292.42 56.5 292.79 46.82 305.96 41.59 292.79"/><polygon class="cls-9" points="73.61 286.82 78.85 287.34 78.85 276.81 73.61 274.19 73.61 286.82"/><polygon class="cls-10" points="63.94 276.8 73.61 274.19 73.61 286.82 63.94 287.34 63.94 276.8"/><polygon class="cls-9" points="60.22 275.27 70.69 278.7 70.69 283.91 60.22 282.06 60.22 275.27"/><polygon class="cls-8" points="55.5 282.92 60.29 282.07 70.69 283.91 66.05 284.42 55.5 282.92"/><polygon class="cls-10" points="46.82 286.82 41.59 287.33 41.59 276.76 46.82 274.18 46.82 286.82"/><polygon class="cls-9" points="56.5 276.8 46.82 274.18 46.82 286.82 56.5 287.34 56.5 276.8"/><polygon class="cls-10" points="60.22 275.27 49.74 278.7 49.74 283.91 60.22 282.06 60.22 275.27"/><polygon class="cls-8" points="64.94 282.92 60.14 282.07 49.74 283.91 54.39 284.42 64.94 282.92"/><polygon class="cls-9" points="73.61 293.32 78.85 292.79 78.85 303.33 73.61 305.95 73.61 293.32"/><polygon class="cls-10" points="63.94 303.34 73.61 305.95 73.61 293.32 63.94 292.79 63.94 303.34"/><polygon class="cls-9" points="60.22 304.87 70.69 301.44 70.69 296.23 60.22 298.07 60.22 304.87"/><polygon class="cls-7" points="55.5 297.22 60.29 298.06 70.69 296.23 66.05 295.72 55.5 297.22"/><polygon class="cls-10" points="46.82 293.32 41.59 292.79 41.59 303.33 46.82 305.96 46.82 293.32"/><polygon class="cls-9" points="56.5 303.34 46.82 305.96 46.82 293.32 56.5 292.79 56.5 303.34"/><polygon class="cls-10" points="60.22 304.87 49.74 301.44 49.74 296.23 60.22 298.07 60.22 304.87"/><polygon class="cls-7" points="64.94 297.22 60.14 298.06 49.74 296.23 54.39 295.72 64.94 297.22"/><polygon class="cls-10" points="54.64 309.68 60.22 312.46 63.31 310.92 65.79 270.28 60.22 267.49 54.64 270.28 54.64 309.68"/><polygon class="cls-9" points="65.79 309.68 60.22 312.46 60.22 267.49 65.79 270.28 65.79 309.68"/></g><g id="SES"><polygon class="cls-10" points="47.39 84.84 38.27 99.37 47.39 113.9 54.68 112.03 55.04 86.81 47.39 84.84"/><polygon class="cls-9" points="57.58 111.29 47.39 113.9 47.39 84.84 57.58 87.45 57.58 111.29"/><polygon class="cls-10" points="56.37 89.83 57.58 122.65 76.84 113.02 76.83 88.5 71.92 89.31 56.37 89.83"/><polygon class="cls-10" points="63.72 96.31 69.73 95.96 75.67 85.18 60.65 77.68 55.04 80.13 63.72 96.31"/><polygon class="cls-9" points="60.65 77.68 75.67 85.18 69.73 95.96 60.65 77.68"/><polygon class="cls-10" points="57.58 80.79 69.73 102.83 71.81 115.53 57.58 122.65 51.82 119.77 51.82 83.09 57.58 80.79 57.58 80.79"/><polygon class="cls-9" points="76.83 88.5 76.84 113.02 57.58 122.65 57.58 80.79 69.73 102.83 76.83 88.5"/></g><path class="cls-2" d="M40.12,228.5v7.95H44.5v.89H39.08V228.5Z" transform="translate(0 -0.56)"/><path class="cls-2" d="M45.91,232.68a2.26,2.26,0,0,1,2.44-1.61q2.22,0,2.22,2v2.24a15.31,15.31,0,0,0,.12,2H49.8a7.67,7.67,0,0,1-.13-1,2.4,2.4,0,0,1-2.1,1.12,1.87,1.87,0,0,1-1.45-.56,1.73,1.73,0,0,1-.44-1.23c0-1.1.67-1.78,2-2a16.06,16.06,0,0,1,1.92-.2v-.32a1.45,1.45,0,0,0-.35-1.1,1.38,1.38,0,0,0-1-.27A1.4,1.4,0,0,0,46.84,233Zm3.71,1.49a9.2,9.2,0,0,0-1.71.18c-.85.19-1.28.62-1.28,1.3a1,1,0,0,0,.35.84,1.2,1.2,0,0,0,.83.27,2.12,2.12,0,0,0,1.81-1.22Z" transform="translate(0 -0.56)"/><path class="cls-2" d="M53.66,231.21v1.12a2.47,2.47,0,0,1,2-1.25,1.58,1.58,0,0,1,1.08.38,1.47,1.47,0,0,1,.45.85,2.51,2.51,0,0,1,2-1.23,1.53,1.53,0,0,1,1.24.52,1.81,1.81,0,0,1,.41,1.23v4.51h-1v-4.16c0-.83-.33-1.25-1-1.25a1.48,1.48,0,0,0-.94.37,3,3,0,0,0-.7.85v4.19h-1v-4.16c0-.83-.32-1.25-1-1.25a1.49,1.49,0,0,0-.92.36,3,3,0,0,0-.73.86v4.19h-1v-6.13Z" transform="translate(0 -0.56)"/><path class="cls-2" d="M64,228.34v3.81a2.28,2.28,0,0,1,.85-.84,2,2,0,0,1,.93-.24,2,2,0,0,1,1.77.93,4,4,0,0,1,.59,2.27,3.67,3.67,0,0,1-.8,2.49,2.1,2.1,0,0,1-1.63.74A2,2,0,0,1,64,236.37l-.18,1h-.72v-9Zm0,4.72v2.51a1.75,1.75,0,0,0,1.51,1.14,1.38,1.38,0,0,0,1.22-.7,3.14,3.14,0,0,0,.41-1.73,2.94,2.94,0,0,0-.5-1.87,1.29,1.29,0,0,0-1.06-.53A1.78,1.78,0,0,0,64,233.06Z" transform="translate(0 -0.56)"/><path class="cls-2" d="M74.73,228.34v9h-1v-.89A2,2,0,0,1,72,237.5a2,2,0,0,1-1.78-1,3.84,3.84,0,0,1-.61-2.26,3.64,3.64,0,0,1,.76-2.48,2.06,2.06,0,0,1,1.6-.72,2,2,0,0,1,1.79,1v-3.77Zm-1,4.72a1.75,1.75,0,0,0-1.56-1.18,1.34,1.34,0,0,0-1.19.69,3.13,3.13,0,0,0-.41,1.71,2.92,2.92,0,0,0,.54,1.89,1.38,1.38,0,0,0,1.11.53,1.75,1.75,0,0,0,1.51-1.15Z" transform="translate(0 -0.56)"/><path class="cls-2" d="M76.75,232.68a2.26,2.26,0,0,1,2.44-1.61q2.22,0,2.22,2v2.24a15.31,15.31,0,0,0,.12,2h-.88a7.41,7.41,0,0,1-.14-1,2.4,2.4,0,0,1-2.1,1.12,1.87,1.87,0,0,1-1.45-.56,1.72,1.72,0,0,1-.43-1.23c0-1.1.67-1.78,2-2a16.06,16.06,0,0,1,1.92-.2v-.32a1.45,1.45,0,0,0-.34-1.1,1.61,1.61,0,0,0-2.44.89Zm3.71,1.49a9,9,0,0,0-1.7.18c-.86.19-1.28.62-1.28,1.3a1,1,0,0,0,.34.84,1.24,1.24,0,0,0,.83.27,2.11,2.11,0,0,0,1.81-1.22Z" transform="translate(0 -0.56)"/><path class="cls-2" d="M29.38,321.5l2.85,8.84H31.14l-.86-2.8H27.13l-.89,2.8h-1l2.84-8.84Zm.67,5.22-.65-2.15c-.18-.55-.39-1.31-.63-2.27h-.18c-.2.83-.41,1.59-.61,2.26l-.65,2.16Z" transform="translate(0 -0.56)"/><path class="cls-2" d="M33.88,321.5h2.94q3.06,0,3.06,2.46a2.24,2.24,0,0,1-.92,1.92,3.67,3.67,0,0,1-2.23.59H34.91v3.87h-1Zm1,.84v3.32h1.77c1.41,0,2.12-.56,2.12-1.69s-.68-1.63-2-1.63Z" transform="translate(0 -0.56)"/><path class="cls-2" d="M42.87,321.5v8.84h-1V321.5Z" transform="translate(0 -0.56)"/><path class="cls-2" d="M55.18,323.79l-1,.26A2.11,2.11,0,0,0,52,322.2a2.23,2.23,0,0,0-2,1.08,4.73,4.73,0,0,0-.65,2.64,4.43,4.43,0,0,0,.81,2.89,2.18,2.18,0,0,0,1.8.83,1.92,1.92,0,0,0,1.73-.95,3.9,3.9,0,0,0,.53-1.95H51.92v-.85h3.32v4.49h-.73L54.39,329a2.64,2.64,0,0,1-1.08,1.2,2.79,2.79,0,0,1-1.39.35,3.2,3.2,0,0,1-2.74-1.35,5.36,5.36,0,0,1-.89-3.22,4.93,4.93,0,0,1,1.2-3.54A3.29,3.29,0,0,1,52,321.34a3.11,3.11,0,0,1,2.16.76A3.4,3.4,0,0,1,55.18,323.79Z" transform="translate(0 -0.56)"/><path class="cls-2" d="M57.22,325.68a2.26,2.26,0,0,1,2.44-1.61q2.22,0,2.22,2v2.24a15.31,15.31,0,0,0,.12,2h-.89a7.67,7.67,0,0,1-.13-1,2.4,2.4,0,0,1-2.1,1.12,1.87,1.87,0,0,1-1.45-.56A1.73,1.73,0,0,1,57,328.7c0-1.1.68-1.78,2-2a16.06,16.06,0,0,1,1.92-.2v-.32a1.41,1.41,0,0,0-.35-1.1,1.35,1.35,0,0,0-.94-.27A1.41,1.41,0,0,0,58.15,326Zm3.71,1.49a9,9,0,0,0-1.7.18c-.86.19-1.29.62-1.29,1.3a1,1,0,0,0,.35.84,1.22,1.22,0,0,0,.83.27,2.12,2.12,0,0,0,1.81-1.22Z" transform="translate(0 -0.56)"/><path class="cls-2" d="M65.29,322.09v2.12h1.46V325H65.29v3.78c0,.66.28,1,.85,1a3.55,3.55,0,0,0,.77-.07l0,.75a5.42,5.42,0,0,1-1,.07,1.39,1.39,0,0,1-1.58-1.57V325h-1v-.76h1V322.3Z" transform="translate(0 -0.56)"/><path class="cls-2" d="M73.11,327.42H68.82a2.65,2.65,0,0,0,.55,1.81,1.61,1.61,0,0,0,1.25.53,1.5,1.5,0,0,0,1.55-1.25l.91.3a2.4,2.4,0,0,1-2.48,1.68,2.49,2.49,0,0,1-2.08-1,3.61,3.61,0,0,1-.65-2.24,3.43,3.43,0,0,1,.85-2.45,2.5,2.5,0,0,1,3.75.16,3.55,3.55,0,0,1,.64,2.2Zm-1-.7a2.3,2.3,0,0,0-.55-1.48,1.43,1.43,0,0,0-1.08-.43,1.52,1.52,0,0,0-1.23.59,2.35,2.35,0,0,0-.46,1.32Z" transform="translate(0 -0.56)"/><path class="cls-2" d="M82.73,324.21,81,330.34H79.75l-.81-3.44c-.12-.53-.26-1.17-.41-1.9h-.19c-.2,1.05-.33,1.69-.38,1.91l-.83,3.43H75.91l-1.74-6.13h1l.81,3.45c.07.26.15.6.24,1s.15.69.18.86h.2c0-.17.11-.5.21-1s.14-.65.19-.88l.81-3.46h1.27l.79,3.42c.18.77.32,1.41.41,1.92h.19c0-.17.12-.51.23-1,.08-.36.15-.66.2-.9l.84-3.42Z" transform="translate(0 -0.56)"/><path class="cls-2" d="M84,325.68a2.26,2.26,0,0,1,2.44-1.61q2.22,0,2.22,2v2.24a15.31,15.31,0,0,0,.12,2h-.89c0-.24-.09-.57-.13-1a2.4,2.4,0,0,1-2.1,1.12,1.87,1.87,0,0,1-1.45-.56,1.72,1.72,0,0,1-.43-1.23c0-1.1.67-1.78,2-2a16.06,16.06,0,0,1,1.92-.2v-.32a1.45,1.45,0,0,0-.34-1.1A1.61,1.61,0,0,0,85,326Zm3.71,1.49a9,9,0,0,0-1.7.18c-.86.19-1.29.62-1.29,1.3a1,1,0,0,0,.35.84,1.22,1.22,0,0,0,.83.27,2.12,2.12,0,0,0,1.81-1.22Z" transform="translate(0 -0.56)"/><path class="cls-2" d="M95.25,324.21,93,330.63a3.06,3.06,0,0,1-1,1.52,2.19,2.19,0,0,1-1.29.37,3.81,3.81,0,0,1-.59,0l-.06-.8a4.27,4.27,0,0,0,.64.07c.66,0,1.12-.41,1.39-1.23l.1-.29-2.13-6h1.05l1.08,3.48.42,1.5h.12c.23-.82.37-1.33.43-1.52l1.06-3.46Z" transform="translate(0 -0.56)"/><path class="cls-2" d="M53,135.45l-1,.31a1.85,1.85,0,0,0-1.87-1.57,2,2,0,0,0-1.36.44,1.26,1.26,0,0,0-.42,1,1.34,1.34,0,0,0,.46,1.11,3.48,3.48,0,0,0,1.38.58l.38.12a4.12,4.12,0,0,1,2.19,1.09,2.52,2.52,0,0,1-.44,3.38,4,4,0,0,1-4.31,0,2.89,2.89,0,0,1-1-1.58l1-.36a2.23,2.23,0,0,0,.86,1.36,2.18,2.18,0,0,0,1.27.37,2.24,2.24,0,0,0,1.59-.49,1.4,1.4,0,0,0,.42-1.06,1.42,1.42,0,0,0-.44-1.13,4.28,4.28,0,0,0-1.54-.66l-.35-.1a4.1,4.1,0,0,1-2.05-1.06,2.23,2.23,0,0,1-.46-1.49A2.1,2.1,0,0,1,48,134a3.06,3.06,0,0,1,2-.62A2.82,2.82,0,0,1,53,135.45Z" transform="translate(0 -0.56)"/><path class="cls-2" d="M60.67,133.5v.88H56.15v2.83h3.42v.88H56.15v3.37h4.6v.88H55.1V133.5Z" transform="translate(0 -0.56)"/><path class="cls-2" d="M67.92,135.45l-1,.31A1.87,1.87,0,0,0,65,134.19a2,2,0,0,0-1.36.44,1.26,1.26,0,0,0-.41,1,1.36,1.36,0,0,0,.45,1.11,3.48,3.48,0,0,0,1.38.58l.39.12a4.2,4.2,0,0,1,2.19,1.09,2.23,2.23,0,0,1,.45,1.47,2.27,2.27,0,0,1-.89,1.91,3.48,3.48,0,0,1-2.16.61,3.39,3.39,0,0,1-2.15-.64,2.91,2.91,0,0,1-1-1.58l1-.36a2.29,2.29,0,0,0,.87,1.36,2.16,2.16,0,0,0,1.27.37,2.22,2.22,0,0,0,1.58-.49,1.4,1.4,0,0,0,.42-1.06,1.39,1.39,0,0,0-.44-1.13,4.19,4.19,0,0,0-1.54-.66l-.35-.1a4.1,4.1,0,0,1-2-1.06,2.23,2.23,0,0,1-.46-1.49A2.1,2.1,0,0,1,63,134a3.07,3.07,0,0,1,2-.62A2.81,2.81,0,0,1,67.92,135.45Z" transform="translate(0 -0.56)"/><rect class="cls-1" x="0.5" y="50.99" width="116" height="309"/><g id="Press"><g id="press-v4"><g id="logo-resources"><g id="Group-14"><g id="Group-14-Copy-5"><g id="full-logo-light"><g id="logo-v1-01"><g id="Layer_1" data-name="Layer 1"><g id="Page-1"><g id="logo"><g id="Page-1-2" data-name="Page-1"><g id="logo-text-dark_jm" data-name="logo-text-dark jm"><path id="Combined-Shape" class="cls-11" d="M270.42,211.3a2.16,2.16,0,0,1,.62.47l0,0h0l4.75-2s0,0,0-.06a.07.07,0,0,0,0-.06l-4.45-4.4a.06.06,0,0,0,0,0h0s0,0,0,.06l-1,6S270.4,211.3,270.42,211.3Zm-9.85-4a2.53,2.53,0,0,1,.41,1.16s0,0,0,.06l7.06,3h0s0,0,0,0a2.14,2.14,0,0,1,.72-.37.06.06,0,0,0,.05-.06l1.15-7.18a.07.07,0,0,0,0-.06l-4.42-4.4s0,0,0,0a0,0,0,0,0,0,0l-5,7.73A.11.11,0,0,0,260.57,207.32Zm24.12,11.06-7.58-7.53,0,0h0L271.91,213s0,0,0,.06,0,.06,0,.06l12.68,5.38h0s0,0,0,0l0,0C284.74,218.46,284.74,218.4,284.69,218.38Zm-1.26,1.23-12.16-5.16h0a.07.07,0,0,0-.06,0,2.07,2.07,0,0,1-1.41.82.06.06,0,0,0-.06.06l-1.3,8a.07.07,0,0,0,0,.06,2.06,2.06,0,0,1,.78,1.43s0,.06.07.06l7.35,1.54h0s0,0,0,0l6.73-6.69a.08.08,0,0,0,0-.12Zm-16.11-6.83L260.67,210h0s0,0-.06,0a2.42,2.42,0,0,1-2,1.11,3,3,0,0,1-.4,0h0s0,0-.06,0l-5.47,8.49a.06.06,0,0,0,0,.08.07.07,0,0,0,.06,0h0l14.6-6.24s0,0,0-.06v-.18a1.73,1.73,0,0,1,.05-.35A.09.09,0,0,0,267.32,212.78Zm8,14.84-6.47-1.33h0l-.06,0a2.21,2.21,0,0,1-.93.7s0,0,0,.06l-1.55,9.53a.1.1,0,0,0,0,.08h0s0,0,0,0l9-8.89a.07.07,0,0,0,0-.06C275.38,227.64,275.36,227.62,275.34,227.62Zm-9-.65a2.14,2.14,0,0,1-1.24-1.43s0,0-.06-.06L253,223h0s0,0-.06,0a1.78,1.78,0,0,1-.17.27.06.06,0,0,0,0,.08l10.91,15.79,0,0s0,0,0,0l.66-.66s0,0,0,0L266.31,227S266.35,227,266.31,227Zm-13-5.42a.05.05,0,0,0,.06.06l11.88,2.46h0s0,0,.06,0A2.08,2.08,0,0,1,267,223s.07,0,.07-.06l1.28-7.87s0-.07-.05-.07a2.18,2.18,0,0,1-.26-.22.08.08,0,0,0-.05,0h0L253.26,221s0,0,0,.08A3.78,3.78,0,0,1,253.28,221.55Zm-5,2a2.93,2.93,0,0,1-.18-.26.1.1,0,0,0-.07,0h0l-5.12,2.19a0,0,0,0,0,0,0,.07.07,0,0,0,0,.06l2.5,2.47,0,0s0,0,.06,0l2.83-4.4A.06.06,0,0,0,248.3,223.53Zm3.39.8s0,0-.06,0h0a2.86,2.86,0,0,1-1.14.25,2.89,2.89,0,0,1-.91-.15h0s0,0-.06,0l-3,4.63,0,0a.06.06,0,0,0,0,.08l13.68,13.56,0,0s0,0,0,0l2.4-2.4a.06.06,0,0,0,0-.08ZM249.77,219s0,0,.06,0h0a3.61,3.61,0,0,1,.64-.08,2.75,2.75,0,0,1,.7.1h0a.1.1,0,0,0,.07,0l5.53-8.59a.06.06,0,0,0,0-.08,2.42,2.42,0,0,1-.68-1.68,2.64,2.64,0,0,1,.06-.55.1.1,0,0,0,0-.08c-.7-.31-6.92-2.92-6.92-2.94h0s0,0,0,0l-5.27,5.23a.06.06,0,0,0,0,.08Zm.6-15,6.54,2.78h0l0,0a2.55,2.55,0,0,1,1.55-.55,2.82,2.82,0,0,1,.8.12h0s0,0,.06,0l5.11-7.91a.06.06,0,0,0,0-.08l-4.24-4.2s0,0,0,0,0,0,0,0l-9.83,9.78a.07.07,0,0,0,0,.06S250.35,204,250.37,204Zm-2.44,16.47s0,0,.06,0a3.06,3.06,0,0,1,.5-.68.06.06,0,0,0,0-.08c-.06-.08-5.66-8.18-5.66-8.2l-.06,0s0,0,0,0l-6.53,6.46a.07.07,0,0,0,0,.06s0,0,.06,0l11.69,2.46Zm-.54,1.41a.05.05,0,0,0-.06-.06l-10.14-2.11h0s0,0-.06,0,0,.06,0,.08l4.52,4.5a.06.06,0,0,0,0,0h0l5.62-2.39S247.39,221.92,247.39,221.9Z" transform="translate(0 -0.56)"/><path id="Combined-Shape-2" data-name="Combined-Shape" class="cls-12" d="M335,206.31h3.3v21.31H335Zm-33.81,6a5.29,5.29,0,0,0-4.3,2l-.1-1.74h-3.1v15H297V216.93a3.19,3.19,0,0,1,3-1.84,2.49,2.49,0,0,1,2,.69,3.09,3.09,0,0,1,.6,2.11v9.71h3.3v-9.92C305.78,214.13,304.23,212.33,301.16,212.33Zm14.27,0a6.21,6.21,0,0,0-3.43,1,6.55,6.55,0,0,0-2.4,2.76,9.37,9.37,0,0,0-.84,4v.41a7.41,7.41,0,0,0,2,5.37,6.75,6.75,0,0,0,5.1,2,7.47,7.47,0,0,0,3.33-.74,5.78,5.78,0,0,0,2.35-2.08l-1.78-1.74a4.45,4.45,0,0,1-3.69,1.88,3.65,3.65,0,0,1-2.69-1.08,4.56,4.56,0,0,1-1.22-2.95h9.63v-1.35a8.53,8.53,0,0,0-1.63-5.54A5.87,5.87,0,0,0,315.43,212.33Zm3,6.38h-6.3a4.92,4.92,0,0,1,1.08-2.7,2.74,2.74,0,0,1,2.21-1,2.77,2.77,0,0,1,2.15.85,4.26,4.26,0,0,1,.88,2.56v.25Zm10.74,6a1.91,1.91,0,0,1-.33-1.25v-8.38h2.61v-2.5h-2.61V209h-3.3v3.64h-2.42v2.5h2.42v8.5c0,2.87,1.28,4.3,3.82,4.3a7.57,7.57,0,0,0,2.19-.33v-2.62a4.3,4.3,0,0,1-1.16.15A1.45,1.45,0,0,1,329.18,224.72Zm14.21-12.11h3.31v15h-3.31Zm22.06,10.19-3.12-10.19h-3.57l5.18,14.93-.47,1.29a3,3,0,0,1-1,1.55,3.17,3.17,0,0,1-1.88.48l-.62-.05v2.62a5.68,5.68,0,0,0,1.59.25c2.15,0,3.68-1.27,4.58-3.79L372,212.61h-3.53Zm-12.27-15.42a5.22,5.22,0,0,0-1.36,3.86v1.37h-2.25v2.5h2.25v12.51h3.31V215.11h3v-2.5h-3v-1.33c0-1.65.78-2.47,2.37-2.47a7.57,7.57,0,0,1,1.26.1l.08-2.64A7.78,7.78,0,0,0,357,206,5.11,5.11,0,0,0,353.18,207.38ZM346.7,206V209h-3.31V206Z" transform="translate(0 -0.56)"/></g></g></g></g></g></g></g></g></g></g></g></g><path class="cls-13" d="M162.8,18.49a18.15,18.15,0,0,0-5.74,35.37c.91.16,1.24-.4,1.24-.88s0-1.57,0-3.09c-5,1.1-6.11-2.43-6.11-2.43a4.8,4.8,0,0,0-2-2.65c-1.65-1.13.12-1.1.12-1.1a3.79,3.79,0,0,1,2.78,1.87,3.86,3.86,0,0,0,5.28,1.5,3.93,3.93,0,0,1,1.15-2.42c-4-.46-8.26-2-8.26-9a7,7,0,0,1,1.87-4.87,6.49,6.49,0,0,1,.18-4.8s1.52-.49,5,1.86a17.24,17.24,0,0,1,9.09,0c3.46-2.35,5-1.86,5-1.86a6.57,6.57,0,0,1,.19,4.8,7,7,0,0,1,1.86,4.87c0,7-4.24,8.5-8.28,9A4.34,4.34,0,0,1,167.32,48c0,2.43,0,4.39,0,5s.32,1.05,1.24.87a18.15,18.15,0,0,0-5.74-35.36Z" transform="translate(0 -0.56)"/><path class="cls-14" d="M207.82,34.45h-7.51a.35.35,0,0,0-.35.35v3.67a.35.35,0,0,0,.35.35h2.93v4.57a8.93,8.93,0,0,1-2.47.22c-2.15,0-5.15-.78-5.15-7.37s3.12-7.47,6-7.47a11.75,11.75,0,0,1,4.33.67.36.36,0,0,0,.42-.35l.84-3.55a.31.31,0,0,0-.14-.27c-.28-.2-2-1.17-6.35-1.17-5,0-10.16,2.14-10.16,12.39s5.89,11.79,10.85,11.79a12.18,12.18,0,0,0,6.6-1.76.31.31,0,0,0,.12-.26V34.8A.36.36,0,0,0,207.82,34.45Z" transform="translate(0 -0.56)"/><path class="cls-14" d="M246.54,25.33a.35.35,0,0,0-.35-.35H242a.35.35,0,0,0-.35.35v8.18H235V25.33a.35.35,0,0,0-.35-.35h-4.23a.35.35,0,0,0-.35.35V47.46a.36.36,0,0,0,.35.36h4.23a.36.36,0,0,0,.35-.36V38h6.59v9.46a.36.36,0,0,0,.35.36h4.24a.36.36,0,0,0,.35-.36Z" transform="translate(0 -0.56)"/><path class="cls-14" d="M215.81,28.24A2.73,2.73,0,1,0,213.08,31,2.74,2.74,0,0,0,215.81,28.24Z" transform="translate(0 -0.56)"/><path class="cls-14" d="M215.5,42.8V32.58a.34.34,0,0,0-.35-.35h-4.21a.4.4,0,0,0-.37.39V47.26c0,.43.27.55.62.55H215c.42,0,.52-.2.52-.56Z" transform="translate(0 -0.56)"/><path class="cls-14" d="M262.61,32.26h-4.19a.35.35,0,0,0-.35.35V43.47a4.76,4.76,0,0,1-2.58.78c-1.52,0-1.92-.69-1.92-2.17V32.61a.35.35,0,0,0-.35-.35H249a.35.35,0,0,0-.35.35V42.79c0,4.41,2.46,5.48,5.83,5.48a9.82,9.82,0,0,0,5-1.53,8.27,8.27,0,0,0,.16.9.35.35,0,0,0,.3.2l2.71,0a.34.34,0,0,0,.35-.35V32.61A.35.35,0,0,0,262.61,32.26Z" transform="translate(0 -0.56)"/><path class="cls-14" d="M274.08,31.76a7.84,7.84,0,0,0-4,1.07v-7.5a.35.35,0,0,0-.35-.35h-4.24a.35.35,0,0,0-.35.35V47.46a.36.36,0,0,0,.35.36h2.94a.37.37,0,0,0,.31-.19,7.38,7.38,0,0,0,.18-1,7.57,7.57,0,0,0,5,1.64c3.86,0,6.07-2,6.07-8.77S276.47,31.76,274.08,31.76Zm-1.65,12.47a5,5,0,0,1-2.44-.7v-7a5.57,5.57,0,0,1,2.16-.71c1.52-.13,3,.33,3,3.93C275.12,43.54,274.47,44.29,272.43,44.23Z" transform="translate(0 -0.56)"/><path class="cls-14" d="M227.66,32.22h-3.17V28c0-.16-.08-.24-.26-.24h-4.33a.22.22,0,0,0-.25.24v4.33s-2.17.52-2.32.57a.34.34,0,0,0-.25.33V36a.35.35,0,0,0,.35.35h2.22v6.55c0,4.86,3.41,5.34,5.71,5.34a9.5,9.5,0,0,0,2.52-.42.32.32,0,0,0,.2-.31v-3a.36.36,0,0,0-.35-.35c-.19,0-.66.08-1.15.08-1.55,0-2.08-.73-2.08-1.67V36.34h3.17A.35.35,0,0,0,228,36V32.58A.36.36,0,0,0,227.66,32.22Z" transform="translate(0 -0.56)"/><path d="M222.36,449.54H158V403.05h64.36Zm-61.68-2.68h59V405.73h-59Z" transform="translate(0 -0.56)"/><path d="M205.77,462.05H174.59l3.75-15.19H202ZM178,459.37h24.34l-2.42-9.83H180.44Z" transform="translate(0 -0.56)"/><rect x="171.68" y="458.81" width="37.01" height="2.68"/><line class="cls-1" x1="226.5" y1="401.99" x2="251.26" y2="261.06"/><polygon class="cls-2" points="255.92 263.36 252.5 253.99 246.09 261.63 255.92 263.36"/><path class="cls-2" d="M471.69,314c0-.24,0-.47,0-.71a23.28,23.28,0,0,0-23.11-23.2A23,23,0,0,0,428,303.31a11.71,11.71,0,0,0-5.31-1.26c-5.86,0-10.71,4.69-11.66,10.29a17.48,17.48,0,0,0-12,16.58c0,9.86,7.94,18.13,17.73,18.13h54.71c8.9,0,16.23-7.7,16.23-16.68A16.14,16.14,0,0,0,471.69,314Zm-.35,29.85-.63.08H416.89a15,15,0,0,1-14.68-15.07,14.32,14.32,0,0,1,9.93-13.61l1.66-.6.3-1.74a9.17,9.17,0,0,1,8.69-7.78,8.61,8.61,0,0,1,3.94,1l2.67,1.35,1.29-2.71a20.07,20.07,0,0,1,17.89-11.52,19.84,19.84,0,0,1,20,19.73c0,2.63,0,4,0,4l3,0a13.21,13.21,0,0,1,13,13.34A13.5,13.5,0,0,1,471.34,343.81Z" transform="translate(0 -0.56)"/><path class="cls-2" d="M437.45,323.87l-1,.28c-.3-1.3-1-1.95-2.15-1.95a2.21,2.21,0,0,0-1.95,1.08,4.69,4.69,0,0,0-.65,2.64,4.39,4.39,0,0,0,.83,2.89,2.21,2.21,0,0,0,1.77.83,2.18,2.18,0,0,0,2.25-2l1,.34a3.1,3.1,0,0,1-3.25,2.51,3.27,3.27,0,0,1-2.77-1.36,5.14,5.14,0,0,1-.93-3.21,5,5,0,0,1,1.19-3.54,3.29,3.29,0,0,1,2.51-1.06,3.2,3.2,0,0,1,2.18.76A3.39,3.39,0,0,1,437.45,323.87Z" transform="translate(0 -0.56)"/><path class="cls-2" d="M439.28,321.5H442a4,4,0,0,1,3.21,1.22,4.62,4.62,0,0,1,1,3.16,4.35,4.35,0,0,1-1.36,3.49,4.42,4.42,0,0,1-3,1h-2.56Zm1,.85v7.14h1.49a3.13,3.13,0,0,0,2.44-.93,3.81,3.81,0,0,0,.85-2.67q0-3.54-3.2-3.54Z" transform="translate(0 -0.56)"/><path class="cls-2" d="M454.67,321.5v8.84h-1.33L450.57,325l-1.26-2.58h-.18c0,.21,0,.71,0,1.52,0,.53,0,1,0,1.33v5.08h-1V321.5h1.62l2.53,5c.21.4.44.89.7,1.44s.48,1.07.55,1.21h.19c-.07-1.69-.1-2.65-.1-2.9V321.5Z" transform="translate(0 -0.56)"/><rect class="cls-15" x="286" y="388.49" width="40" height="17"/><path class="cls-2" d="M303.45,394.79l-1,.26a2.1,2.1,0,0,0-2.15-1.85,2.23,2.23,0,0,0-2,1.08,4.73,4.73,0,0,0-.64,2.64,4.43,4.43,0,0,0,.8,2.89,2.18,2.18,0,0,0,1.8.83,1.92,1.92,0,0,0,1.73-.95,3.9,3.9,0,0,0,.53-1.95h-2.34v-.85h3.32v4.49h-.73l-.12-1.42a2.64,2.64,0,0,1-1.08,1.2,2.79,2.79,0,0,1-1.39.35,3.22,3.22,0,0,1-2.74-1.35,5.36,5.36,0,0,1-.89-3.22,4.93,4.93,0,0,1,1.2-3.54,3.29,3.29,0,0,1,2.51-1.06,3.11,3.11,0,0,1,2.16.76A3.4,3.4,0,0,1,303.45,394.79Z" transform="translate(0 -0.56)"/><path class="cls-2" d="M311.38,392.5v.88h-4.52v2.83h3.42v.88h-3.42v3.37h4.6v.88h-5.64V392.5Z" transform="translate(0 -0.56)"/><path class="cls-2" d="M319,392.5v.89h-2.77v7.95h-1.06v-7.95h-2.75v-.89Z" transform="translate(0 -0.56)"/><rect class="cls-15" x="220" y="297.49" width="128" height="56"/><path class="cls-2" d="M241.19,302.5h2.94q3.06,0,3.06,2.46a2.23,2.23,0,0,1-.91,1.92,3.72,3.72,0,0,1-2.24.59h-1.82v3.87h-1Zm1,.84v3.32H244c1.41,0,2.11-.56,2.11-1.69s-.68-1.63-2-1.63Z" transform="translate(0 -0.56)"/><path class="cls-2" d="M252.27,302.34A3.2,3.2,0,0,1,255,303.7a5.2,5.2,0,0,1,.91,3.21,5,5,0,0,1-1.17,3.55,3.46,3.46,0,0,1-5.23-.31,5.27,5.27,0,0,1-.9-3.21,5,5,0,0,1,1.17-3.54A3.23,3.23,0,0,1,252.27,302.34Zm0,.86a2.17,2.17,0,0,0-1.93,1.08,4.91,4.91,0,0,0-.62,2.64,4.49,4.49,0,0,0,.81,2.9,2.26,2.26,0,0,0,3.66-.25,4.84,4.84,0,0,0,.62-2.65A4.56,4.56,0,0,0,254,304,2.18,2.18,0,0,0,252.27,303.2Z" transform="translate(0 -0.56)"/><path class="cls-2" d="M263.32,304.45l-1.05.31a1.85,1.85,0,0,0-1.87-1.57,2,2,0,0,0-1.36.44,1.26,1.26,0,0,0-.42,1,1.37,1.37,0,0,0,.46,1.11,3.48,3.48,0,0,0,1.38.58l.38.12a4.2,4.2,0,0,1,2.2,1.09,2.23,2.23,0,0,1,.45,1.47,2.27,2.27,0,0,1-.89,1.91,3.48,3.48,0,0,1-2.16.61,3.44,3.44,0,0,1-2.16-.64,3,3,0,0,1-1-1.58l1-.36a2.27,2.27,0,0,0,.86,1.36,2.19,2.19,0,0,0,1.28.37,2.23,2.23,0,0,0,1.58-.49,1.4,1.4,0,0,0,.42-1.06A1.42,1.42,0,0,0,262,308a4.19,4.19,0,0,0-1.54-.66l-.35-.1a4.1,4.1,0,0,1-2-1.06,2.23,2.23,0,0,1-.46-1.49,2.1,2.1,0,0,1,.81-1.71,3.07,3.07,0,0,1,2-.62A2.82,2.82,0,0,1,263.32,304.45Z" transform="translate(0 -0.56)"/><path class="cls-2" d="M271.24,302.5v.89h-2.77v7.95h-1.06v-7.95h-2.75v-.89Z" transform="translate(0 -0.56)"/><path class="cls-2" d="M207.85,317.42a6.31,6.31,0,0,0-1.8,2.32,5.69,5.69,0,0,0-.42,2.26,5.61,5.61,0,0,0,.56,2.56,6.58,6.58,0,0,0,1.66,2l-.24.29a6.72,6.72,0,0,1-2.1-2.41A5.56,5.56,0,0,1,205,322a5.49,5.49,0,0,1,.69-2.78,7.33,7.33,0,0,1,1.94-2.09Z" transform="translate(0 -0.56)"/><path class="cls-2" d="M211.22,318.25v5.54a1.87,1.87,0,0,1-.66,1.57,2,2,0,0,1-1.3.4c-.13,0-.36,0-.7,0l0-.71a5.09,5.09,0,0,0,.69.05,1.05,1.05,0,0,0,.85-.38,1.5,1.5,0,0,0,.29-1v-5.44Z" transform="translate(0 -0.56)"/><path class="cls-2" d="M217.82,319.87l-.87.26a1.54,1.54,0,0,0-1.56-1.3,1.61,1.61,0,0,0-1.13.36,1.08,1.08,0,0,0-.35.83,1.15,1.15,0,0,0,.38.93,3.25,3.25,0,0,0,1.15.48l.32.09a3.53,3.53,0,0,1,1.83.91,1.86,1.86,0,0,1,.37,1.23,1.89,1.89,0,0,1-.74,1.59,2.91,2.91,0,0,1-1.8.51,2.88,2.88,0,0,1-1.79-.53,2.49,2.49,0,0,1-.87-1.32l.86-.3a1.93,1.93,0,0,0,.72,1.13,1.81,1.81,0,0,0,1.06.31,1.83,1.83,0,0,0,1.32-.41,1.12,1.12,0,0,0,.35-.88,1.18,1.18,0,0,0-.36-.94,3.45,3.45,0,0,0-1.29-.55l-.29-.09a3.39,3.39,0,0,1-1.71-.88,1.91,1.91,0,0,1-.38-1.24,1.75,1.75,0,0,1,.67-1.42,2.54,2.54,0,0,1,1.66-.52A2.34,2.34,0,0,1,217.82,319.87Z" transform="translate(0 -0.56)"/><path class="cls-2" d="M222,322.7a6.86,6.86,0,0,0,1.06-.9l1.42-1.44A.87.87,0,0,1,225,320a1,1,0,0,1,.61.27,36.77,36.77,0,0,0,4.59,3.28c.06,0,.09.07.09.11a.16.16,0,0,1,0,.08,2.8,2.8,0,0,1-.31.5.12.12,0,0,1-.09.06l-.09,0q-2.48-1.71-4.53-3.4c-.09-.07-.15-.11-.2-.11a.28.28,0,0,0-.19.09c-.39.39-.95,1-1.68,1.76a5.29,5.29,0,0,0-.43.54.12.12,0,0,1-.12.08.19.19,0,0,1-.11,0A5.18,5.18,0,0,1,222,322.7Zm5.29-3.2.35-.26.06,0,.06,0a4.42,4.42,0,0,1,1.13,1.21.08.08,0,0,1,0,.05.07.07,0,0,1,0,.06l-.29.24-.06,0a.08.08,0,0,1-.07,0A4.21,4.21,0,0,0,227.25,319.5Zm.88-.67.32-.25.06,0,.05,0a5.5,5.5,0,0,1,1.15,1.17.11.11,0,0,1,0,.05s0,0-.05.07l-.27.24s0,0-.05,0a.1.1,0,0,1-.07-.05A4.26,4.26,0,0,0,228.13,318.83Z" transform="translate(0 -0.56)"/><path class="cls-2" d="M232.23,321.65a19.23,19.23,0,0,0,2.22.09h3.06l2.2,0h0c.07,0,.1,0,.1.12a1.93,1.93,0,0,1,0,.26,2,2,0,0,1,0,.26c0,.08,0,.12-.1.12h0l-2.17,0h-3.68a8.77,8.77,0,0,0-1.08.06l-.2,0h-.08a.18.18,0,0,1-.17-.14A6.51,6.51,0,0,1,232.23,321.65Z" transform="translate(0 -0.56)"/><path class="cls-2" d="M246.81,322.2a20.57,20.57,0,0,1,2.88,2.51s.06.07.06.1a.19.19,0,0,1-.05.11,4.39,4.39,0,0,1-.37.36.12.12,0,0,1-.08,0,.18.18,0,0,1-.1-.06,18.16,18.16,0,0,0-2.75-2.54,15.2,15.2,0,0,1-3.57,2.79.33.33,0,0,1-.14,0,.17.17,0,0,1-.12-.06,1.62,1.62,0,0,0-.52-.36,12.32,12.32,0,0,0,5.59-5.39h-3q-.54,0-1.44.06c-.06,0-.1,0-.12-.11a4.06,4.06,0,0,1-.05-.64c.32,0,.84,0,1.54,0h2.9A1.45,1.45,0,0,0,248,319a.07.07,0,0,1,.06,0,.3.3,0,0,1,.14.05,2.65,2.65,0,0,1,.41.41.16.16,0,0,1,0,.09.23.23,0,0,1-.08.14,1.57,1.57,0,0,0-.3.37A17.45,17.45,0,0,1,246.81,322.2Z" transform="translate(0 -0.56)"/><path class="cls-2" d="M256.43,319.49a12.7,12.7,0,0,1-.54,2.58,7.5,7.5,0,0,1-.78,1.79,1.72,1.72,0,0,1-1.47,1,1.22,1.22,0,0,1-1.06-.67,2.9,2.9,0,0,1-.4-1.6,3.36,3.36,0,0,1,.34-1.47,3.81,3.81,0,0,1,.82-1.12,4.22,4.22,0,0,1,3-1.11,3.66,3.66,0,0,1,2.75,1,3.05,3.05,0,0,1,.82,2.21,3.16,3.16,0,0,1-.88,2.27,4.77,4.77,0,0,1-2.3,1.22h-.09a.21.21,0,0,1-.17-.12,1.07,1.07,0,0,0-.39-.37,4.29,4.29,0,0,0,2.41-1.19,2.79,2.79,0,0,0,.71-1.94,2.39,2.39,0,0,0-.85-1.91,2.59,2.59,0,0,0-1.73-.62Zm-.7,0a3.25,3.25,0,0,0-1.95.92,3,3,0,0,0-1,2.16,2.19,2.19,0,0,0,.3,1.24.62.62,0,0,0,.51.32c.34,0,.65-.24.93-.73a8.73,8.73,0,0,0,.77-1.88A10.54,10.54,0,0,0,255.73,319.53Z" transform="translate(0 -0.56)"/><path class="cls-2" d="M269.92,320.23l-.87.23c-.25-1.08-.84-1.62-1.79-1.62a1.85,1.85,0,0,0-1.63.89,4,4,0,0,0-.54,2.21,3.62,3.62,0,0,0,.7,2.4,1.83,1.83,0,0,0,1.47.7,1.81,1.81,0,0,0,1.87-1.65l.83.28a2.59,2.59,0,0,1-2.71,2.09,2.72,2.72,0,0,1-2.3-1.13,4.31,4.31,0,0,1-.78-2.68,4.09,4.09,0,0,1,1-2.95,2.73,2.73,0,0,1,2.08-.88,2.65,2.65,0,0,1,1.82.63A2.86,2.86,0,0,1,269.92,320.23Z" transform="translate(0 -0.56)"/><path class="cls-2" d="M278.52,318.25v7.37h-.83v-4.33l0-2.33h-.17c-.25.92-.46,1.68-.65,2.27l-1.38,4.39h-1.12L273,321.24c-.11-.32-.23-.72-.37-1.21s-.25-.91-.3-1.07h-.17c0,.11,0,.22,0,.34l0,2v4.32h-.79v-7.37h1.46l1.32,4.34c.07.22.19.61.36,1.19s.23.79.32,1.06h.17c0-.12.26-.86.69-2.23l1.33-4.36Z" transform="translate(0 -0.56)"/><path class="cls-2" d="M285.12,319.87l-.87.26a1.54,1.54,0,0,0-1.56-1.3,1.61,1.61,0,0,0-1.13.36,1.08,1.08,0,0,0-.35.83,1.15,1.15,0,0,0,.38.93,3.25,3.25,0,0,0,1.15.48l.32.09a3.53,3.53,0,0,1,1.83.91,1.86,1.86,0,0,1,.37,1.23,1.89,1.89,0,0,1-.74,1.59,2.91,2.91,0,0,1-1.8.51,2.88,2.88,0,0,1-1.79-.53,2.49,2.49,0,0,1-.87-1.32l.86-.3a1.88,1.88,0,0,0,.72,1.13,1.81,1.81,0,0,0,1.06.31,1.83,1.83,0,0,0,1.32-.41,1.12,1.12,0,0,0,.35-.88,1.18,1.18,0,0,0-.36-.94,3.45,3.45,0,0,0-1.29-.55l-.29-.09a3.39,3.39,0,0,1-1.71-.88,1.91,1.91,0,0,1-.38-1.24,1.75,1.75,0,0,1,.67-1.42,2.54,2.54,0,0,1,1.66-.52A2.34,2.34,0,0,1,285.12,319.87Z" transform="translate(0 -0.56)"/><path class="cls-2" d="M291.83,320.54c.16-.53.29-1,.41-1.47a3.7,3.7,0,0,0,.09-.8v-.16a3.65,3.65,0,0,1,.77.27.16.16,0,0,1,.11.14.15.15,0,0,1-.07.12.84.84,0,0,0-.16.33l-.47,1.49a9.29,9.29,0,0,1,1-.06,1.16,1.16,0,0,1,1,.42,2,2,0,0,1,.28,1.18,8.15,8.15,0,0,1-.55,3.3,1.19,1.19,0,0,1-1.14.79,2.59,2.59,0,0,1-1-.18.17.17,0,0,1-.12-.17,1.59,1.59,0,0,0-.12-.6,2.91,2.91,0,0,0,1.16.28.62.62,0,0,0,.4-.12,1.11,1.11,0,0,0,.28-.4,7.66,7.66,0,0,0,.45-2.87,1.56,1.56,0,0,0-.17-.86.63.63,0,0,0-.52-.2,6.86,6.86,0,0,0-1.09.1,28.2,28.2,0,0,1-2,4.73.13.13,0,0,1-.11.06h-.06a1.54,1.54,0,0,1-.4-.28s-.05,0-.05-.07a.16.16,0,0,1,0-.08,22.44,22.44,0,0,0,1.91-4.26c-.35,0-.8.12-1.32.22a1.29,1.29,0,0,0-.44.13.28.28,0,0,1-.12.05c-.06,0-.1,0-.14-.1a4.46,4.46,0,0,1-.23-.68h.19a7.21,7.21,0,0,0,.85,0C290.77,320.69,291.24,320.63,291.83,320.54Zm3.59-.3c.15-.12.3-.22.45-.32h.06a.12.12,0,0,1,.09,0,5.61,5.61,0,0,1,1.62,2.43.25.25,0,0,1,0,.08.12.12,0,0,1,0,.09,2.91,2.91,0,0,1-.41.27l-.09,0s-.07,0-.08-.08A5.62,5.62,0,0,0,295.42,320.24Z" transform="translate(0 -0.56)"/><path class="cls-2" d="M300.86,319.88a2.61,2.61,0,0,1,.66.28c.07,0,.11.09.11.15a.21.21,0,0,1-.05.11,1.33,1.33,0,0,0-.15.47,16.65,16.65,0,0,0-.29,2.29,5.64,5.64,0,0,1,1.81-1.41,3.93,3.93,0,0,1,1.68-.39,2.21,2.21,0,0,1,1.66.6,1.76,1.76,0,0,1,.49,1.3,2.33,2.33,0,0,1-1.5,2.14,7.64,7.64,0,0,1-2.43.66h-.12a.16.16,0,0,1-.14-.11,1.48,1.48,0,0,0-.45-.48,8.15,8.15,0,0,0,2.72-.62,1.77,1.77,0,0,0,1.2-1.65,1.11,1.11,0,0,0-.41-.94,1.64,1.64,0,0,0-1.1-.32,3.2,3.2,0,0,0-1.59.47,6.18,6.18,0,0,0-1.38,1.08,2.92,2.92,0,0,0-.44.59c0,.05-.06.07-.09.07l-.07,0-.41-.18a.13.13,0,0,1-.08-.13,31.35,31.35,0,0,1,.29-3.14A8,8,0,0,0,300.86,319.88Zm.79-1.68a2.47,2.47,0,0,1,.35-.46.15.15,0,0,1,.08-.05l.06,0a5.67,5.67,0,0,1,1.83,1.14s0,0,0,.06a.16.16,0,0,1,0,.08,4,4,0,0,1-.32.43.12.12,0,0,1-.08,0,.12.12,0,0,1-.09,0A6.54,6.54,0,0,0,301.65,318.2Z" transform="translate(0 -0.56)"/><path class="cls-2" d="M205.56,340v-3.67h-3.63c-.5,0-1,0-1.45,0a.12.12,0,0,1-.13-.13,3.82,3.82,0,0,1,0-.64c.47,0,1,.06,1.61.06h2.54l1.68,0c.11,0,.16,0,.16.11v0c0,.6,0,1.09,0,1.47v2.18c0,.32,0,.88,0,1.69,0,.07,0,.11-.12.11h-.49c-.06,0-.1,0-.12,0a.19.19,0,0,1,0-.1v-.44h-3.63c-.4,0-.92,0-1.56,0h0s-.08,0-.09-.12a5.6,5.6,0,0,1,0-.64c.43,0,1,.05,1.7.05Z" transform="translate(0 -0.56)"/><path class="cls-2" d="M210,335.5c.16-.2.29-.35.39-.46a.11.11,0,0,1,.1-.05l.08,0a9,9,0,0,1,1.8,1.33.17.17,0,0,1,.06.11.16.16,0,0,1,0,.08,2.8,2.8,0,0,1-.34.43s-.06.06-.08.06a.15.15,0,0,1-.08,0A10.15,10.15,0,0,0,210,335.5Zm.24,5.25a6.51,6.51,0,0,0,1-.41,19,19,0,0,0,2.89-1.86,17.55,17.55,0,0,0,2.7-2.69,3.21,3.21,0,0,0,.17.66.35.35,0,0,1,0,.13.33.33,0,0,1-.1.22,19,19,0,0,1-2.43,2.3,20.55,20.55,0,0,1-3,1.95,3.27,3.27,0,0,0-.55.39.23.23,0,0,1-.14.07s-.08,0-.13-.08A3.4,3.4,0,0,1,210.24,340.75Z" transform="translate(0 -0.56)"/><path class="cls-2" d="M223.82,337.47a9.61,9.61,0,0,1-.18,1.56,4.48,4.48,0,0,1-.42,1.09,4.53,4.53,0,0,1-1.77,1.88.45.45,0,0,1-.2.09.16.16,0,0,1-.11,0,1.68,1.68,0,0,0-.56-.33,5.51,5.51,0,0,0,1.26-.87,3.83,3.83,0,0,0,.7-1,5.42,5.42,0,0,0,.52-2.41h-2q-.59,0-1.44.06h0c-.06,0-.1,0-.11-.15a3.44,3.44,0,0,1-.06-.58c.48,0,1,.05,1.64.05h4.33c.69,0,1.3,0,1.82-.05.07,0,.11.05.11.16v.42a.12.12,0,0,1-.13.13c-.76,0-1.36,0-1.79,0Zm-3.22-2.88c.49,0,1,.05,1.61.05h1.94c.77,0,1.33,0,1.69,0h0c.06,0,.09.05.09.13s0,.14,0,.2,0,.14,0,.2,0,.14-.12.14l-1.68,0h-1.94c-.52,0-1,0-1.43,0h0c-.06,0-.09,0-.1-.13S220.61,334.8,220.6,334.59Z" transform="translate(0 -0.56)"/><path class="cls-2" d="M230,335.5c.16-.2.29-.35.39-.46a.11.11,0,0,1,.1-.05l.08,0a9,9,0,0,1,1.8,1.33.17.17,0,0,1,.06.11.16.16,0,0,1,0,.08,2.8,2.8,0,0,1-.34.43s-.06.06-.08.06a.15.15,0,0,1-.08,0A10.15,10.15,0,0,0,230,335.5Zm.24,5.25a6.51,6.51,0,0,0,1-.41,19,19,0,0,0,2.89-1.86,17.55,17.55,0,0,0,2.7-2.69,3.21,3.21,0,0,0,.17.66.35.35,0,0,1,0,.13.33.33,0,0,1-.1.22,19,19,0,0,1-2.43,2.3,20.55,20.55,0,0,1-3,1.95,3.27,3.27,0,0,0-.55.39.23.23,0,0,1-.14.07s-.08,0-.13-.08A3.4,3.4,0,0,1,230.24,340.75Z" transform="translate(0 -0.56)"/><path class="cls-2" d="M239.62,335.7a2.76,2.76,0,0,1,.52-.28.12.12,0,0,1,.08,0,.15.15,0,0,1,.11.06,7.3,7.3,0,0,1,1.06,1.79.15.15,0,0,1,0,.09s0,.07-.08.09l-.44.23h-.08c-.05,0-.09,0-.12-.11A7.72,7.72,0,0,0,239.62,335.7Zm6.49-.61a5.9,5.9,0,0,1,.84.39.16.16,0,0,1,.07.13.18.18,0,0,1-.06.13,2.17,2.17,0,0,0-.42.75,12.58,12.58,0,0,1-1.75,3,11.45,11.45,0,0,1-2.7,2.52.29.29,0,0,1-.15.06.26.26,0,0,1-.1,0,1.91,1.91,0,0,0-.61-.29,11.42,11.42,0,0,0,3-2.63,10.75,10.75,0,0,0,1.62-2.82A5.44,5.44,0,0,0,246.11,335.09Zm-4,0a3.44,3.44,0,0,1,.54-.25l.07,0a.14.14,0,0,1,.11.06,6.93,6.93,0,0,1,.94,1.78.29.29,0,0,1,0,.09.13.13,0,0,1-.07.11,3.18,3.18,0,0,1-.45.2l-.09,0c-.05,0-.08,0-.1-.1A7.52,7.52,0,0,0,242.11,335.08Z" transform="translate(0 -0.56)"/><path class="cls-2" d="M257.93,341.68a2.78,2.78,0,0,0-.21.46l-.06.17a.16.16,0,0,1-.11,0h-.1a16.38,16.38,0,0,1-3-.38,7.28,7.28,0,0,1-2-.8,6.43,6.43,0,0,1-3,1.29l-.13,0s-.11,0-.16-.17a1.27,1.27,0,0,0-.25-.36,6.65,6.65,0,0,0,3-1.13,6.63,6.63,0,0,1-1.08-1,.09.09,0,0,1,0-.06s0-.05.09-.09l.23-.16.1-.05s0,0,.07.05a4.67,4.67,0,0,0,1,1,2.48,2.48,0,0,0,.55-1.23H251.6l-1.42,0a.07.07,0,0,1-.08-.08l0-1v-1.56l0-1a.07.07,0,0,1,.08-.08l1.42,0H253v-.94h-2.65l-1.31,0a.07.07,0,0,1-.08-.08v-.44A.07.07,0,0,1,249,334l1.31,0h5.91l1.31,0a.07.07,0,0,1,.08.08v.44a.07.07,0,0,1-.08.08l-1.31,0h-2.68v.94h1.48l1.42,0c.06,0,.08,0,.08.08l0,1v1.56l0,1c0,.05,0,.08-.08.08l-1.42,0h-1.65a3,3,0,0,1-.62,1.55A12,12,0,0,0,257.93,341.68ZM253,336.09h-2.3v1H253C253,336.87,253,336.54,253,336.09Zm0,1.49H250.7v1.07h2.21C252.93,338.4,253,338,253,337.58Zm3,1.07v-1.07h-2.4c0,.47-.05.83-.07,1.07Zm0-1.59v-1h-2.37v1Z" transform="translate(0 -0.56)"/><path class="cls-2" d="M263.27,339a.07.07,0,0,1-.08.08l-1.21,0h-.31a3.54,3.54,0,0,0,.69.75,5.92,5.92,0,0,0,.79.53.92.92,0,0,0-.24.35q-.06.12-.09.12s-.07,0-.14-.09a4.47,4.47,0,0,1-1.22-1.34c0,.63,0,1.31,0,2,0,.53,0,.85,0,.95s0,.08-.09.08H261c-.06,0-.08,0-.08-.08s0-.51,0-1.1,0-1.28,0-1.76a6.4,6.4,0,0,1-1.7,2.06c-.08.05-.12.08-.15.08s-.06,0-.1-.12a1.14,1.14,0,0,0-.27-.37,6.2,6.2,0,0,0,2-2.09h-.51l-1.22,0c-.06,0-.08,0-.08-.08v-.4c0-.06,0-.08.08-.08l1.22,0h.7v0a5,5,0,0,0-.06-.94l.61.05c.07,0,.1,0,.1.08a.27.27,0,0,1,0,.14,2.63,2.63,0,0,0-.05.67v0H262l1.21,0c.05,0,.08,0,.08.08Zm.17-1.68a.07.07,0,0,1-.08.08l-1.24,0h-1.93l-1.24,0a.07.07,0,0,1-.08-.08v-.41c0-.06,0-.08.08-.08l1.24,0h1.32a10,10,0,0,0,.46-1.14,1.91,1.91,0,0,0,.09-.44c.22.06.4.1.54.15s.12.06.12.12a.19.19,0,0,1-.07.12.66.66,0,0,0-.15.23c-.12.29-.26.62-.44,1h.06l1.24,0c.05,0,.08,0,.08.08Zm-.16-2.36a.07.07,0,0,1-.08.08l-1.19,0h-1.66l-1.19,0a.07.07,0,0,1-.08-.08v-.39a.07.07,0,0,1,.08-.08l1.19,0h.58v-.31a3.21,3.21,0,0,0-.07-.72c.28,0,.5,0,.65.05s.13,0,.13.08a.46.46,0,0,1-.06.18.93.93,0,0,0-.05.41v.31H262l1.19,0a.07.07,0,0,1,.08.08Zm-2.56,1.39a.43.43,0,0,0,0,.05s0,.06-.1.09l-.25.1-.11,0s-.06,0-.07-.08a5.12,5.12,0,0,0-.38-1,.07.07,0,0,1,0-.06s0-.05.12-.08l.23-.08.06,0s.05,0,.08.06A4.42,4.42,0,0,1,260.72,336.38Zm7.2,1a.07.07,0,0,1-.08.08l-1.21,0h-.05V341l0,1.49a.07.07,0,0,1-.08.08H266a.07.07,0,0,1-.08-.08l0-1.49v-3.53h-1.49a12.48,12.48,0,0,1-.25,2.93,5.06,5.06,0,0,1-1,2c0,.07-.1.11-.14.11a.24.24,0,0,1-.13-.08,1.12,1.12,0,0,0-.38-.23,4.6,4.6,0,0,0,1.14-2.1,13.94,13.94,0,0,0,.2-2.81V336a11.63,11.63,0,0,0-.07-1.41,2.88,2.88,0,0,1,.65.2,9.82,9.82,0,0,0,2-.78,2.59,2.59,0,0,0,.5-.37,3.24,3.24,0,0,1,.44.46.22.22,0,0,1,.06.14s0,.08-.13.09a1,1,0,0,0-.37.12,13.84,13.84,0,0,1-2.49.9v1.54h2.15l1.21,0c.05,0,.08,0,.08.08Z" transform="translate(0 -0.56)"/><path class="cls-2" d="M273.48,335.47c0-.11,0-.29,0-.53s0-.29,0-.4a2.93,2.93,0,0,0-.1-.67,5.55,5.55,0,0,1,.76.11q.18,0,.18.15a.38.38,0,0,1-.07.18.67.67,0,0,0-.07.27c0,.15,0,.43,0,.85.74,0,1.81,0,3.2,0a.1.1,0,0,1,.11.11v.42c0,.07,0,.11-.13.11l-1.68,0c-.51,0-1,0-1.5,0,0,.85,0,1.49,0,1.94a4.21,4.21,0,0,1,.12,1,3.16,3.16,0,0,1-1.95,3,.48.48,0,0,1-.23.09.31.31,0,0,1-.18-.08,1.3,1.3,0,0,0-.46-.28,2.89,2.89,0,0,0,2.18-2.4,1.17,1.17,0,0,1-1.1.57,1.25,1.25,0,0,1-1-.4,1.44,1.44,0,0,1-.35-1,1.34,1.34,0,0,1,1.37-1.39,1.2,1.2,0,0,1,.94.34l0-1.36c-1.62.09-2.86.19-3.73.29l-.29.07-.15,0c-.06,0-.1,0-.12-.11a3.53,3.53,0,0,1-.16-.63h.22c.17,0,.52,0,1-.07C271.21,335.61,272.27,335.54,273.48,335.47Zm-.85,2.13a.8.8,0,0,0-.61.26.85.85,0,0,0-.22.61.84.84,0,0,0,.27.66.77.77,0,0,0,.54.2.86.86,0,0,0,.69-.3.84.84,0,0,0,.22-.58.82.82,0,0,0-.28-.64A.92.92,0,0,0,272.63,337.6Z" transform="translate(0 -0.56)"/><path class="cls-2" d="M284.14,334.87c-.54.08-1.38.23-2.5.44a2.47,2.47,0,0,0-.35.1.59.59,0,0,1-.19,0c-.07,0-.12,0-.16-.13a3.1,3.1,0,0,1-.24-.68l.5,0,.38,0q1.32-.14,2.49-.36a.89.89,0,0,0,.31-.09.25.25,0,0,1,.14-.07.28.28,0,0,1,.18.08,2.46,2.46,0,0,1,.43.42.23.23,0,0,1,.07.17.21.21,0,0,1-.15.19,1.15,1.15,0,0,0-.47.35c-.9.95-1.75,1.83-2.56,2.65l0,0a4,4,0,0,1,2.15-.71A2.34,2.34,0,0,1,286,338a2.17,2.17,0,0,1,.54,1.51,2.25,2.25,0,0,1-1,1.93,3.92,3.92,0,0,1-2.33.64,2,2,0,0,1-1.38-.4,1,1,0,0,1-.36-.78,1,1,0,0,1,.36-.75,1.24,1.24,0,0,1,.81-.28,1.61,1.61,0,0,1,1.17.45,1.92,1.92,0,0,1,.53,1,1.87,1.87,0,0,0,1.46-1.85,1.54,1.54,0,0,0-.57-1.26,1.82,1.82,0,0,0-1.16-.38,4.39,4.39,0,0,0-2.75,1.13c-.18.14-.47.41-.88.81a.16.16,0,0,1-.11.07.14.14,0,0,1-.09-.05l-.37-.39a.14.14,0,0,1,0-.06s0-.06.06-.1a28.79,28.79,0,0,0,2.26-2.23C283.05,336.11,283.7,335.38,284.14,334.87Zm-.39,6.63a1.45,1.45,0,0,0-.41-.81.92.92,0,0,0-.66-.26.73.73,0,0,0-.45.13.41.41,0,0,0-.16.34.57.57,0,0,0,.3.48,1.44,1.44,0,0,0,.73.16A4.28,4.28,0,0,0,283.75,341.5Z" transform="translate(0 -0.56)"/><path class="cls-2" d="M291.86,338.67s0,.14,0,.38a.22.22,0,0,1-.17.3,17.13,17.13,0,0,1-2.05,1,2,2,0,0,0-.36.17.18.18,0,0,1-.13.06s-.07,0-.11-.1a2.67,2.67,0,0,1-.2-.55,6.25,6.25,0,0,0,.95-.26l.42-.16v-2.74h-.27l-.93,0a.07.07,0,0,1-.08-.08v-.42c0-.06,0-.08.08-.08l.93,0h.27V335a9.28,9.28,0,0,0-.07-1.37c.21,0,.42,0,.66.05q.12,0,.12.09a.31.31,0,0,1,0,.08l0,.1a5,5,0,0,0-.05,1v1.19h.06l.93,0c.05,0,.07,0,.07.08v.42c0,.05,0,.08-.07.08l-.93,0h-.06v2.49A11.37,11.37,0,0,0,291.86,338.67Zm6-.77a.07.07,0,0,1-.08.08l-1.39,0h-3l.22.06.15.06c.07,0,.1.06.1.11a.16.16,0,0,1-.07.11.6.6,0,0,0-.18.2l-.15.22h2.75l1.23,0c.07,0,.1,0,.1.1l-.09,1a10,10,0,0,1-.26,1.73,1.1,1.1,0,0,1-.37.64,1,1,0,0,1-.61.16l-.63,0a.3.3,0,0,1-.15,0,.44.44,0,0,1-.06-.18,2.09,2.09,0,0,0-.17-.41,5.83,5.83,0,0,0,1,.08q.38,0,.48-.48a13.5,13.5,0,0,0,.27-2.07h-.7a6.42,6.42,0,0,1-2.58,3.08.25.25,0,0,1-.15.07s-.09,0-.16-.12a.81.81,0,0,0-.3-.23,5.6,5.6,0,0,0,2.6-2.8h-.89a7.3,7.3,0,0,1-2.46,2.45.62.62,0,0,1-.16.07s-.08,0-.15-.12a.8.8,0,0,0-.29-.22,6.61,6.61,0,0,0,2.43-2.18h-1a6.85,6.85,0,0,1-1.58,1.42l-.16.08s-.07,0-.14-.12a1.22,1.22,0,0,0-.32-.24,6.14,6.14,0,0,0,2.07-1.85,1.91,1.91,0,0,0,.25-.54h0l-1.39,0a.07.07,0,0,1-.08-.08v-.39a.07.07,0,0,1,.08-.08l1.39,0h3.22l1.39,0a.07.07,0,0,1,.08.08Zm-1-1.13a.07.07,0,0,1-.08.08l-1.19,0h-1.63l-1.19,0a.07.07,0,0,1-.08-.08l0-.86v-1.08l0-.87a.07.07,0,0,1,.08-.08l1.19,0h1.63l1.19,0a.07.07,0,0,1,.08.08l0,.87v1.08Zm-.58-1.64v-.76h-3v.76Zm0,1.23v-.78h-3v.78Z" transform="translate(0 -0.56)"/><path class="cls-2" d="M308.1,337.22a1.6,1.6,0,0,0-.28.4c-.05.11-.09.16-.13.16a.35.35,0,0,1-.16-.06,9.57,9.57,0,0,1-4.23-3.44,10.93,10.93,0,0,1-4.07,3.5l-.15.06s-.07,0-.13-.14a1.32,1.32,0,0,0-.31-.36,9,9,0,0,0,4.1-3.38,2.5,2.5,0,0,0,.28-.57l.62.12c.1,0,.14.06.14.11a.15.15,0,0,1-.07.12l-.09.08A9.41,9.41,0,0,0,308.1,337.22Zm-1.89,5.11c0,.05,0,.08-.09.08h-.47a.07.07,0,0,1-.08-.08v-.41h-4.44v.46c0,.05,0,.07-.08.07h-.48c-.05,0-.08,0-.08-.07l0-1.74v-.81l0-1.12a.07.07,0,0,1,.08-.08l1.38,0h2.8l1.37,0c.06,0,.09,0,.09.08l0,1v.92Zm-.64-.95v-2.19h-4.44v2.19Zm-.18-4.09a.07.07,0,0,1-.08.08l-1.17,0h-1.6l-1.17,0a.07.07,0,0,1-.08-.08v-.43a.07.07,0,0,1,.08-.08l1.17,0h1.6l1.17,0a.07.07,0,0,1,.08.08Z" transform="translate(0 -0.56)"/><path class="cls-2" d="M308.77,333.42l.25-.29a6.92,6.92,0,0,1,2.1,2.41,5.67,5.67,0,0,1,.52,2.46,5.49,5.49,0,0,1-.69,2.78,7.43,7.43,0,0,1-1.93,2.09l-.25-.29a6.45,6.45,0,0,0,1.81-2.32A5.88,5.88,0,0,0,311,338a5.61,5.61,0,0,0-.55-2.56A6.62,6.62,0,0,0,308.77,333.42Z" transform="translate(0 -0.56)"/><line class="cls-1" x1="177.5" y1="393.99" x2="177.5" y2="75.17"/><polygon class="cls-2" points="182.49 76.63 177.5 67.99 172.51 76.63 182.49 76.63"/><rect class="cls-15" x="151" y="255.49" width="57" height="25"/><path class="cls-2" d="M162.77,265.45l-.07.83a1.79,1.79,0,0,0-.76.13,1.54,1.54,0,0,0-.46.32,1.69,1.69,0,0,1,.6,1.34,1.82,1.82,0,0,1-.72,1.53,2.43,2.43,0,0,1-1.55.47,2.25,2.25,0,0,1-.92-.17c-.38.21-.56.43-.56.68a.41.41,0,0,0,.23.39,3.19,3.19,0,0,0,.91.2l1.24.12a3,3,0,0,1,1.7.55,1.19,1.19,0,0,1,.37.94,1.45,1.45,0,0,1-.84,1.29,4.13,4.13,0,0,1-2.07.45,4,4,0,0,1-2.09-.46,1.16,1.16,0,0,1-.61-1c0-.58.4-1,1.21-1.27-.61-.14-.91-.45-.91-.92s.29-.84.89-1.22a1.75,1.75,0,0,1-.82-1.56,1.82,1.82,0,0,1,.74-1.51,2.45,2.45,0,0,1,1.53-.48,2.39,2.39,0,0,1,1.21.3,2,2,0,0,1,.78-.74A2.15,2.15,0,0,1,162.77,265.45Zm-3.67,6.48c-.72.2-1.08.53-1.08,1a.84.84,0,0,0,.59.77,3.27,3.27,0,0,0,1.29.21,3,3,0,0,0,1.56-.33.74.74,0,0,0,.44-.66.59.59,0,0,0-.3-.55,2.79,2.79,0,0,0-1.09-.27Zm.71-5.19a1.38,1.38,0,0,0-1,.4,1.33,1.33,0,0,0-.35.94,1.26,1.26,0,0,0,.45,1,1.36,1.36,0,0,0,.91.31,1.3,1.3,0,0,0,1-.4,1.42,1.42,0,0,0-.1-2A1.31,1.31,0,0,0,159.81,266.74Z" transform="translate(0 -0.56)"/><path class="cls-2" d="M165.41,263.85V265h-1.2v-1.19Zm-.11,2.36v6.13h-1v-6.13Z" transform="translate(0 -0.56)"/><path class="cls-2" d="M168.76,264.09v2.12h1.47V267h-1.47v3.78c0,.66.29,1,.85,1a3.49,3.49,0,0,0,.77-.07l0,.75a5.3,5.3,0,0,1-.94.07,1.4,1.4,0,0,1-1.59-1.57V267h-1v-.76h1V264.3Z" transform="translate(0 -0.56)"/><path class="cls-2" d="M176.08,266.21v1a2.1,2.1,0,0,1,3.59-.15,3.86,3.86,0,0,1,.59,2.24,3.59,3.59,0,0,1-.8,2.48,2.08,2.08,0,0,1-1.63.75,1.88,1.88,0,0,1-1.71-1.07v3.1h-1v-8.31Zm0,1.84v2.5a1.74,1.74,0,0,0,1.51,1.15,1.39,1.39,0,0,0,1.22-.69,3.14,3.14,0,0,0,.41-1.73,3,3,0,0,0-.5-1.88,1.28,1.28,0,0,0-1.06-.53A1.78,1.78,0,0,0,176.12,268.05Z" transform="translate(0 -0.56)"/><path class="cls-2" d="M186.83,266.21v6.13h-.93v-1.12a2.92,2.92,0,0,1-1,1,2.3,2.3,0,0,1-1.13.3,1.67,1.67,0,0,1-1.27-.5,1.7,1.7,0,0,1-.44-1.24v-4.54h1v4.24c0,.79.36,1.19,1.06,1.19a1.72,1.72,0,0,0,1-.39,2.65,2.65,0,0,0,.74-.85v-4.19Z" transform="translate(0 -0.56)"/><path class="cls-2" d="M193.19,267.54l-.94.3a1.3,1.3,0,0,0-1.33-1,1.48,1.48,0,0,0-1,.27.76.76,0,0,0-.29.61.83.83,0,0,0,.29.69,3,3,0,0,0,1,.37l.49.12a3.2,3.2,0,0,1,1.54.71,1.56,1.56,0,0,1,.38,1.11,1.62,1.62,0,0,1-.66,1.36,2.88,2.88,0,0,1-1.7.46,2.32,2.32,0,0,1-2.44-1.49l1-.34a1.46,1.46,0,0,0,1.51,1.11,1.58,1.58,0,0,0,1.11-.34.86.86,0,0,0,.28-.67.89.89,0,0,0-.29-.74,3.35,3.35,0,0,0-1-.4l-.49-.11a3,3,0,0,1-1.48-.72,1.59,1.59,0,0,1-.32-1.05,1.46,1.46,0,0,1,.61-1.25,2.62,2.62,0,0,1,1.56-.42A2.18,2.18,0,0,1,193.19,267.54Z" transform="translate(0 -0.56)"/><path class="cls-2" d="M196.1,263.34v4a2.69,2.69,0,0,1,2.11-1.23,1.63,1.63,0,0,1,1.29.53,1.81,1.81,0,0,1,.41,1.23v4.51h-1v-4.16c0-.83-.35-1.25-1-1.25a2.32,2.32,0,0,0-1.79,1.22v4.19h-1v-9Z" transform="translate(0 -0.56)"/><rect class="cls-15" x="356" y="257.49" width="87" height="17"/><path class="cls-2" d="M357.08,261.5H360a3.46,3.46,0,0,1,2.35.64,2,2,0,0,1,.58,1.53,1.77,1.77,0,0,1-.58,1.37,2.42,2.42,0,0,1-1.33.57v.1a2.63,2.63,0,0,1,1.69.78,2,2,0,0,1,.5,1.38,2.19,2.19,0,0,1-.91,1.9,3.6,3.6,0,0,1-2.14.57h-3.09Zm1,.84v2.93h1.59a2.66,2.66,0,0,0,1.71-.47,1.27,1.27,0,0,0,.49-1.06,1.21,1.21,0,0,0-.5-1.1,2.94,2.94,0,0,0-1.52-.3Zm0,3.77v3.39H360q2.1,0,2.1-1.68a1.47,1.47,0,0,0-.69-1.31,3,3,0,0,0-1.68-.4Z" transform="translate(0 -0.56)"/><path class="cls-2" d="M369.82,264.21v6.13h-.93v-1.12a3,3,0,0,1-1,1,2.33,2.33,0,0,1-1.13.3,1.66,1.66,0,0,1-1.27-.5,1.7,1.7,0,0,1-.44-1.24v-4.54h1v4.24c0,.79.35,1.19,1.06,1.19a1.72,1.72,0,0,0,1-.39,2.65,2.65,0,0,0,.74-.85v-4.19Z" transform="translate(0 -0.56)"/><path class="cls-2" d="M373.13,261.85V263h-1.2v-1.19Zm-.11,2.36v6.13h-1v-6.13Z" transform="translate(0 -0.56)"/><path class="cls-2" d="M376.2,261.34v9h-1v-9Z" transform="translate(0 -0.56)"/><path class="cls-2" d="M383.15,261.34v9h-.95v-.89a2,2,0,0,1-1.79,1.05,2.06,2.06,0,0,1-1.78-1,3.84,3.84,0,0,1-.61-2.26,3.65,3.65,0,0,1,.77-2.48,2,2,0,0,1,1.6-.72,2,2,0,0,1,1.78,1v-3.77Zm-1,4.72a1.73,1.73,0,0,0-1.55-1.18,1.35,1.35,0,0,0-1.2.69,3.14,3.14,0,0,0-.4,1.71,2.92,2.92,0,0,0,.54,1.89,1.38,1.38,0,0,0,1.1.53,1.74,1.74,0,0,0,1.51-1.15Z" transform="translate(0 -0.56)"/><path class="cls-2" d="M393.24,260.49l-4.72,11.09h-.67l4.71-11.09Z" transform="translate(0 -0.56)"/><path class="cls-2" d="M398.11,261.5h2.73a4,4,0,0,1,3.21,1.22,4.62,4.62,0,0,1,1,3.16,4.35,4.35,0,0,1-1.36,3.49,4.42,4.42,0,0,1-3,1h-2.56Zm1,.85v7.14h1.49a3.13,3.13,0,0,0,2.44-.93,3.81,3.81,0,0,0,.85-2.67q0-3.54-3.2-3.54Z" transform="translate(0 -0.56)"/><path class="cls-2" d="M411.74,267.42h-4.29a2.65,2.65,0,0,0,.55,1.81,1.61,1.61,0,0,0,1.25.53,1.5,1.5,0,0,0,1.55-1.25l.91.3a2.4,2.4,0,0,1-2.48,1.68,2.49,2.49,0,0,1-2.08-1,3.61,3.61,0,0,1-.65-2.24,3.43,3.43,0,0,1,.85-2.45,2.5,2.5,0,0,1,3.75.16,3.55,3.55,0,0,1,.64,2.2Zm-.95-.7a2.3,2.3,0,0,0-.55-1.48,1.43,1.43,0,0,0-1.08-.43,1.52,1.52,0,0,0-1.23.59,2.35,2.35,0,0,0-.46,1.32Z" transform="translate(0 -0.56)"/><path class="cls-2" d="M414.48,264.21v1a2.05,2.05,0,0,1,1.81-1.09,2,2,0,0,1,1.77.94,3.78,3.78,0,0,1,.6,2.24,3.59,3.59,0,0,1-.8,2.48,2.1,2.1,0,0,1-1.63.75,1.9,1.9,0,0,1-1.72-1.07v3.1h-1v-8.31Zm0,1.84v2.5A1.75,1.75,0,0,0,416,269.7a1.38,1.38,0,0,0,1.22-.69,3.14,3.14,0,0,0,.42-1.73,3.05,3.05,0,0,0-.5-1.88,1.29,1.29,0,0,0-1.07-.53A1.79,1.79,0,0,0,414.51,266.05Z" transform="translate(0 -0.56)"/><path class="cls-2" d="M421.45,261.34v9h-1v-9Z" transform="translate(0 -0.56)"/><path class="cls-2" d="M425.92,264.08a2.36,2.36,0,0,1,2,1,3.64,3.64,0,0,1,.65,2.23,3.47,3.47,0,0,1-.84,2.47,2.52,2.52,0,0,1-3.79-.21,3.59,3.59,0,0,1-.64-2.22,3.5,3.5,0,0,1,.83-2.47A2.36,2.36,0,0,1,425.92,264.08Zm0,.75a1.38,1.38,0,0,0-1.26.72,3.31,3.31,0,0,0-.39,1.73,3.11,3.11,0,0,0,.5,1.91,1.46,1.46,0,0,0,2.39-.16,3.36,3.36,0,0,0,.39-1.75,3.07,3.07,0,0,0-.49-1.89A1.36,1.36,0,0,0,425.92,264.83Z" transform="translate(0 -0.56)"/><path class="cls-2" d="M434.77,264.21l-2.23,6.42a3.06,3.06,0,0,1-1,1.52,2.19,2.19,0,0,1-1.29.37,3.81,3.81,0,0,1-.59,0l-.06-.8a4.27,4.27,0,0,0,.64.07c.66,0,1.12-.41,1.39-1.23l.1-.29-2.13-6h1.05l1.08,3.48.42,1.5h.12c.23-.82.37-1.33.43-1.52l1.06-3.46Z" transform="translate(0 -0.56)"/><rect class="cls-15" x="222" y="101.49" width="40" height="17"/><path class="cls-2" d="M227.94,107.45l-.07.83a1.87,1.87,0,0,0-.77.13,1.67,1.67,0,0,0-.46.32,1.69,1.69,0,0,1,.6,1.34,1.82,1.82,0,0,1-.71,1.53,2.44,2.44,0,0,1-1.55.47,2.33,2.33,0,0,1-.93-.17c-.37.21-.56.43-.56.68a.41.41,0,0,0,.24.39,3.11,3.11,0,0,0,.91.2l1.23.12a3,3,0,0,1,1.71.55,1.23,1.23,0,0,1,.37.94,1.45,1.45,0,0,1-.84,1.29,4.13,4.13,0,0,1-2.07.45,4,4,0,0,1-2.09-.46,1.17,1.17,0,0,1-.62-1c0-.58.41-1,1.22-1.27-.61-.14-.92-.45-.92-.92s.3-.84.89-1.22a1.77,1.77,0,0,1-.82-1.56,1.84,1.84,0,0,1,.74-1.51,2.45,2.45,0,0,1,1.53-.48,2.36,2.36,0,0,1,1.21.3,2.16,2.16,0,0,1,.78-.74A2.23,2.23,0,0,1,227.94,107.45Zm-3.67,6.48c-.72.2-1.09.53-1.09,1a.84.84,0,0,0,.6.77,3.25,3.25,0,0,0,1.28.21,3.08,3.08,0,0,0,1.57-.33.76.76,0,0,0,.44-.66.58.58,0,0,0-.31-.55,2.69,2.69,0,0,0-1.08-.27Zm.71-5.19a1.36,1.36,0,0,0-1,.4,1.29,1.29,0,0,0-.35.94,1.26,1.26,0,0,0,.45,1,1.34,1.34,0,0,0,.91.31,1.32,1.32,0,0,0,1-.4,1.33,1.33,0,0,0,.35-.94,1.28,1.28,0,0,0-.45-1A1.35,1.35,0,0,0,225,108.74Z" transform="translate(0 -0.56)"/><path class="cls-2" d="M230.58,105.85V107h-1.2v-1.19Zm-.11,2.36v6.13h-1v-6.13Z" transform="translate(0 -0.56)"/><path class="cls-2" d="M233.93,106.09v2.12h1.47V109h-1.47v3.78c0,.66.28,1,.85,1a3.55,3.55,0,0,0,.77-.07l-.05.75a5.42,5.42,0,0,1-.95.07,1.39,1.39,0,0,1-1.58-1.57v-4h-1v-.76h1V106.3Z" transform="translate(0 -0.56)"/><path class="cls-2" d="M241.25,108.21v1a2.06,2.06,0,0,1,1.81-1.09,2,2,0,0,1,1.77.94,3.78,3.78,0,0,1,.6,2.24,3.59,3.59,0,0,1-.8,2.48,2.08,2.08,0,0,1-1.63.75,1.9,1.9,0,0,1-1.72-1.07v3.1h-1v-8.31Zm0,1.84v2.5a1.75,1.75,0,0,0,1.52,1.15A1.38,1.38,0,0,0,244,113a3.14,3.14,0,0,0,.42-1.73,3.05,3.05,0,0,0-.5-1.88,1.28,1.28,0,0,0-1.06-.53A1.79,1.79,0,0,0,241.28,110.05Z" transform="translate(0 -0.56)"/><path class="cls-2" d="M252,108.21v6.13h-.94v-1.12a2.9,2.9,0,0,1-1,1,2.33,2.33,0,0,1-1.13.3,1.69,1.69,0,0,1-1.28-.5,1.74,1.74,0,0,1-.44-1.24v-4.54h1v4.24c0,.79.35,1.19,1,1.19a1.68,1.68,0,0,0,1-.39,2.8,2.8,0,0,0,.75-.85v-4.19Z" transform="translate(0 -0.56)"/><path class="cls-2" d="M258.35,109.54l-.93.3a1.31,1.31,0,0,0-1.34-1,1.52,1.52,0,0,0-1,.27.75.75,0,0,0-.28.61.8.8,0,0,0,.29.69,2.86,2.86,0,0,0,1,.37l.49.12a3.25,3.25,0,0,1,1.54.71,1.55,1.55,0,0,1,.37,1.11,1.62,1.62,0,0,1-.66,1.36,2.86,2.86,0,0,1-1.7.46,2.31,2.31,0,0,1-2.43-1.49l.95-.34a1.45,1.45,0,0,0,1.51,1.11,1.6,1.6,0,0,0,1.11-.34.9.9,0,0,0,.28-.67.87.87,0,0,0-.3-.74,3.14,3.14,0,0,0-1.05-.4l-.49-.11a2.86,2.86,0,0,1-1.47-.72,1.54,1.54,0,0,1-.33-1.05,1.47,1.47,0,0,1,.62-1.25,2.58,2.58,0,0,1,1.56-.42A2.16,2.16,0,0,1,258.35,109.54Z" transform="translate(0 -0.56)"/><path class="cls-2" d="M261.26,105.34v4a2.72,2.72,0,0,1,2.11-1.23,1.61,1.61,0,0,1,1.29.53,1.77,1.77,0,0,1,.42,1.23v4.51h-1v-4.16c0-.83-.34-1.25-1-1.25a2.34,2.34,0,0,0-1.79,1.22v4.19h-1v-9Z" transform="translate(0 -0.56)"/><line class="cls-1" x1="149.5" y1="401.99" x2="79.31" y2="351.2"/><polygon class="cls-2" points="83.42 348.01 73.5 346.99 77.57 356.09 83.42 348.01"/><rect class="cls-15" x="97" y="373.49" width="40" height="17"/><path class="cls-2" d="M104.08,377.5H107q3.06,0,3.06,2.46a2.24,2.24,0,0,1-.92,1.92,3.67,3.67,0,0,1-2.23.59h-1.82v3.87h-1Zm1,.84v3.32h1.78c1.41,0,2.11-.56,2.11-1.69s-.68-1.63-2-1.63Z" transform="translate(0 -0.56)"/><path class="cls-2" d="M115.15,377.34a3.21,3.21,0,0,1,2.75,1.36,5.27,5.27,0,0,1,.9,3.21,5.06,5.06,0,0,1-1.16,3.55,3.26,3.26,0,0,1-2.49,1.05,3.21,3.21,0,0,1-2.74-1.36,5.27,5.27,0,0,1-.9-3.21,5,5,0,0,1,1.17-3.54A3.21,3.21,0,0,1,115.15,377.34Zm0,.86a2.16,2.16,0,0,0-1.92,1.08,4.91,4.91,0,0,0-.62,2.64,4.56,4.56,0,0,0,.8,2.9,2.27,2.27,0,0,0,3.67-.25,4.92,4.92,0,0,0,.62-2.65,4.5,4.5,0,0,0-.8-2.9A2.15,2.15,0,0,0,115.15,378.2Z" transform="translate(0 -0.56)"/><path class="cls-2" d="M126.2,379.45l-1,.31a1.86,1.86,0,0,0-1.87-1.57,2,2,0,0,0-1.36.44,1.26,1.26,0,0,0-.42,1,1.34,1.34,0,0,0,.46,1.11,3.48,3.48,0,0,0,1.38.58l.38.12a4.12,4.12,0,0,1,2.19,1.09,2.55,2.55,0,0,1-.44,3.38,4,4,0,0,1-4.31,0,3,3,0,0,1-1-1.58l1-.36a2.29,2.29,0,0,0,.87,1.36,2.16,2.16,0,0,0,1.27.37,2.24,2.24,0,0,0,1.59-.49,1.4,1.4,0,0,0,.42-1.06,1.42,1.42,0,0,0-.44-1.13,4.28,4.28,0,0,0-1.54-.66l-.35-.1a4.18,4.18,0,0,1-2.06-1.06,2.28,2.28,0,0,1-.45-1.49,2.1,2.1,0,0,1,.81-1.71,3,3,0,0,1,2-.62A2.81,2.81,0,0,1,126.2,379.45Z" transform="translate(0 -0.56)"/><path class="cls-2" d="M134.13,377.5v.89h-2.78v7.95h-1v-7.95h-2.75v-.89Z" transform="translate(0 -0.56)"/><line class="cls-1" x1="58.5" y1="262.99" x2="58.5" y2="253.17"/><polygon class="cls-2" points="63.49 254.63 58.5 245.99 53.51 254.63 63.49 254.63"/><line class="cls-1" x1="58.5" y1="168.49" x2="58.5" y2="158.67"/><polygon class="cls-2" points="63.49 160.13 58.5 151.49 53.51 160.13 63.49 160.13"/><line class="cls-1" x1="56.5" y1="64.99" x2="56.5" y2="28.17"/><polygon class="cls-2" points="61.49 29.63 56.5 20.99 51.51 29.63 61.49 29.63"/><path class="cls-2" d="M28.14,1.5v.88H23.61V5.21H27v.88H23.61V9.46h4.61v.88H22.57V1.5Z" transform="translate(0 -0.56)"/><path class="cls-2" d="M30.77,4.21V5.33a2.46,2.46,0,0,1,2-1.25,1.56,1.56,0,0,1,1.08.38,1.43,1.43,0,0,1,.46.85,2.5,2.5,0,0,1,2-1.23,1.55,1.55,0,0,1,1.25.52A1.8,1.8,0,0,1,38,5.83v4.51H37V6.18c0-.83-.34-1.25-1-1.25a1.5,1.5,0,0,0-.94.37,3,3,0,0,0-.7.85v4.19h-1V6.18c0-.83-.32-1.25-1-1.25a1.51,1.51,0,0,0-.92.36,3,3,0,0,0-.73.86v4.19h-1V4.21Z" transform="translate(0 -0.56)"/><path class="cls-2" d="M40,5.68a2.26,2.26,0,0,1,2.44-1.61q2.22,0,2.22,2V8.35a15.31,15.31,0,0,0,.12,2h-.88a7.41,7.41,0,0,1-.14-1,2.4,2.4,0,0,1-2.1,1.12,1.87,1.87,0,0,1-1.45-.56,1.72,1.72,0,0,1-.43-1.23c0-1.1.67-1.78,2-2a16.06,16.06,0,0,1,1.92-.2V6.17a1.45,1.45,0,0,0-.34-1.1A1.61,1.61,0,0,0,40.92,6ZM43.7,7.17a9,9,0,0,0-1.7.18c-.86.19-1.28.62-1.28,1.3a1,1,0,0,0,.34.84,1.24,1.24,0,0,0,.83.27A2.11,2.11,0,0,0,43.7,8.54Z" transform="translate(0 -0.56)"/><path class="cls-2" d="M47.9,1.85V3H46.7V1.85Zm-.11,2.36v6.13h-1V4.21Z" transform="translate(0 -0.56)"/><path class="cls-2" d="M51,1.34v9H50v-9Z" transform="translate(0 -0.56)"/><path class="cls-2" d="M61.53,3a15,15,0,0,1-.64,3.1A9.33,9.33,0,0,1,60,8.23a2.06,2.06,0,0,1-1.76,1.24,1.5,1.5,0,0,1-1.28-.8,3.56,3.56,0,0,1-.47-1.93A4,4,0,0,1,56.85,5a4.38,4.38,0,0,1,1-1.35,5.1,5.1,0,0,1,3.6-1.33,4.35,4.35,0,0,1,3.29,1.22,3.66,3.66,0,0,1,1,2.65,3.77,3.77,0,0,1-1.06,2.72,5.54,5.54,0,0,1-2.75,1.46.26.26,0,0,1-.11,0,.23.23,0,0,1-.2-.15,1.43,1.43,0,0,0-.47-.44A5.14,5.14,0,0,0,64,8.35,3.33,3.33,0,0,0,64.86,6a2.89,2.89,0,0,0-1-2.29A3.12,3.12,0,0,0,61.76,3ZM60.7,3a3.84,3.84,0,0,0-2.34,1.1A3.53,3.53,0,0,0,57.2,6.73a2.54,2.54,0,0,0,.37,1.49.75.75,0,0,0,.61.39c.41,0,.78-.3,1.11-.88a10.69,10.69,0,0,0,.93-2.26A12.56,12.56,0,0,0,60.7,3Z" transform="translate(0 -0.56)"/><path class="cls-2" d="M78.74,10.16a1.19,1.19,0,0,0-.23.55c0,.13,0,.21-.07.23a.43.43,0,0,1-.21,0q-2.34.15-4.26.15a8,8,0,0,1-3-.38A2.42,2.42,0,0,1,69.9,9.55a13.82,13.82,0,0,1-1.29,1.18,1.28,1.28,0,0,0-.26.24c0,.07-.08.1-.14.1a.17.17,0,0,1-.14-.09,4.27,4.27,0,0,1-.35-.64c.28-.15.53-.3.75-.44a9.19,9.19,0,0,0,1.1-1V6h-.89l-.83,0c-.06,0-.09,0-.09-.1V5.35a.08.08,0,0,1,.09-.09l.83,0h.65l.86,0c.07,0,.1,0,.1.09l0,1.12V8.92a2,2,0,0,0,1,1.19,6.6,6.6,0,0,0,2.4.3A49.45,49.45,0,0,0,78.74,10.16Zm-8.56-7.4a.13.13,0,0,1,0,.07s0,.08-.1.13l-.31.25a.45.45,0,0,1-.15.07s-.05,0-.07-.07a11.78,11.78,0,0,0-1.31-1.7s0-.05,0-.07,0-.06.1-.11l.31-.2a.24.24,0,0,1,.11-.06.11.11,0,0,1,.07,0A11.73,11.73,0,0,1,70.18,2.76Zm8.19,6.16a1.23,1.23,0,0,0-.3.44q-.06.21-.15.21l-.17-.05a5.83,5.83,0,0,1-3.24-3,4.21,4.21,0,0,1-1,1.82,6.21,6.21,0,0,1-1.74,1.18.39.39,0,0,1-.17.07s-.08-.06-.16-.19A1.37,1.37,0,0,0,71,9a5.5,5.5,0,0,0,2-1.28A3.76,3.76,0,0,0,73.94,6H72.87l-1.64,0c-.07,0-.1,0-.1-.09V5.49c0-.06,0-.09.1-.09l1.64,0H74A10.27,10.27,0,0,0,74.13,4V3.63h-1l-1.61,0c-.06,0-.09,0-.09-.1V3.08A.08.08,0,0,1,71.54,3l1.61,0H75a19.1,19.1,0,0,0,.92-1.69,2.93,2.93,0,0,0,.19-.61q.38.11.72.24c.07,0,.11.09.11.14s-.05.13-.14.18a.9.9,0,0,0-.22.31A15.83,15.83,0,0,1,75.69,3h.48l1.59,0c.07,0,.1,0,.1.09v.48c0,.07,0,.1-.1.1l-1.59,0H74.83a17.14,17.14,0,0,1-.11,1.79h1.7l1.65,0c.07,0,.1,0,.1.09V6c0,.06,0,.09-.1.09L76.42,6H74.9A5.69,5.69,0,0,0,78.37,8.92ZM73.76,2.3a.18.18,0,0,1,0,.06s0,.07-.14.12l-.31.16a.36.36,0,0,1-.13,0s0,0-.08-.09a8.61,8.61,0,0,0-.82-1.36s0-.05,0-.07,0-.06.11-.09L72.7.91l.12,0s0,0,.08.05A8.94,8.94,0,0,1,73.76,2.3Z" transform="translate(0 -0.56)"/><path class="cls-2" d="M82.74.9a.26.26,0,0,1-.09.18,1.16,1.16,0,0,0-.23.47c-.25.69-.48,1.26-.69,1.73V9.42l0,1.88c0,.07,0,.1-.09.1h-.58s-.08,0-.08-.1l0-1.88v-3C81,5.6,81,5,81,4.61A12.64,12.64,0,0,1,80,6.16c-.08.09-.13.14-.16.14s-.06,0-.09-.14a1.31,1.31,0,0,0-.3-.46,13.12,13.12,0,0,0,2.31-4.32,3.93,3.93,0,0,0,.16-.82,4.88,4.88,0,0,1,.7.21C82.69.81,82.74.85,82.74.9Zm7.69,2.63c0,.07,0,.1-.1.1l-1.68,0H84.41l-1.68,0c-.07,0-.1,0-.1-.1V3c0-.06,0-.09.1-.09l1.68,0h4.24l1.68,0c.07,0,.1,0,.1.09ZM89.3,11.24a.08.08,0,0,1-.09.09h-.56c-.07,0-.1,0-.1-.09v-.5H84.23v.54c0,.07,0,.1-.1.1h-.54a.09.09,0,0,1-.1-.1l0-1.47V8.92l0-1s0-.08.1-.08l1.56,0h2.51l1.55,0c.06,0,.09,0,.09.08l0,.87v1ZM89,5.14c0,.07,0,.1-.1.1l-1.45,0H85.31l-1.46,0c-.07,0-.1,0-.1-.1V4.68c0-.07,0-.1.1-.1l1.46,0h2.18l1.45,0c.07,0,.1,0,.1.1Zm0,1.63c0,.06,0,.09-.1.09l-1.45,0H85.31l-1.46,0c-.07,0-.1,0-.1-.09V6.3c0-.06,0-.09.1-.09l1.46,0h2.18l1.45,0c.07,0,.1,0,.1.09Zm.11-4.88c0,.06,0,.08-.11.08L87.58,2H85.33L83.86,2c-.07,0-.1,0-.1-.08V1.4c0-.06,0-.09.1-.09l1.47,0h2.25l1.46,0c.07,0,.11,0,.11.09Zm-.6,8.24V8.47H84.23v1.66Z" transform="translate(0 -0.56)"/><path class="cls-2" d="M171.55,419.53v.8h-3.34v-.8Z" transform="translate(0 -0.56)"/><path class="cls-2" d="M183.56,414.5v8.84h-1v-4.19h-4.35v4.19h-1V414.5h1v3.76h4.35V414.5Z" transform="translate(0 -0.56)"/><path class="cls-2" d="M191.87,414.5v.89h-2.78v7.95H188v-7.95h-2.75v-.89Z" transform="translate(0 -0.56)"/><path class="cls-2" d="M202.1,414.5v8.84h-1v-5.2l0-2.79h-.21c-.29,1.11-.55,2-.77,2.72l-1.67,5.27h-1.33l-1.63-5.25c-.12-.38-.27-.87-.44-1.45s-.31-1.09-.37-1.29h-.2c0,.13,0,.27,0,.41l0,2.4v5.18h-.94V414.5h1.76l1.58,5.21.43,1.42c.15.53.28,1,.38,1.27h.2l.83-2.67,1.6-5.23Z" transform="translate(0 -0.56)"/><path class="cls-2" d="M205.66,414.5v7.95h4.39v.89h-5.43V414.5Z" transform="translate(0 -0.56)"/><path class="cls-2" d="M171.55,434.53v.8h-3.34v-.8Z" transform="translate(0 -0.56)"/><path class="cls-2" d="M179.4,429.5v6.64a2.28,2.28,0,0,1-.8,1.9,2.52,2.52,0,0,1-1.56.47c-.15,0-.43,0-.84-.05l0-.85a5.36,5.36,0,0,0,.82.06,1.26,1.26,0,0,0,1-.45,1.87,1.87,0,0,0,.35-1.19V429.5Z" transform="translate(0 -0.56)"/><path class="cls-2" d="M187.31,431.45l-1,.31a1.86,1.86,0,0,0-1.87-1.57,2,2,0,0,0-1.36.44,1.26,1.26,0,0,0-.42,1,1.34,1.34,0,0,0,.46,1.11,3.48,3.48,0,0,0,1.38.58l.38.12a4.12,4.12,0,0,1,2.19,1.09,2.55,2.55,0,0,1-.44,3.38,4,4,0,0,1-4.31,0,3,3,0,0,1-1-1.58l1-.36a2.29,2.29,0,0,0,.87,1.36,2.16,2.16,0,0,0,1.27.37,2.2,2.2,0,0,0,1.58-.49,1.37,1.37,0,0,0,.43-1.06A1.42,1.42,0,0,0,186,435a4.28,4.28,0,0,0-1.54-.66l-.36-.1a4.14,4.14,0,0,1-2.05-1.06,2.28,2.28,0,0,1-.45-1.49,2.1,2.1,0,0,1,.81-1.71,3,3,0,0,1,2-.62A2.81,2.81,0,0,1,187.31,431.45Z" transform="translate(0 -0.56)"/><line class="cls-1" x1="272.5" y1="73.99" x2="273.44" y2="179.81"/><polygon class="cls-2" points="268.44 178.4 273.5 186.99 278.41 178.31 268.44 178.4"/><rect class="cls-15" x="264" y="135.49" width="40" height="17"/><path class="cls-2" d="M265.89,139.34v4a2.71,2.71,0,0,1,2.11-1.23,1.61,1.61,0,0,1,1.29.53,1.77,1.77,0,0,1,.42,1.23v4.51h-1v-4.16c0-.83-.34-1.25-1-1.25a2.34,2.34,0,0,0-1.79,1.22v4.19h-1v-9Z" transform="translate(0 -0.56)"/><path class="cls-2" d="M274.14,142.08a2.35,2.35,0,0,1,2,1,3.64,3.64,0,0,1,.65,2.23,3.51,3.51,0,0,1-.83,2.47,2.37,2.37,0,0,1-1.81.76,2.34,2.34,0,0,1-2-1,3.59,3.59,0,0,1-.64-2.22,3.5,3.5,0,0,1,.83-2.47A2.37,2.37,0,0,1,274.14,142.08Zm0,.75a1.39,1.39,0,0,0-1.26.72,3.31,3.31,0,0,0-.38,1.73,3.11,3.11,0,0,0,.49,1.91,1.35,1.35,0,0,0,1.14.55,1.38,1.38,0,0,0,1.26-.71,3.47,3.47,0,0,0,.38-1.75,3.07,3.07,0,0,0-.49-1.89A1.36,1.36,0,0,0,274.14,142.83Z" transform="translate(0 -0.56)"/><path class="cls-2" d="M280.85,142.08a2.36,2.36,0,0,1,2,1,3.64,3.64,0,0,1,.65,2.23,3.51,3.51,0,0,1-.83,2.47,2.37,2.37,0,0,1-1.81.76,2.34,2.34,0,0,1-2-1,3.59,3.59,0,0,1-.64-2.22,3.5,3.5,0,0,1,.83-2.47A2.36,2.36,0,0,1,280.85,142.08Zm0,.75a1.39,1.39,0,0,0-1.26.72,3.31,3.31,0,0,0-.38,1.73,3.11,3.11,0,0,0,.49,1.91,1.46,1.46,0,0,0,2.39-.16,3.36,3.36,0,0,0,.39-1.75,3.07,3.07,0,0,0-.49-1.89A1.36,1.36,0,0,0,280.85,142.83Z" transform="translate(0 -0.56)"/><path class="cls-2" d="M290.1,142.21l-2.1,2.33,2.26,3.8h-1.1l-1.82-3.15-1.08,1.15v2h-1v-9h1v5.93l2.7-3.06Z" transform="translate(0 -0.56)"/></svg>