<svg id="Lambda" xmlns="http://www.w3.org/2000/svg" xmlns:xlink="http://www.w3.org/1999/xlink" viewBox="0 0 490.67 474.49"><defs><style>.cls-1{fill:none;stroke:#4d4d4d;stroke-miterlimit:10;}.cls-2{fill:#4d4d4d;}.cls-3{fill:#9d5025;}.cls-4{fill:#f58536;}.cls-5{fill:#6b3a19;}.cls-6{fill:#fbbf93;}.cls-7{fill:#fad791;}.cls-8{fill:#624a1e;}.cls-9{fill:#d9a741;}.cls-10{fill:#876929;}.cls-11{fill:url(#名称未設定グラデーション_3);}.cls-12{fill:url(#名称未設定グラデーション_2);}.cls-13{fill:#1e1a1a;fill-rule:evenodd;}.cls-14{fill:#151515;}.cls-15{fill:#fff;}</style><radialGradient id="名称未設定グラデーション_3" cx="-255.41" cy="588.46" r="0.81" gradientTransform="matrix(59.84, 0, 0, -59.95, 15475.7, 35439.32)" gradientUnits="userSpaceOnUse"><stop offset="0" stop-color="#20c6b7"/><stop offset="1" stop-color="#4d9abf"/></radialGradient><linearGradient id="名称未設定グラデーション_2" x1="-258.28" y1="583.63" x2="-258.28" y2="584.31" gradientTransform="matrix(96.57, 0, 0, -34.11, 25205.27, 20103.47)" gradientUnits="userSpaceOnUse"><stop offset="0" stop-color="#313d3e"/><stop offset="1" stop-color="#425253"/></linearGradient></defs><title>illust</title><line class="cls-1" x1="222.5" y1="145.99" x2="222.5" y2="55.67"/><polygon class="cls-2" points="227.49 57.13 222.5 48.49 217.51 57.13 227.49 57.13"/><line class="cls-1" x1="278.5" y1="405.99" x2="404.33" y2="229.83"/><polygon class="cls-2" points="407.54 233.91 408.5 223.99 399.42 228.12 407.54 233.91"/><line class="cls-1" x1="309.5" y1="186.99" x2="385.32" y2="186.99"/><polygon class="cls-2" points="383.87 191.98 392.5 186.99 383.87 182 383.87 191.98"/><g id="Lambda-2" data-name="Lambda"><polygon class="cls-3" points="41.52 210.34 43.89 211.53 48.08 197.19 43.89 182.8 41.52 183.99 41.52 210.34"/><polygon class="cls-4" points="48.48 183.89 43.89 182.82 43.89 211.53 48.48 210.45 48.48 183.89"/><polygon class="cls-3" points="46.74 181.37 50.22 179.63 54.56 197.19 50.22 214.69 46.74 212.95 46.74 181.37"/><polygon class="cls-4" points="57.35 212.36 50.22 214.63 50.22 179.63 57.35 181.91 57.35 212.36"/><polygon class="cls-3" points="73.54 185.78 76.39 185.78 76.39 207.61 73.54 207.45 73.54 185.78"/><polygon class="cls-5" points="62.47 186.1 65.67 184.45 76.17 185.78 76.48 188.57 73.6 188.98 62.47 186.1"/><polygon class="cls-6" points="62.57 208.23 65.76 209.88 76.56 205.75 73.7 205.35 62.57 208.23"/><polygon class="cls-3" points="63.38 203.59 69.08 204.36 69.08 189.97 63.38 190.73 63.38 203.59"/><polygon class="cls-3" points="54.56 216.86 60.14 219.65 64.92 197.13 60.14 174.68 54.56 177.46 54.56 216.86"/><path class="cls-4" d="M60.14,175.24v45l18.63-9.31V184.55Zm16.25,31.1-10.68,3.21V185.9l10.67,3.2Z" transform="translate(0 -0.56)"/><polygon class="cls-4" points="69.08 189.97 69.08 204.4 75.02 197.19 69.08 189.97"/></g><g id="API"><polygon class="cls-7" points="78.85 292.79 69.8 292.42 63.94 292.79 73.61 305.95 78.85 292.79"/><polygon class="cls-8" points="78.85 287.34 69.8 287.72 63.94 287.34 73.61 274.19 78.85 287.34"/><polygon class="cls-8" points="41.59 287.33 50.63 287.72 56.5 287.34 46.82 274.25 41.59 287.33"/><polygon class="cls-7" points="41.59 292.79 50.63 292.42 56.5 292.79 46.82 305.96 41.59 292.79"/><polygon class="cls-9" points="73.61 286.82 78.85 287.34 78.85 276.81 73.61 274.19 73.61 286.82"/><polygon class="cls-10" points="63.94 276.8 73.61 274.19 73.61 286.82 63.94 287.34 63.94 276.8"/><polygon class="cls-9" points="60.22 275.27 70.69 278.7 70.69 283.91 60.22 282.06 60.22 275.27"/><polygon class="cls-8" points="55.5 282.92 60.29 282.07 70.69 283.91 66.05 284.42 55.5 282.92"/><polygon class="cls-10" points="46.82 286.82 41.59 287.33 41.59 276.76 46.82 274.18 46.82 286.82"/><polygon class="cls-9" points="56.5 276.8 46.82 274.18 46.82 286.82 56.5 287.34 56.5 276.8"/><polygon class="cls-10" points="60.22 275.27 49.74 278.7 49.74 283.91 60.22 282.06 60.22 275.27"/><polygon class="cls-8" points="64.94 282.92 60.14 282.07 49.74 283.91 54.39 284.42 64.94 282.92"/><polygon class="cls-9" points="73.61 293.32 78.85 292.79 78.85 303.33 73.61 305.95 73.61 293.32"/><polygon class="cls-10" points="63.94 303.34 73.61 305.95 73.61 293.32 63.94 292.79 63.94 303.34"/><polygon class="cls-9" points="60.22 304.87 70.69 301.44 70.69 296.23 60.22 298.07 60.22 304.87"/><polygon class="cls-7" points="55.5 297.22 60.29 298.06 70.69 296.23 66.05 295.72 55.5 297.22"/><polygon class="cls-10" points="46.82 293.32 41.59 292.79 41.59 303.33 46.82 305.96 46.82 293.32"/><polygon class="cls-9" points="56.5 303.34 46.82 305.96 46.82 293.32 56.5 292.79 56.5 303.34"/><polygon class="cls-10" points="60.22 304.87 49.74 301.44 49.74 296.23 60.22 298.07 60.22 304.87"/><polygon class="cls-7" points="64.94 297.22 60.14 298.06 49.74 296.23 54.39 295.72 64.94 297.22"/><polygon class="cls-10" points="54.64 309.68 60.22 312.46 63.31 310.92 65.79 270.28 60.22 267.49 54.64 270.28 54.64 309.68"/><polygon class="cls-9" points="65.79 309.68 60.22 312.46 60.22 267.49 65.79 270.28 65.79 309.68"/></g><g id="SES"><polygon class="cls-10" points="47.39 84.84 38.27 99.37 47.39 113.9 54.68 112.03 55.04 86.81 47.39 84.84"/><polygon class="cls-9" points="57.58 111.29 47.39 113.9 47.39 84.84 57.58 87.45 57.58 111.29"/><polygon class="cls-10" points="56.37 89.83 57.58 122.65 76.84 113.02 76.83 88.5 71.92 89.31 56.37 89.83"/><polygon class="cls-10" points="63.72 96.31 69.73 95.96 75.67 85.18 60.65 77.68 55.04 80.13 63.72 96.31"/><polygon class="cls-9" points="60.65 77.68 75.67 85.18 69.73 95.96 60.65 77.68"/><polygon class="cls-10" points="57.58 80.79 69.73 102.83 71.81 115.53 57.58 122.65 51.82 119.77 51.82 83.09 57.58 80.79 57.58 80.79"/><polygon class="cls-9" points="76.83 88.5 76.84 113.02 57.58 122.65 57.58 80.79 69.73 102.83 76.83 88.5"/></g><path class="cls-2" d="M40.12,228.5v7.95H44.5v.89H39.08V228.5Z" transform="translate(0 -0.56)"/><path class="cls-2" d="M45.91,232.68a2.26,2.26,0,0,1,2.44-1.61q2.22,0,2.22,2v2.24a15.31,15.31,0,0,0,.12,2H49.8a7.67,7.67,0,0,1-.13-1,2.4,2.4,0,0,1-2.1,1.12,1.87,1.87,0,0,1-1.45-.56,1.73,1.73,0,0,1-.44-1.23c0-1.1.67-1.78,2-2a16.06,16.06,0,0,1,1.92-.2v-.32a1.45,1.45,0,0,0-.35-1.1,1.38,1.38,0,0,0-1-.27A1.4,1.4,0,0,0,46.84,233Zm3.71,1.49a9.2,9.2,0,0,0-1.71.18c-.85.19-1.28.62-1.28,1.3a1,1,0,0,0,.35.84,1.2,1.2,0,0,0,.83.27,2.12,2.12,0,0,0,1.81-1.22Z" transform="translate(0 -0.56)"/><path class="cls-2" d="M53.66,231.21v1.12a2.47,2.47,0,0,1,2-1.25,1.58,1.58,0,0,1,1.08.38,1.47,1.47,0,0,1,.45.85,2.51,2.51,0,0,1,2-1.23,1.53,1.53,0,0,1,1.24.52,1.81,1.81,0,0,1,.41,1.23v4.51h-1v-4.16c0-.83-.33-1.25-1-1.25a1.48,1.48,0,0,0-.94.37,3,3,0,0,0-.7.85v4.19h-1v-4.16c0-.83-.32-1.25-1-1.25a1.49,1.49,0,0,0-.92.36,3,3,0,0,0-.73.86v4.19h-1v-6.13Z" transform="translate(0 -0.56)"/><path class="cls-2" d="M64,228.34v3.81a2.28,2.28,0,0,1,.85-.84,2,2,0,0,1,.93-.24,2,2,0,0,1,1.77.93,4,4,0,0,1,.59,2.27,3.67,3.67,0,0,1-.8,2.49,2.1,2.1,0,0,1-1.63.74A2,2,0,0,1,64,236.37l-.18,1h-.72v-9Zm0,4.72v2.51a1.75,1.75,0,0,0,1.51,1.14,1.38,1.38,0,0,0,1.22-.7,3.14,3.14,0,0,0,.41-1.73,2.94,2.94,0,0,0-.5-1.87,1.29,1.29,0,0,0-1.06-.53A1.78,1.78,0,0,0,64,233.06Z" transform="translate(0 -0.56)"/><path class="cls-2" d="M74.73,228.34v9h-1v-.89A2,2,0,0,1,72,237.5a2,2,0,0,1-1.78-1,3.84,3.84,0,0,1-.61-2.26,3.64,3.64,0,0,1,.76-2.48,2.06,2.06,0,0,1,1.6-.72,2,2,0,0,1,1.79,1v-3.77Zm-1,4.72a1.75,1.75,0,0,0-1.56-1.18,1.34,1.34,0,0,0-1.19.69,3.13,3.13,0,0,0-.41,1.71,2.92,2.92,0,0,0,.54,1.89,1.38,1.38,0,0,0,1.11.53,1.75,1.75,0,0,0,1.51-1.15Z" transform="translate(0 -0.56)"/><path class="cls-2" d="M76.75,232.68a2.26,2.26,0,0,1,2.44-1.61q2.22,0,2.22,2v2.24a15.31,15.31,0,0,0,.12,2h-.88a7.41,7.41,0,0,1-.14-1,2.4,2.4,0,0,1-2.1,1.12,1.87,1.87,0,0,1-1.45-.56,1.72,1.72,0,0,1-.43-1.23c0-1.1.67-1.78,2-2a16.06,16.06,0,0,1,1.92-.2v-.32a1.45,1.45,0,0,0-.34-1.1,1.61,1.61,0,0,0-2.44.89Zm3.71,1.49a9,9,0,0,0-1.7.18c-.86.19-1.28.62-1.28,1.3a1,1,0,0,0,.34.84,1.24,1.24,0,0,0,.83.27,2.11,2.11,0,0,0,1.81-1.22Z" transform="translate(0 -0.56)"/><path class="cls-2" d="M29.38,321.5l2.85,8.84H31.14l-.86-2.8H27.13l-.89,2.8h-1l2.84-8.84Zm.67,5.22-.65-2.15c-.18-.55-.39-1.31-.63-2.27h-.18c-.2.83-.41,1.59-.61,2.26l-.65,2.16Z" transform="translate(0 -0.56)"/><path class="cls-2" d="M33.88,321.5h2.94q3.06,0,3.06,2.46a2.24,2.24,0,0,1-.92,1.92,3.67,3.67,0,0,1-2.23.59H34.91v3.87h-1Zm1,.84v3.32h1.77c1.41,0,2.12-.56,2.12-1.69s-.68-1.63-2-1.63Z" transform="translate(0 -0.56)"/><path class="cls-2" d="M42.87,321.5v8.84h-1V321.5Z" transform="translate(0 -0.56)"/><path class="cls-2" d="M55.18,323.79l-1,.26A2.11,2.11,0,0,0,52,322.2a2.23,2.23,0,0,0-2,1.08,4.73,4.73,0,0,0-.65,2.64,4.43,4.43,0,0,0,.81,2.89,2.18,2.18,0,0,0,1.8.83,1.92,1.92,0,0,0,1.73-.95,3.9,3.9,0,0,0,.53-1.95H51.92v-.85h3.32v4.49h-.73L54.39,329a2.64,2.64,0,0,1-1.08,1.2,2.79,2.79,0,0,1-1.39.35,3.2,3.2,0,0,1-2.74-1.35,5.36,5.36,0,0,1-.89-3.22,4.93,4.93,0,0,1,1.2-3.54A3.29,3.29,0,0,1,52,321.34a3.11,3.11,0,0,1,2.16.76A3.4,3.4,0,0,1,55.18,323.79Z" transform="translate(0 -0.56)"/><path class="cls-2" d="M57.22,325.68a2.26,2.26,0,0,1,2.44-1.61q2.22,0,2.22,2v2.24a15.31,15.31,0,0,0,.12,2h-.89a7.67,7.67,0,0,1-.13-1,2.4,2.4,0,0,1-2.1,1.12,1.87,1.87,0,0,1-1.45-.56A1.73,1.73,0,0,1,57,328.7c0-1.1.68-1.78,2-2a16.06,16.06,0,0,1,1.92-.2v-.32a1.41,1.41,0,0,0-.35-1.1,1.35,1.35,0,0,0-.94-.27A1.41,1.41,0,0,0,58.15,326Zm3.71,1.49a9,9,0,0,0-1.7.18c-.86.19-1.29.62-1.29,1.3a1,1,0,0,0,.35.84,1.22,1.22,0,0,0,.83.27,2.12,2.12,0,0,0,1.81-1.22Z" transform="translate(0 -0.56)"/><path class="cls-2" d="M65.29,322.09v2.12h1.46V325H65.29v3.78c0,.66.28,1,.85,1a3.55,3.55,0,0,0,.77-.07l0,.75a5.42,5.42,0,0,1-1,.07,1.39,1.39,0,0,1-1.58-1.57V325h-1v-.76h1V322.3Z" transform="translate(0 -0.56)"/><path class="cls-2" d="M73.11,327.42H68.82a2.65,2.65,0,0,0,.55,1.81,1.61,1.61,0,0,0,1.25.53,1.5,1.5,0,0,0,1.55-1.25l.91.3a2.4,2.4,0,0,1-2.48,1.68,2.49,2.49,0,0,1-2.08-1,3.61,3.61,0,0,1-.65-2.24,3.43,3.43,0,0,1,.85-2.45,2.5,2.5,0,0,1,3.75.16,3.55,3.55,0,0,1,.64,2.2Zm-1-.7a2.3,2.3,0,0,0-.55-1.48,1.43,1.43,0,0,0-1.08-.43,1.52,1.52,0,0,0-1.23.59,2.35,2.35,0,0,0-.46,1.32Z" transform="translate(0 -0.56)"/><path class="cls-2" d="M82.73,324.21,81,330.34H79.75l-.81-3.44c-.12-.53-.26-1.17-.41-1.9h-.19c-.2,1.05-.33,1.69-.38,1.91l-.83,3.43H75.91l-1.74-6.13h1l.81,3.45c.07.26.15.6.24,1s.15.69.18.86h.2c0-.17.11-.5.21-1s.14-.65.19-.88l.81-3.46h1.27l.79,3.42c.18.77.32,1.41.41,1.92h.19c0-.17.12-.51.23-1,.08-.36.15-.66.2-.9l.84-3.42Z" transform="translate(0 -0.56)"/><path class="cls-2" d="M84,325.68a2.26,2.26,0,0,1,2.44-1.61q2.22,0,2.22,2v2.24a15.31,15.31,0,0,0,.12,2h-.89c0-.24-.09-.57-.13-1a2.4,2.4,0,0,1-2.1,1.12,1.87,1.87,0,0,1-1.45-.56,1.72,1.72,0,0,1-.43-1.23c0-1.1.67-1.78,2-2a16.06,16.06,0,0,1,1.92-.2v-.32a1.45,1.45,0,0,0-.34-1.1A1.61,1.61,0,0,0,85,326Zm3.71,1.49a9,9,0,0,0-1.7.18c-.86.19-1.29.62-1.29,1.3a1,1,0,0,0,.35.84,1.22,1.22,0,0,0,.83.27,2.12,2.12,0,0,0,1.81-1.22Z" transform="translate(0 -0.56)"/><path class="cls-2" d="M95.25,324.21,93,330.63a3.06,3.06,0,0,1-1,1.52,2.19,2.19,0,0,1-1.29.37,3.81,3.81,0,0,1-.59,0l-.06-.8a4.27,4.27,0,0,0,.64.07c.66,0,1.12-.41,1.39-1.23l.1-.29-2.13-6h1.05l1.08,3.48.42,1.5h.12c.23-.82.37-1.33.43-1.52l1.06-3.46Z" transform="translate(0 -0.56)"/><path class="cls-2" d="M53,135.45l-1,.31a1.85,1.85,0,0,0-1.87-1.57,2,2,0,0,0-1.36.44,1.26,1.26,0,0,0-.42,1,1.34,1.34,0,0,0,.46,1.11,3.48,3.48,0,0,0,1.38.58l.38.12a4.12,4.12,0,0,1,2.19,1.09,2.52,2.52,0,0,1-.44,3.38,4,4,0,0,1-4.31,0,2.89,2.89,0,0,1-1-1.58l1-.36a2.23,2.23,0,0,0,.86,1.36,2.18,2.18,0,0,0,1.27.37,2.24,2.24,0,0,0,1.59-.49,1.4,1.4,0,0,0,.42-1.06,1.42,1.42,0,0,0-.44-1.13,4.28,4.28,0,0,0-1.54-.66l-.35-.1a4.1,4.1,0,0,1-2.05-1.06,2.23,2.23,0,0,1-.46-1.49A2.1,2.1,0,0,1,48,134a3.06,3.06,0,0,1,2-.62A2.82,2.82,0,0,1,53,135.45Z" transform="translate(0 -0.56)"/><path class="cls-2" d="M60.67,133.5v.88H56.15v2.83h3.42v.88H56.15v3.37h4.6v.88H55.1V133.5Z" transform="translate(0 -0.56)"/><path class="cls-2" d="M67.92,135.45l-1,.31A1.87,1.87,0,0,0,65,134.19a2,2,0,0,0-1.36.44,1.26,1.26,0,0,0-.41,1,1.36,1.36,0,0,0,.45,1.11,3.48,3.48,0,0,0,1.38.58l.39.12a4.2,4.2,0,0,1,2.19,1.09,2.23,2.23,0,0,1,.45,1.47,2.27,2.27,0,0,1-.89,1.91,3.48,3.48,0,0,1-2.16.61,3.39,3.39,0,0,1-2.15-.64,2.91,2.91,0,0,1-1-1.58l1-.36a2.29,2.29,0,0,0,.87,1.36,2.16,2.16,0,0,0,1.27.37,2.22,2.22,0,0,0,1.58-.49,1.4,1.4,0,0,0,.42-1.06,1.39,1.39,0,0,0-.44-1.13,4.19,4.19,0,0,0-1.54-.66l-.35-.1a4.1,4.1,0,0,1-2-1.06,2.23,2.23,0,0,1-.46-1.49A2.1,2.1,0,0,1,63,134a3.07,3.07,0,0,1,2-.62A2.81,2.81,0,0,1,67.92,135.45Z" transform="translate(0 -0.56)"/><rect class="cls-1" x="0.5" y="50.99" width="116" height="309"/><g id="Press"><g id="press-v4"><g id="logo-resources"><g id="Group-14"><g id="Group-14-Copy-5"><g id="full-logo-light"><g id="logo-v1-01"><g id="Layer_1" data-name="Layer 1"><g id="Page-1"><g id="logo"><g id="Page-1-2" data-name="Page-1"><g id="logo-text-dark_jm" data-name="logo-text-dark jm"><path id="Combined-Shape" class="cls-11" d="M201.42,178.3a2.16,2.16,0,0,1,.62.47l0,0h0l4.75-2s.05,0,.05-.06a.07.07,0,0,0,0-.06l-4.45-4.4a.06.06,0,0,0,0,0h0s0,0,0,.06l-1,6S201.4,178.3,201.42,178.3Zm-9.85-4a2.53,2.53,0,0,1,.41,1.16s0,0,.05.06l7.06,3h0s0,0,0,0a2.14,2.14,0,0,1,.72-.37.06.06,0,0,0,0-.06l1.15-7.18a.07.07,0,0,0,0-.06l-4.42-4.4s0,0,0,0a0,0,0,0,0,0,0l-5,7.73A.11.11,0,0,0,191.57,174.32Zm24.12,11.06-7.58-7.53,0,0h0L202.91,180s0,0,0,.06,0,.06,0,.06l12.68,5.38h0s0,0,0,0l0,0C215.74,185.46,215.74,185.4,215.69,185.38Zm-1.26,1.23-12.16-5.16h0a.07.07,0,0,0-.06,0,2.07,2.07,0,0,1-1.41.82.06.06,0,0,0-.06.06l-1.3,8a.07.07,0,0,0,0,.06,2.06,2.06,0,0,1,.78,1.43s0,.06.07.06l7.35,1.54h0s0,0,0,0l6.73-6.69a.07.07,0,0,0,0-.12Zm-16.11-6.83L191.67,177h0s0,0-.06,0a2.42,2.42,0,0,1-2,1.11,3,3,0,0,1-.4,0h0s0,0-.06,0l-5.47,8.49a.06.06,0,0,0,0,.08.07.07,0,0,0,.06,0h0l14.6-6.24s0,0,0-.06v-.18a1.73,1.73,0,0,1,.05-.35A.09.09,0,0,0,198.32,179.78Zm8,14.84-6.47-1.33h0l-.06,0a2.21,2.21,0,0,1-.93.7s0,0,0,.06l-1.55,9.53a.1.1,0,0,0,0,.08h0s.05,0,.05,0l9-8.89a.07.07,0,0,0,0-.06C206.38,194.64,206.36,194.62,206.34,194.62Zm-9-.65a2.14,2.14,0,0,1-1.24-1.43s0,0-.06-.06L184,190h0s0,0-.06,0a1.78,1.78,0,0,1-.17.27.06.06,0,0,0,0,.08l10.91,15.79,0,0s0,0,0,0l.66-.66s0,0,0,0L197.31,194S197.35,194,197.31,194Zm-13-5.42a.05.05,0,0,0,.06.06l11.88,2.46h0s0,0,.06,0A2.08,2.08,0,0,1,198,190s.07,0,.07-.06l1.28-7.87s0-.07,0-.07a2.18,2.18,0,0,1-.26-.22.08.08,0,0,0,0,0h0L184.26,188s0,0,0,.08A3.78,3.78,0,0,1,184.28,188.55Zm-5,2a2.93,2.93,0,0,1-.18-.26.1.1,0,0,0-.07,0h0l-5.12,2.19a0,0,0,0,0,0,0,.07.07,0,0,0,0,.06l2.5,2.47,0,0s0,0,.06,0l2.83-4.4A.06.06,0,0,0,179.3,190.53Zm3.39.8s0,0-.06,0h0a2.86,2.86,0,0,1-1.14.25,2.89,2.89,0,0,1-.91-.15h0s0,0-.06,0l-3,4.63,0,0a.06.06,0,0,0,0,.08l13.68,13.56,0,0s0,0,0,0l2.4-2.4a.06.06,0,0,0,0-.08ZM180.77,186s0,0,.06,0h0a3.61,3.61,0,0,1,.64-.08,2.75,2.75,0,0,1,.7.1h0a.1.1,0,0,0,.07,0l5.53-8.59a.06.06,0,0,0,0-.08,2.42,2.42,0,0,1-.68-1.68,2.64,2.64,0,0,1,.06-.55.1.1,0,0,0,0-.08c-.7-.31-6.92-2.92-6.92-2.94h0s0,0,0,0l-5.27,5.23a.06.06,0,0,0,0,.08Zm.6-15,6.54,2.78h0s0,0,0,0a2.55,2.55,0,0,1,1.55-.55,2.82,2.82,0,0,1,.8.12h0s0,0,.06,0l5.11-7.91a.06.06,0,0,0,0-.08l-4.24-4.2,0,0s0,0,0,0l-9.83,9.78a.07.07,0,0,0,0,.06S181.35,171,181.37,171Zm-2.44,16.47s0,0,.06,0a3.06,3.06,0,0,1,.5-.68.06.06,0,0,0,0-.08c-.06-.08-5.66-8.18-5.66-8.2l-.06,0s0,0,0,0l-6.53,6.46a.07.07,0,0,0,0,.06s0,0,.06,0l11.69,2.46Zm-.54,1.41a.05.05,0,0,0-.06-.06l-10.14-2.11h0s0,0-.06,0,0,.06,0,.08l4.52,4.5a.06.06,0,0,0,0,0h0l5.62-2.39S178.39,188.92,178.39,188.9Z" transform="translate(0 -0.56)"/><path id="Combined-Shape-2" data-name="Combined-Shape" class="cls-12" d="M266,173.31h3.3v21.31H266Zm-33.81,6a5.29,5.29,0,0,0-4.3,2l-.1-1.74h-3.1v15H228V183.93a3.19,3.19,0,0,1,3-1.84,2.49,2.49,0,0,1,2,.69,3.09,3.09,0,0,1,.6,2.11v9.71h3.3v-9.92C236.78,181.13,235.23,179.33,232.16,179.33Zm14.27,0a6.21,6.21,0,0,0-3.43,1,6.55,6.55,0,0,0-2.4,2.76,9.37,9.37,0,0,0-.84,4v.41a7.41,7.41,0,0,0,2,5.37,6.75,6.75,0,0,0,5.1,2,7.47,7.47,0,0,0,3.33-.74,5.78,5.78,0,0,0,2.35-2.08l-1.78-1.74a4.45,4.45,0,0,1-3.69,1.88,3.65,3.65,0,0,1-2.69-1.08,4.56,4.56,0,0,1-1.22-2.95h9.63v-1.35a8.53,8.53,0,0,0-1.63-5.54A5.87,5.87,0,0,0,246.43,179.33Zm3,6.38h-6.3a4.92,4.92,0,0,1,1.08-2.7,2.74,2.74,0,0,1,2.21-1,2.77,2.77,0,0,1,2.15.85,4.26,4.26,0,0,1,.88,2.56v.25Zm10.74,6a1.91,1.91,0,0,1-.33-1.25v-8.38h2.61v-2.5h-2.61V176h-3.3v3.64h-2.42v2.5h2.42v8.5c0,2.87,1.28,4.3,3.82,4.3a7.57,7.57,0,0,0,2.19-.33v-2.62a4.3,4.3,0,0,1-1.16.15A1.45,1.45,0,0,1,260.18,191.72Zm14.21-12.11h3.31v15h-3.31Zm22.06,10.19-3.12-10.19h-3.57l5.18,14.93-.47,1.29a3,3,0,0,1-1,1.55,3.17,3.17,0,0,1-1.88.48l-.62-.05v2.62a5.68,5.68,0,0,0,1.59.25c2.15,0,3.68-1.27,4.58-3.79L303,179.61h-3.53Zm-12.27-15.42a5.22,5.22,0,0,0-1.36,3.86v1.37h-2.25v2.5h2.25v12.51h3.31V182.11h3v-2.5h-3v-1.33c0-1.65.78-2.47,2.37-2.47a7.57,7.57,0,0,1,1.26.1l.08-2.64A7.78,7.78,0,0,0,288,173,5.11,5.11,0,0,0,284.18,174.38ZM277.7,173V176h-3.31V173Z" transform="translate(0 -0.56)"/></g></g></g></g></g></g></g></g></g></g></g></g><path class="cls-13" d="M192.8,4.49a18.15,18.15,0,0,0-5.74,35.37c.91.16,1.24-.4,1.24-.88s0-1.57,0-3.09c-5,1.1-6.11-2.43-6.11-2.43a4.8,4.8,0,0,0-2-2.65c-1.65-1.13.12-1.1.12-1.1a3.79,3.79,0,0,1,2.78,1.87,3.86,3.86,0,0,0,5.28,1.5,3.93,3.93,0,0,1,1.15-2.42c-4-.46-8.26-2-8.26-9a7,7,0,0,1,1.87-4.87,6.49,6.49,0,0,1,.18-4.8s1.52-.49,5,1.86a17.24,17.24,0,0,1,9.09,0c3.46-2.35,5-1.86,5-1.86a6.57,6.57,0,0,1,.19,4.8,7,7,0,0,1,1.86,4.87c0,7-4.24,8.5-8.28,9A4.34,4.34,0,0,1,197.32,34c0,2.43,0,4.39,0,5s.32,1.05,1.24.87A18.15,18.15,0,0,0,192.8,4.49Z" transform="translate(0 -0.56)"/><path class="cls-14" d="M237.82,20.45h-7.51a.35.35,0,0,0-.35.35v3.67a.35.35,0,0,0,.35.35h2.93v4.57a8.93,8.93,0,0,1-2.47.22c-2.15,0-5.15-.78-5.15-7.37s3.12-7.47,6-7.47a11.75,11.75,0,0,1,4.33.67.36.36,0,0,0,.42-.35l.84-3.55a.31.31,0,0,0-.14-.27c-.28-.2-2-1.17-6.35-1.17-5,0-10.16,2.14-10.16,12.39s5.89,11.79,10.85,11.79a12.18,12.18,0,0,0,6.6-1.76.31.31,0,0,0,.12-.26V20.8A.36.36,0,0,0,237.82,20.45Z" transform="translate(0 -0.56)"/><path class="cls-14" d="M276.54,11.33a.35.35,0,0,0-.35-.35H272a.35.35,0,0,0-.35.35v8.18H265V11.33a.35.35,0,0,0-.35-.35h-4.23a.35.35,0,0,0-.35.35V33.46a.36.36,0,0,0,.35.36h4.23a.36.36,0,0,0,.35-.36V24h6.59v9.46a.36.36,0,0,0,.35.36h4.24a.36.36,0,0,0,.35-.36Z" transform="translate(0 -0.56)"/><path class="cls-14" d="M245.81,14.24A2.73,2.73,0,1,0,243.08,17,2.74,2.74,0,0,0,245.81,14.24Z" transform="translate(0 -0.56)"/><path class="cls-14" d="M245.5,28.8V18.58a.34.34,0,0,0-.35-.35h-4.21a.4.4,0,0,0-.37.39V33.26c0,.43.27.55.62.55H245c.42,0,.52-.2.52-.56Z" transform="translate(0 -0.56)"/><path class="cls-14" d="M292.61,18.26h-4.19a.35.35,0,0,0-.35.35V29.47a4.76,4.76,0,0,1-2.58.78c-1.52,0-1.92-.69-1.92-2.17V18.61a.35.35,0,0,0-.35-.35H279a.35.35,0,0,0-.35.35V28.79c0,4.41,2.46,5.48,5.83,5.48a9.82,9.82,0,0,0,5-1.53,8.27,8.27,0,0,0,.16.9.35.35,0,0,0,.3.2l2.71,0a.34.34,0,0,0,.35-.35V18.61A.35.35,0,0,0,292.61,18.26Z" transform="translate(0 -0.56)"/><path class="cls-14" d="M304.08,17.76a7.84,7.84,0,0,0-4,1.07v-7.5a.35.35,0,0,0-.35-.35h-4.24a.35.35,0,0,0-.35.35V33.46a.36.36,0,0,0,.35.36h2.94a.37.37,0,0,0,.31-.19,7.38,7.38,0,0,0,.18-1,7.57,7.57,0,0,0,5,1.64c3.86,0,6.07-2,6.07-8.77S306.47,17.76,304.08,17.76Zm-1.65,12.47a5,5,0,0,1-2.44-.7v-7a5.57,5.57,0,0,1,2.16-.71c1.52-.13,3,.33,3,3.93C305.12,29.54,304.47,30.29,302.43,30.23Z" transform="translate(0 -0.56)"/><path class="cls-14" d="M257.66,18.22h-3.17V14c0-.16-.08-.24-.26-.24h-4.33a.22.22,0,0,0-.25.24v4.33s-2.17.52-2.32.57a.34.34,0,0,0-.25.33V22a.35.35,0,0,0,.35.35h2.22v6.55c0,4.86,3.41,5.34,5.71,5.34a9.5,9.5,0,0,0,2.52-.42.32.32,0,0,0,.2-.31v-3a.36.36,0,0,0-.35-.35c-.19,0-.66.08-1.15.08-1.55,0-2.08-.73-2.08-1.67V22.34h3.17A.35.35,0,0,0,258,22V18.58A.36.36,0,0,0,257.66,18.22Z" transform="translate(0 -0.56)"/><path d="M277.36,462.54H213V416.05h64.36Zm-61.68-2.68h59V418.73h-59Z" transform="translate(0 -0.56)"/><path d="M260.77,475.05H229.59l3.75-15.19H257ZM233,472.37h24.34l-2.42-9.83H235.44Z" transform="translate(0 -0.56)"/><rect x="226.68" y="471.81" width="37.01" height="2.68"/><line class="cls-1" x1="239.5" y1="405.99" x2="239.5" y2="225.67"/><polygon class="cls-2" points="244.49 227.13 239.5 218.49 234.51 227.13 244.49 227.13"/><path class="cls-2" d="M474.69,180c0-.24,0-.47,0-.71a23.28,23.28,0,0,0-23.11-23.2A23,23,0,0,0,431,169.31a11.71,11.71,0,0,0-5.31-1.26c-5.86,0-10.71,4.69-11.66,10.29a17.48,17.48,0,0,0-12,16.58c0,9.86,7.94,18.13,17.73,18.13h54.71c8.9,0,16.23-7.7,16.23-16.68A16.14,16.14,0,0,0,474.69,180Zm-.35,29.85-.63.08H419.89a15,15,0,0,1-14.68-15.07,14.32,14.32,0,0,1,9.93-13.61l1.66-.6.3-1.74a9.17,9.17,0,0,1,8.69-7.78,8.61,8.61,0,0,1,3.94.95l2.67,1.35,1.29-2.71a20.07,20.07,0,0,1,17.89-11.52,19.84,19.84,0,0,1,20,19.73c0,2.63,0,4,0,4l3,0a13.21,13.21,0,0,1,13,13.34A13.5,13.5,0,0,1,474.34,209.81Z" transform="translate(0 -0.56)"/><path class="cls-2" d="M440.45,189.87l-1,.28c-.3-1.3-1-2-2.15-2a2.21,2.21,0,0,0-1.95,1.08,4.69,4.69,0,0,0-.65,2.64,4.39,4.39,0,0,0,.83,2.89,2.21,2.21,0,0,0,1.77.83,2.18,2.18,0,0,0,2.25-2l1,.34a3.1,3.1,0,0,1-3.25,2.51,3.27,3.27,0,0,1-2.77-1.36,5.14,5.14,0,0,1-.93-3.21,5,5,0,0,1,1.19-3.54,3.29,3.29,0,0,1,2.51-1.06,3.2,3.2,0,0,1,2.18.76A3.39,3.39,0,0,1,440.45,189.87Z" transform="translate(0 -0.56)"/><path class="cls-2" d="M442.28,187.5H445a4,4,0,0,1,3.21,1.22,4.62,4.62,0,0,1,1,3.16,4.35,4.35,0,0,1-1.36,3.49,4.42,4.42,0,0,1-3,1h-2.56Zm1,.85v7.14h1.49a3.13,3.13,0,0,0,2.44-.93,3.81,3.81,0,0,0,.85-2.67q0-3.54-3.2-3.54Z" transform="translate(0 -0.56)"/><path class="cls-2" d="M457.67,187.5v8.84h-1.33L453.57,191l-1.26-2.58h-.18c0,.21,0,.71,0,1.52,0,.53,0,1,0,1.33v5.08h-1V187.5h1.62l2.53,5c.21.4.44.89.7,1.44s.48,1.07.55,1.21h.19c-.07-1.69-.1-2.65-.1-2.9V187.5Z" transform="translate(0 -0.56)"/><rect class="cls-15" x="316" y="317.49" width="40" height="17"/><path class="cls-2" d="M333.45,323.79l-1,.26a2.1,2.1,0,0,0-2.15-1.85,2.23,2.23,0,0,0-2,1.08,4.73,4.73,0,0,0-.64,2.64,4.43,4.43,0,0,0,.8,2.89,2.18,2.18,0,0,0,1.8.83,1.92,1.92,0,0,0,1.73-.95,3.9,3.9,0,0,0,.53-1.95h-2.34v-.85h3.32v4.49h-.73l-.12-1.42a2.64,2.64,0,0,1-1.08,1.2,2.79,2.79,0,0,1-1.39.35,3.22,3.22,0,0,1-2.74-1.35,5.36,5.36,0,0,1-.89-3.22,4.93,4.93,0,0,1,1.2-3.54,3.29,3.29,0,0,1,2.51-1.06,3.11,3.11,0,0,1,2.16.76A3.4,3.4,0,0,1,333.45,323.79Z" transform="translate(0 -0.56)"/><path class="cls-2" d="M341.38,321.5v.88h-4.52v2.83h3.42v.88h-3.42v3.37h4.6v.88h-5.64V321.5Z" transform="translate(0 -0.56)"/><path class="cls-2" d="M349,321.5v.89h-2.77v7.95h-1.06v-7.95h-2.75v-.89Z" transform="translate(0 -0.56)"/><rect class="cls-15" x="188" y="267.49" width="128" height="56"/><path class="cls-2" d="M226.19,275.5h2.94q3.06,0,3.06,2.46a2.23,2.23,0,0,1-.91,1.92,3.72,3.72,0,0,1-2.24.59h-1.82v3.87h-1Zm1,.84v3.32H229c1.41,0,2.11-.56,2.11-1.69s-.68-1.63-2-1.63Z" transform="translate(0 -0.56)"/><path class="cls-2" d="M237.27,275.34A3.2,3.2,0,0,1,240,276.7a5.27,5.27,0,0,1,.91,3.21,5,5,0,0,1-1.17,3.55,3.46,3.46,0,0,1-5.23-.31,5.27,5.27,0,0,1-.9-3.21,5,5,0,0,1,1.17-3.54A3.22,3.22,0,0,1,237.27,275.34Zm0,.86a2.17,2.17,0,0,0-1.93,1.08,4.91,4.91,0,0,0-.62,2.64,4.56,4.56,0,0,0,.8,2.9,2.27,2.27,0,0,0,3.67-.25,4.84,4.84,0,0,0,.62-2.65A4.56,4.56,0,0,0,239,277,2.18,2.18,0,0,0,237.27,276.2Z" transform="translate(0 -0.56)"/><path class="cls-2" d="M248.32,277.45l-1,.31a1.85,1.85,0,0,0-1.87-1.57,2,2,0,0,0-1.36.44,1.26,1.26,0,0,0-.42,1,1.34,1.34,0,0,0,.46,1.11,3.48,3.48,0,0,0,1.38.58l.38.12a4.12,4.12,0,0,1,2.19,1.09,2.18,2.18,0,0,1,.46,1.47,2.27,2.27,0,0,1-.89,1.91,3.48,3.48,0,0,1-2.16.61,3.44,3.44,0,0,1-2.16-.64,2.89,2.89,0,0,1-1-1.58l1-.36a2.27,2.27,0,0,0,.86,1.36,2.19,2.19,0,0,0,1.28.37,2.23,2.23,0,0,0,1.58-.49,1.4,1.4,0,0,0,.42-1.06A1.42,1.42,0,0,0,247,281a4.28,4.28,0,0,0-1.54-.66l-.35-.1a4.1,4.1,0,0,1-2.05-1.06,2.23,2.23,0,0,1-.46-1.49,2.1,2.1,0,0,1,.81-1.71,3.06,3.06,0,0,1,2-.62A2.82,2.82,0,0,1,248.32,277.45Z" transform="translate(0 -0.56)"/><path class="cls-2" d="M256.24,275.5v.89h-2.77v7.95h-1.06v-7.95h-2.75v-.89Z" transform="translate(0 -0.56)"/><path class="cls-2" d="M183.26,290.5a7.63,7.63,0,0,0-2.17,2.79,6.93,6.93,0,0,0-.49,2.71,6.77,6.77,0,0,0,.66,3.07,8,8,0,0,0,2,2.43l-.3.34a8.24,8.24,0,0,1-2.52-2.89,6.77,6.77,0,0,1-.62-2.95,6.53,6.53,0,0,1,.82-3.33,8.68,8.68,0,0,1,2.32-2.51Z" transform="translate(0 -0.56)"/><path class="cls-2" d="M187.31,291.5v6.64a2.28,2.28,0,0,1-.8,1.9,2.53,2.53,0,0,1-1.57.47c-.14,0-.42,0-.83-.05l-.05-.85a5.59,5.59,0,0,0,.83.06,1.24,1.24,0,0,0,1-.45,1.82,1.82,0,0,0,.36-1.19V291.5Z" transform="translate(0 -0.56)"/><path class="cls-2" d="M195.22,293.45l-1,.31a1.86,1.86,0,0,0-1.88-1.57,2,2,0,0,0-1.36.44,1.29,1.29,0,0,0-.41,1,1.36,1.36,0,0,0,.45,1.11,3.53,3.53,0,0,0,1.39.58l.38.12a4.12,4.12,0,0,1,2.19,1.09,2.23,2.23,0,0,1,.45,1.47,2.27,2.27,0,0,1-.89,1.91,3.48,3.48,0,0,1-2.16.61,3.43,3.43,0,0,1-2.15-.64,3,3,0,0,1-1-1.58l1-.36a2.29,2.29,0,0,0,.87,1.36,2.16,2.16,0,0,0,1.27.37,2.2,2.2,0,0,0,1.58-.49,1.62,1.62,0,0,0,0-2.19,4.26,4.26,0,0,0-1.55-.66l-.35-.1a4.14,4.14,0,0,1-2.05-1.06,2.29,2.29,0,0,1-.46-1.49,2.1,2.1,0,0,1,.81-1.71,3.07,3.07,0,0,1,2-.62A2.81,2.81,0,0,1,195.22,293.45Z" transform="translate(0 -0.56)"/><path class="cls-2" d="M200.19,296.84a7.68,7.68,0,0,0,1.27-1.08l1.71-1.73a1,1,0,0,1,.71-.39,1.16,1.16,0,0,1,.73.33,42.11,42.11,0,0,0,5.51,3.93.19.19,0,0,1,.1.14.16.16,0,0,1,0,.09,4,4,0,0,1-.37.61.15.15,0,0,1-.12.07.16.16,0,0,1-.1,0q-3-2-5.44-4.08a.41.41,0,0,0-.24-.13.34.34,0,0,0-.23.1c-.46.48-1.14,1.18-2,2.12a5.08,5.08,0,0,0-.52.65.17.17,0,0,1-.14.1.24.24,0,0,1-.13,0A6.38,6.38,0,0,1,200.19,296.84Zm6.35-3.84.42-.31a.13.13,0,0,1,.07,0,.11.11,0,0,1,.07,0,5.34,5.34,0,0,1,1.36,1.46.14.14,0,0,1,0,.06.08.08,0,0,1,0,.07l-.34.29a.13.13,0,0,1-.08,0,.1.1,0,0,1-.08,0A4.93,4.93,0,0,0,206.54,293Zm1.06-.8.38-.31.07,0,.06,0a6.22,6.22,0,0,1,1.37,1.4.14.14,0,0,1,0,.06s0,0-.06.08l-.32.29-.06,0a.12.12,0,0,1-.09-.06A5.38,5.38,0,0,0,207.6,292.2Z" transform="translate(0 -0.56)"/><path class="cls-2" d="M212.52,295.58a23.16,23.16,0,0,0,2.65.11h3.68c.84,0,1.72,0,2.63,0h.06c.08,0,.12.05.12.14a3,3,0,0,1,0,.32,2.91,2.91,0,0,1,0,.31q0,.15-.12.15h-.06l-2.59,0h-4.43a10,10,0,0,0-1.29.07l-.24,0-.09,0a.2.2,0,0,1-.2-.17A5.32,5.32,0,0,1,212.52,295.58Z" transform="translate(0 -0.56)"/><path class="cls-2" d="M230,296.24a25.15,25.15,0,0,1,3.45,3c0,.05.08.09.08.12a.21.21,0,0,1-.07.13,4.26,4.26,0,0,1-.43.43.14.14,0,0,1-.1.05.19.19,0,0,1-.12-.07,21.62,21.62,0,0,0-3.31-3.05,18.48,18.48,0,0,1-4.28,3.35.4.4,0,0,1-.16.06.22.22,0,0,1-.15-.08,1.91,1.91,0,0,0-.62-.43,15.78,15.78,0,0,0,4.42-3.26,14.89,14.89,0,0,0,2.28-3.21h-3.62c-.43,0-1,0-1.73.07a.15.15,0,0,1-.14-.13,4.4,4.4,0,0,1-.07-.77c.39,0,1,.05,1.86.05h3.48a1.64,1.64,0,0,0,.69-.1.11.11,0,0,1,.08,0,.31.31,0,0,1,.16.07,3.24,3.24,0,0,1,.49.49.15.15,0,0,1,0,.11.22.22,0,0,1-.1.16,1.63,1.63,0,0,0-.35.45A20,20,0,0,1,230,296.24Z" transform="translate(0 -0.56)"/><path class="cls-2" d="M241.55,293a15.64,15.64,0,0,1-.64,3.1,9.78,9.78,0,0,1-.94,2.14,2.08,2.08,0,0,1-1.76,1.24,1.49,1.49,0,0,1-1.28-.8,3.56,3.56,0,0,1-.48-1.93,4.15,4.15,0,0,1,.41-1.76,4.58,4.58,0,0,1,1-1.35,5.1,5.1,0,0,1,3.6-1.33,4.36,4.36,0,0,1,3.29,1.22,3.66,3.66,0,0,1,1,2.65,3.77,3.77,0,0,1-1.06,2.72,5.53,5.53,0,0,1-2.76,1.46.2.2,0,0,1-.1,0,.25.25,0,0,1-.21-.15,1.3,1.3,0,0,0-.46-.44,5.1,5.1,0,0,0,2.88-1.43,3.34,3.34,0,0,0,.86-2.33,2.89,2.89,0,0,0-1-2.29,3.12,3.12,0,0,0-2.08-.74Zm-.84.05a3.84,3.84,0,0,0-2.33,1.1,3.53,3.53,0,0,0-1.16,2.59,2.62,2.62,0,0,0,.36,1.49.76.76,0,0,0,.61.39c.41,0,.79-.3,1.12-.88a10.71,10.71,0,0,0,.92-2.26A12.56,12.56,0,0,0,240.71,293Z" transform="translate(0 -0.56)"/><path class="cls-2" d="M257.74,293.87l-1,.28c-.3-1.3-1-1.95-2.15-1.95a2.21,2.21,0,0,0-2,1.08,4.69,4.69,0,0,0-.65,2.64,4.44,4.44,0,0,0,.83,2.89,2.21,2.21,0,0,0,1.77.83,2.18,2.18,0,0,0,2.25-2l1,.34a3.1,3.1,0,0,1-3.25,2.51,3.27,3.27,0,0,1-2.77-1.36,5.14,5.14,0,0,1-.93-3.21A5,5,0,0,1,252,292.4a3.29,3.29,0,0,1,2.51-1.06,3.2,3.2,0,0,1,2.18.76A3.47,3.47,0,0,1,257.74,293.87Z" transform="translate(0 -0.56)"/><path class="cls-2" d="M268.07,291.5v8.84h-1v-5.2l0-2.79h-.2c-.3,1.11-.56,2-.78,2.72l-1.67,5.27h-1.33l-1.63-5.25c-.12-.38-.27-.87-.43-1.45l-.37-1.29h-.21v.41l0,2.4v5.18h-.94V291.5h1.75l1.58,5.21.43,1.42c.16.53.28,1,.38,1.27h.21c0-.13.31-1,.82-2.67l1.61-5.23Z" transform="translate(0 -0.56)"/><path class="cls-2" d="M276,293.45l-1,.31a1.86,1.86,0,0,0-1.88-1.57,2,2,0,0,0-1.36.44,1.29,1.29,0,0,0-.41,1,1.34,1.34,0,0,0,.46,1.11,3.41,3.41,0,0,0,1.38.58l.38.12a4.12,4.12,0,0,1,2.19,1.09,2.23,2.23,0,0,1,.45,1.47,2.27,2.27,0,0,1-.89,1.91,3.48,3.48,0,0,1-2.16.61,3.43,3.43,0,0,1-2.15-.64,3,3,0,0,1-1-1.58l1-.36a2.29,2.29,0,0,0,.87,1.36,2.16,2.16,0,0,0,1.27.37,2.2,2.2,0,0,0,1.58-.49,1.62,1.62,0,0,0,0-2.19,4.26,4.26,0,0,0-1.55-.66l-.35-.1a4.14,4.14,0,0,1-2.05-1.06,2.28,2.28,0,0,1-.45-1.49,2.09,2.09,0,0,1,.8-1.71,3.07,3.07,0,0,1,2-.62A2.81,2.81,0,0,1,276,293.45Z" transform="translate(0 -0.56)"/><path class="cls-2" d="M284,294.24c.19-.63.35-1.22.48-1.76a4.49,4.49,0,0,0,.11-1v-.19a5.92,5.92,0,0,1,.93.32.19.19,0,0,1,.12.17.21.21,0,0,1-.07.15.88.88,0,0,0-.2.39l-.56,1.79a10.66,10.66,0,0,1,1.17-.07,1.44,1.44,0,0,1,1.22.5,2.49,2.49,0,0,1,.34,1.43,9.81,9.81,0,0,1-.66,3.95,1.43,1.43,0,0,1-1.37.94,3.07,3.07,0,0,1-1.22-.21.2.2,0,0,1-.15-.2,2.18,2.18,0,0,0-.14-.72,3.58,3.58,0,0,0,1.39.33.75.75,0,0,0,.47-.14,1.48,1.48,0,0,0,.34-.48,9.16,9.16,0,0,0,.53-3.44,1.9,1.9,0,0,0-.19-1,.76.76,0,0,0-.63-.25,8.57,8.57,0,0,0-1.3.12,33.47,33.47,0,0,1-2.45,5.68.13.13,0,0,1-.12.07H282a3,3,0,0,1-.48-.33.11.11,0,0,1,0-.09.22.22,0,0,1,0-.1,26.9,26.9,0,0,0,2.3-5.11q-.65.09-1.59.27a1.41,1.41,0,0,0-.53.15.29.29,0,0,1-.15.06.18.18,0,0,1-.16-.12,4.78,4.78,0,0,1-.27-.81h.22a7.66,7.66,0,0,0,1-.07C282.76,294.43,283.32,294.35,284,294.24Zm4.3-.36c.18-.13.36-.26.54-.37H289a.17.17,0,0,1,.12.06,6.71,6.71,0,0,1,1.93,2.9.84.84,0,0,1,0,.1.14.14,0,0,1-.06.11,2.08,2.08,0,0,1-.49.32.26.26,0,0,1-.1,0c-.05,0-.09,0-.1-.11A6.68,6.68,0,0,0,288.34,293.88Z" transform="translate(0 -0.56)"/><path class="cls-2" d="M294.87,293.45a3.3,3.3,0,0,1,.79.35c.09.05.13.1.13.17a.22.22,0,0,1-.06.13,2,2,0,0,0-.18.56,19.54,19.54,0,0,0-.34,2.75,6.92,6.92,0,0,1,2.16-1.69,4.81,4.81,0,0,1,2-.47,2.64,2.64,0,0,1,2,.72,2.14,2.14,0,0,1,.59,1.57,2.79,2.79,0,0,1-1.8,2.56,8.67,8.67,0,0,1-2.91.79h-.14a.17.17,0,0,1-.17-.12,1.89,1.89,0,0,0-.54-.58,9.73,9.73,0,0,0,3.26-.75,2.12,2.12,0,0,0,1.44-2,1.35,1.35,0,0,0-.49-1.12,2,2,0,0,0-1.32-.39,3.9,3.9,0,0,0-1.91.57,7.29,7.29,0,0,0-1.66,1.3,3.15,3.15,0,0,0-.52.71s-.07.08-.11.08l-.09,0-.49-.22a.18.18,0,0,1-.09-.17,37.4,37.4,0,0,1,.34-3.76A7.54,7.54,0,0,0,294.87,293.45Zm.95-2a3.24,3.24,0,0,1,.42-.56.19.19,0,0,1,.1-.05l.07,0a7.37,7.37,0,0,1,2.19,1.36s.06.06.06.09a.16.16,0,0,1,0,.08,3.71,3.71,0,0,1-.39.52.12.12,0,0,1-.2,0A7.85,7.85,0,0,0,295.82,291.44Z" transform="translate(0 -0.56)"/><path class="cls-2" d="M204.51,314.38V310h-4.36q-.9,0-1.74.06c-.1,0-.15-.06-.16-.16a5.5,5.5,0,0,1,0-.77c.57,0,1.21.07,1.93.07h3.05l2,0c.12,0,.19.05.19.14a.08.08,0,0,1,0,0c0,.72,0,1.31,0,1.77v2.61c0,.39,0,1.07,0,2,0,.09,0,.14-.15.14h-.58c-.08,0-.13,0-.14,0a.19.19,0,0,1,0-.13v-.52h-4.36c-.48,0-1.1,0-1.86.05h0c-.05,0-.09-.05-.1-.15s0-.46,0-.76c.51,0,1.19.05,2,.05Z" transform="translate(0 -0.56)"/><path class="cls-2" d="M209.83,309l.47-.55a.19.19,0,0,1,.12-.07.26.26,0,0,1,.1,0,11.17,11.17,0,0,1,2.16,1.6.19.19,0,0,1,.07.13.22.22,0,0,1,0,.1,4.11,4.11,0,0,1-.41.51.16.16,0,0,1-.1.07.19.19,0,0,1-.1-.05A11.91,11.91,0,0,0,209.83,309Zm.29,6.3a8.18,8.18,0,0,0,1.26-.49,21.7,21.7,0,0,0,3.47-2.24,19.69,19.69,0,0,0,3.24-3.22,4,4,0,0,0,.21.79.53.53,0,0,1,0,.16.45.45,0,0,1-.13.26,22,22,0,0,1-2.91,2.76,25.14,25.14,0,0,1-3.61,2.34,4.06,4.06,0,0,0-.65.47.29.29,0,0,1-.17.08.22.22,0,0,1-.16-.1A5,5,0,0,1,210.12,315.3Z" transform="translate(0 -0.56)"/><path class="cls-2" d="M226.42,311.36a10.55,10.55,0,0,1-.22,1.87,5.75,5.75,0,0,1-2.63,3.57.45.45,0,0,1-.24.1.24.24,0,0,1-.13,0,2.1,2.1,0,0,0-.67-.4A6.22,6.22,0,0,0,224,315.4a4.43,4.43,0,0,0,.84-1.14,6.53,6.53,0,0,0,.63-2.9h-2.45c-.47,0-1.05,0-1.73.08h0c-.07,0-.12-.06-.14-.18a6.76,6.76,0,0,1-.07-.7c.58,0,1.23.06,2,.06h5.2c.83,0,1.55,0,2.18-.06.09,0,.13.06.13.19v.51c0,.1,0,.15-.16.15-.91,0-1.62-.05-2.14-.05Zm-3.86-3.45c.59,0,1.23.06,1.93.06h2.32c.93,0,1.61,0,2,0h0c.07,0,.1.06.1.16a1.93,1.93,0,0,1,0,.24,1.77,1.77,0,0,1,0,.24c0,.11-.05.17-.14.17-.43,0-1.1,0-2,0h-2.32c-.63,0-1.2,0-1.72.05h0c-.07,0-.11-.05-.13-.16S222.57,308.16,222.56,307.91Z" transform="translate(0 -0.56)"/><path class="cls-2" d="M233.83,309l.47-.55a.19.19,0,0,1,.12-.07.26.26,0,0,1,.1,0,11.17,11.17,0,0,1,2.16,1.6.19.19,0,0,1,.07.13.22.22,0,0,1,0,.1,4.11,4.11,0,0,1-.41.51.16.16,0,0,1-.1.07.19.19,0,0,1-.1-.05A11.91,11.91,0,0,0,233.83,309Zm.29,6.3a8.18,8.18,0,0,0,1.26-.49,21.7,21.7,0,0,0,3.47-2.24,19.69,19.69,0,0,0,3.24-3.22,4,4,0,0,0,.21.79.53.53,0,0,1,0,.16.45.45,0,0,1-.13.26,22,22,0,0,1-2.91,2.76,25.14,25.14,0,0,1-3.61,2.34,4.06,4.06,0,0,0-.65.47.29.29,0,0,1-.17.08.22.22,0,0,1-.16-.1A5,5,0,0,1,234.12,315.3Z" transform="translate(0 -0.56)"/><path class="cls-2" d="M245.38,309.23a3.91,3.91,0,0,1,.62-.33.2.2,0,0,1,.1,0,.16.16,0,0,1,.13.07,8.59,8.59,0,0,1,1.27,2.15.26.26,0,0,1,0,.1c0,.05,0,.09-.1.12a5.37,5.37,0,0,1-.53.27l-.09,0c-.06,0-.11-.05-.15-.14A8.91,8.91,0,0,0,245.38,309.23Zm7.79-.72a5.34,5.34,0,0,1,1,.47.15.15,0,0,1,.08.15.21.21,0,0,1-.07.16,3.33,3.33,0,0,0-.5.9,15,15,0,0,1-2.1,3.62,13,13,0,0,1-3.24,3,.32.32,0,0,1-.17.07.24.24,0,0,1-.13,0,2.12,2.12,0,0,0-.73-.34,13.6,13.6,0,0,0,3.55-3.17,12.19,12.19,0,0,0,1.95-3.38A6.49,6.49,0,0,0,253.17,308.51Zm-4.8,0a5.8,5.8,0,0,1,.65-.3l.08,0a.19.19,0,0,1,.13.07,8.14,8.14,0,0,1,1.13,2.14.26.26,0,0,1,0,.11c0,.05,0,.09-.09.13a3.37,3.37,0,0,1-.54.24l-.11,0c-.05,0-.09,0-.12-.11A9.09,9.09,0,0,0,248.37,308.49Z" transform="translate(0 -0.56)"/><path class="cls-2" d="M267.36,316.42a2.15,2.15,0,0,0-.26.55.71.71,0,0,1-.08.2.19.19,0,0,1-.13,0h-.11a20.12,20.12,0,0,1-3.66-.46,8.32,8.32,0,0,1-2.41-1,7.88,7.88,0,0,1-3.57,1.55l-.16,0c-.06,0-.12-.07-.19-.21a1.1,1.1,0,0,0-.3-.43,8.07,8.07,0,0,0,3.58-1.36,8,8,0,0,1-1.3-1.24.16.16,0,0,1,0-.08s0-.06.11-.11l.27-.19a.31.31,0,0,1,.12-.06s.05,0,.09.06a5.56,5.56,0,0,0,1.24,1.15,2.93,2.93,0,0,0,.66-1.47h-1.47l-1.71,0a.08.08,0,0,1-.09-.09l0-1.17v-1.87l0-1.17a.08.08,0,0,1,.09-.09l1.71,0h1.68V308h-3.18l-1.57,0c-.07,0-.1,0-.1-.09v-.54c0-.06,0-.09.1-.09l1.57,0h7.09l1.57,0c.07,0,.1,0,.1.09v.54c0,.06,0,.09-.1.09l-1.57,0h-3.21v1.12h1.77l1.71,0a.08.08,0,0,1,.09.09l0,1.17v1.87l0,1.17a.08.08,0,0,1-.09.09l-1.71,0h-2a3.67,3.67,0,0,1-.74,1.86A14.34,14.34,0,0,0,267.36,316.42Zm-5.92-6.71h-2.76v1.16h2.75C261.43,310.64,261.44,310.25,261.44,309.71Zm0,1.78h-2.74v1.29h2.65Q261.38,312.33,261.42,311.49Zm3.56,1.29v-1.29H262.1q0,.86-.09,1.29Zm0-1.91v-1.16h-2.84l0,1.16Z" transform="translate(0 -0.56)"/><path class="cls-2" d="M273.76,313.24c0,.06,0,.09-.1.09l-1.45,0h-.37a4.21,4.21,0,0,0,.83.9,6.88,6.88,0,0,0,.94.63,1.4,1.4,0,0,0-.28.42c-.05.1-.08.14-.11.14a.35.35,0,0,1-.17-.1,5.36,5.36,0,0,1-1.46-1.61c0,.76,0,1.57.05,2.44q0,.94,0,1.14c0,.06,0,.09-.11.09H271c-.06,0-.1,0-.1-.09s0-.62,0-1.32,0-1.53.05-2.12a7.64,7.64,0,0,1-2,2.48.46.46,0,0,1-.18.09s-.07,0-.12-.14a1.25,1.25,0,0,0-.33-.45,7.53,7.53,0,0,0,2.41-2.5h-.62l-1.46,0c-.07,0-.1,0-.1-.09v-.48c0-.07,0-.1.1-.1l1.46,0H271v0a5.73,5.73,0,0,0-.08-1.13c.25,0,.49,0,.73.06.08,0,.13.05.13.1a.37.37,0,0,1-.05.16,2.84,2.84,0,0,0-.07.81v0h.58l1.45,0c.07,0,.1,0,.1.1Zm.21-2c0,.06,0,.09-.1.09l-1.49,0h-2.32l-1.48,0c-.07,0-.1,0-.1-.09v-.5c0-.06,0-.09.1-.09l1.48,0h1.59a10.7,10.7,0,0,0,.55-1.36,2.21,2.21,0,0,0,.11-.52,5.11,5.11,0,0,1,.64.17c.1,0,.15.08.15.14a.23.23,0,0,1-.08.14.92.92,0,0,0-.19.28,12.28,12.28,0,0,1-.52,1.15h.07l1.49,0c.06,0,.1,0,.1.09Zm-.2-2.83c0,.06,0,.09-.1.09l-1.42,0h-2l-1.43,0c-.07,0-.1,0-.1-.09v-.47a.09.09,0,0,1,.1-.1l1.43,0H271v-.37a3.73,3.73,0,0,0-.08-.86c.34,0,.6,0,.78.05s.15.05.15.1a.46.46,0,0,1-.07.21,1.3,1.3,0,0,0-.06.5v.37h.58l1.42,0a.09.09,0,0,1,.1.1Zm-3.07,1.66a.35.35,0,0,0,0,.06c0,.05,0,.08-.12.11l-.3.13-.13,0c-.05,0-.07,0-.08-.1a6.59,6.59,0,0,0-.46-1.19.17.17,0,0,1,0-.07s.05-.07.15-.1l.28-.1.07,0s.06,0,.09.07A5,5,0,0,1,270.7,310.05Zm8.64,1.18c0,.06,0,.1-.09.1l-1.46,0h-.06v4.24l0,1.79c0,.06,0,.09-.1.09h-.59a.08.08,0,0,1-.09-.09l0-1.79V311.3h-1.79a16,16,0,0,1-.29,3.52,6.26,6.26,0,0,1-1.23,2.37c-.07.09-.12.14-.17.14s-.09,0-.16-.1a1.34,1.34,0,0,0-.45-.27,5.56,5.56,0,0,0,1.37-2.52,16.46,16.46,0,0,0,.24-3.38v-1.47a14,14,0,0,0-.09-1.7,5,5,0,0,1,.78.24,10.8,10.8,0,0,0,2.39-.93,3.31,3.31,0,0,0,.6-.44,3.48,3.48,0,0,1,.53.55.25.25,0,0,1,.07.16c0,.06-.05.1-.16.11a1.64,1.64,0,0,0-.44.14,16,16,0,0,1-3,1.09v1.84h2.58l1.46,0a.08.08,0,0,1,.09.09Z" transform="translate(0 -0.56)"/><path class="cls-2" d="M280.36,306.5l.3-.34a8.24,8.24,0,0,1,2.52,2.89,6.77,6.77,0,0,1,.62,2.95,6.53,6.53,0,0,1-.82,3.33,8.68,8.68,0,0,1-2.32,2.51l-.3-.34a7.63,7.63,0,0,0,2.17-2.79A6.93,6.93,0,0,0,283,312a6.77,6.77,0,0,0-.66-3.07A8,8,0,0,0,280.36,306.5Z" transform="translate(0 -0.56)"/><rect class="cls-15" x="310" y="204.49" width="87" height="17"/><path class="cls-2" d="M311.08,208.5H314a3.46,3.46,0,0,1,2.35.64,2,2,0,0,1,.58,1.53,1.77,1.77,0,0,1-.58,1.37,2.42,2.42,0,0,1-1.33.57v.1a2.63,2.63,0,0,1,1.69.78,2,2,0,0,1,.5,1.38,2.19,2.19,0,0,1-.91,1.9,3.6,3.6,0,0,1-2.14.57h-3.09Zm1,.84v2.93h1.59a2.66,2.66,0,0,0,1.71-.47,1.27,1.27,0,0,0,.49-1.06,1.21,1.21,0,0,0-.5-1.1,2.94,2.94,0,0,0-1.52-.3Zm0,3.77v3.39H314q2.1,0,2.1-1.68a1.47,1.47,0,0,0-.69-1.31,3,3,0,0,0-1.68-.4Z" transform="translate(0 -0.56)"/><path class="cls-2" d="M323.82,211.21v6.13h-.93v-1.12a3,3,0,0,1-1,1,2.33,2.33,0,0,1-1.13.3,1.66,1.66,0,0,1-1.27-.5,1.7,1.7,0,0,1-.44-1.24v-4.54h1v4.24c0,.79.35,1.19,1.06,1.19a1.72,1.72,0,0,0,1-.39,2.65,2.65,0,0,0,.74-.85v-4.19Z" transform="translate(0 -0.56)"/><path class="cls-2" d="M327.13,208.85V210h-1.2v-1.19Zm-.11,2.36v6.13h-1v-6.13Z" transform="translate(0 -0.56)"/><path class="cls-2" d="M330.2,208.34v9h-1v-9Z" transform="translate(0 -0.56)"/><path class="cls-2" d="M337.15,208.34v9h-.95v-.89a2,2,0,0,1-1.79,1.05,2.06,2.06,0,0,1-1.78-1,3.84,3.84,0,0,1-.61-2.26,3.65,3.65,0,0,1,.77-2.48,2,2,0,0,1,1.6-.72,2,2,0,0,1,1.78,1v-3.77Zm-1,4.72a1.73,1.73,0,0,0-1.55-1.18,1.35,1.35,0,0,0-1.2.69,3.14,3.14,0,0,0-.4,1.71,2.92,2.92,0,0,0,.54,1.89,1.38,1.38,0,0,0,1.1.53,1.74,1.74,0,0,0,1.51-1.15Z" transform="translate(0 -0.56)"/><path class="cls-2" d="M347.24,207.49l-4.72,11.09h-.67l4.71-11.09Z" transform="translate(0 -0.56)"/><path class="cls-2" d="M352.11,208.5h2.73a4,4,0,0,1,3.21,1.22,4.62,4.62,0,0,1,1,3.16,4.35,4.35,0,0,1-1.36,3.49,4.42,4.42,0,0,1-3,1h-2.56Zm1,.85v7.14h1.49a3.13,3.13,0,0,0,2.44-.93,3.81,3.81,0,0,0,.85-2.67q0-3.54-3.2-3.54Z" transform="translate(0 -0.56)"/><path class="cls-2" d="M365.74,214.42h-4.29a2.65,2.65,0,0,0,.55,1.81,1.61,1.61,0,0,0,1.25.53,1.5,1.5,0,0,0,1.55-1.25l.91.3a2.4,2.4,0,0,1-2.48,1.68,2.49,2.49,0,0,1-2.08-1,3.61,3.61,0,0,1-.65-2.24,3.43,3.43,0,0,1,.85-2.45,2.5,2.5,0,0,1,3.75.16,3.55,3.55,0,0,1,.64,2.2Zm-.95-.7a2.3,2.3,0,0,0-.55-1.48,1.43,1.43,0,0,0-1.08-.43,1.52,1.52,0,0,0-1.23.59,2.35,2.35,0,0,0-.46,1.32Z" transform="translate(0 -0.56)"/><path class="cls-2" d="M368.48,211.21v1a2.05,2.05,0,0,1,1.81-1.09,2,2,0,0,1,1.77.94,3.78,3.78,0,0,1,.6,2.24,3.59,3.59,0,0,1-.8,2.48,2.1,2.1,0,0,1-1.63.75,1.9,1.9,0,0,1-1.72-1.07v3.1h-1v-8.31Zm0,1.84v2.5A1.75,1.75,0,0,0,370,216.7a1.38,1.38,0,0,0,1.22-.69,3.14,3.14,0,0,0,.42-1.73,3.05,3.05,0,0,0-.5-1.88,1.29,1.29,0,0,0-1.07-.53A1.79,1.79,0,0,0,368.51,213.05Z" transform="translate(0 -0.56)"/><path class="cls-2" d="M375.45,208.34v9h-1v-9Z" transform="translate(0 -0.56)"/><path class="cls-2" d="M379.92,211.08a2.36,2.36,0,0,1,2,1,3.64,3.64,0,0,1,.65,2.23,3.47,3.47,0,0,1-.84,2.47,2.52,2.52,0,0,1-3.79-.21,3.59,3.59,0,0,1-.64-2.22,3.5,3.5,0,0,1,.83-2.47A2.36,2.36,0,0,1,379.92,211.08Zm0,.75a1.38,1.38,0,0,0-1.26.72,3.31,3.31,0,0,0-.39,1.73,3.11,3.11,0,0,0,.5,1.91,1.46,1.46,0,0,0,2.39-.16,3.36,3.36,0,0,0,.39-1.75,3.07,3.07,0,0,0-.49-1.89A1.36,1.36,0,0,0,379.92,211.83Z" transform="translate(0 -0.56)"/><path class="cls-2" d="M388.77,211.21l-2.23,6.42a3.06,3.06,0,0,1-1,1.52,2.19,2.19,0,0,1-1.29.37,3.81,3.81,0,0,1-.59-.05l-.06-.8a4.27,4.27,0,0,0,.64.07c.66,0,1.12-.41,1.39-1.23l.1-.29-2.13-6h1.05l1.08,3.48.42,1.5h.12c.23-.82.37-1.33.43-1.52l1.06-3.46Z" transform="translate(0 -0.56)"/><rect class="cls-15" x="201" y="91.49" width="40" height="17"/><path class="cls-2" d="M206.94,97.45l-.07.83a1.87,1.87,0,0,0-.77.13,1.67,1.67,0,0,0-.46.32,1.69,1.69,0,0,1,.6,1.34,1.82,1.82,0,0,1-.71,1.53,2.44,2.44,0,0,1-1.55.47,2.33,2.33,0,0,1-.93-.17c-.37.21-.56.43-.56.68a.41.41,0,0,0,.24.39,3.11,3.11,0,0,0,.91.2l1.23.12a3,3,0,0,1,1.71.55,1.23,1.23,0,0,1,.37.94,1.45,1.45,0,0,1-.84,1.29,4.13,4.13,0,0,1-2.07.45,4,4,0,0,1-2.09-.46,1.17,1.17,0,0,1-.62-1c0-.58.41-1,1.22-1.27-.61-.14-.92-.45-.92-.92s.3-.84.89-1.22a1.77,1.77,0,0,1-.82-1.56,1.84,1.84,0,0,1,.74-1.51,2.45,2.45,0,0,1,1.53-.48,2.36,2.36,0,0,1,1.21.3,2.16,2.16,0,0,1,.78-.74A2.23,2.23,0,0,1,206.94,97.45Zm-3.67,6.48c-.72.2-1.09.53-1.09,1a.84.84,0,0,0,.6.77,3.25,3.25,0,0,0,1.28.21,3.08,3.08,0,0,0,1.57-.33.76.76,0,0,0,.44-.66.58.58,0,0,0-.31-.55,2.69,2.69,0,0,0-1.08-.27Zm.71-5.19a1.36,1.36,0,0,0-1,.4,1.29,1.29,0,0,0-.35.94,1.26,1.26,0,0,0,.45,1,1.34,1.34,0,0,0,.91.31,1.32,1.32,0,0,0,1-.4,1.33,1.33,0,0,0,.35-.94,1.28,1.28,0,0,0-.45-1A1.35,1.35,0,0,0,204,98.74Z" transform="translate(0 -0.56)"/><path class="cls-2" d="M209.58,95.85V97h-1.2V95.85Zm-.11,2.36v6.13h-1V98.21Z" transform="translate(0 -0.56)"/><path class="cls-2" d="M212.93,96.09v2.12h1.47V99h-1.47v3.78c0,.66.28,1,.85,1a3.55,3.55,0,0,0,.77-.07l-.05.75a5.42,5.42,0,0,1-.95.07,1.39,1.39,0,0,1-1.58-1.57V99h-1v-.76h1V96.3Z" transform="translate(0 -0.56)"/><path class="cls-2" d="M220.25,98.21v1a2.06,2.06,0,0,1,1.81-1.09,2,2,0,0,1,1.77.94,3.78,3.78,0,0,1,.6,2.24,3.59,3.59,0,0,1-.8,2.48,2.08,2.08,0,0,1-1.63.75,1.9,1.9,0,0,1-1.72-1.07v3.1h-1V98.21Zm0,1.84v2.5a1.75,1.75,0,0,0,1.52,1.15A1.38,1.38,0,0,0,223,103a3.14,3.14,0,0,0,.42-1.73,3.05,3.05,0,0,0-.5-1.88,1.28,1.28,0,0,0-1.06-.53A1.79,1.79,0,0,0,220.28,100.05Z" transform="translate(0 -0.56)"/><path class="cls-2" d="M231,98.21v6.13h-.94v-1.12a2.9,2.9,0,0,1-1,1,2.33,2.33,0,0,1-1.13.3,1.69,1.69,0,0,1-1.28-.5,1.74,1.74,0,0,1-.44-1.24V98.21h1v4.24c0,.79.35,1.19,1,1.19a1.68,1.68,0,0,0,1-.39,2.8,2.8,0,0,0,.75-.85V98.21Z" transform="translate(0 -0.56)"/><path class="cls-2" d="M237.35,99.54l-.94.3a1.29,1.29,0,0,0-1.33-1,1.52,1.52,0,0,0-1,.27.75.75,0,0,0-.28.61.8.8,0,0,0,.29.69,2.86,2.86,0,0,0,1,.37l.49.12a3.25,3.25,0,0,1,1.54.71,1.55,1.55,0,0,1,.37,1.11,1.62,1.62,0,0,1-.66,1.36,2.86,2.86,0,0,1-1.7.46,2.31,2.31,0,0,1-2.43-1.49l.94-.34a1.47,1.47,0,0,0,1.52,1.11,1.6,1.6,0,0,0,1.11-.34.9.9,0,0,0,.28-.67.87.87,0,0,0-.3-.74,3.14,3.14,0,0,0-1-.4l-.49-.11a2.86,2.86,0,0,1-1.47-.72,1.54,1.54,0,0,1-.33-1.05,1.47,1.47,0,0,1,.62-1.25,2.58,2.58,0,0,1,1.56-.42A2.16,2.16,0,0,1,237.35,99.54Z" transform="translate(0 -0.56)"/><path class="cls-2" d="M240.26,95.34v4a2.71,2.71,0,0,1,2.11-1.23,1.61,1.61,0,0,1,1.29.53,1.77,1.77,0,0,1,.42,1.23v4.51h-1v-4.16c0-.83-.34-1.25-1-1.25a2.34,2.34,0,0,0-1.79,1.22v4.19h-1v-9Z" transform="translate(0 -0.56)"/><line class="cls-1" x1="202.5" y1="414.99" x2="79.85" y2="350.34"/><polygon class="cls-2" points="83.46 346.61 73.5 346.99 78.81 355.43 83.46 346.61"/><rect class="cls-15" x="127" y="377.49" width="40" height="17"/><path class="cls-2" d="M134.08,381.5H137q3.06,0,3.06,2.46a2.24,2.24,0,0,1-.92,1.92,3.67,3.67,0,0,1-2.23.59h-1.82v3.87h-1Zm1,.84v3.32h1.78c1.41,0,2.11-.56,2.11-1.69s-.68-1.63-2-1.63Z" transform="translate(0 -0.56)"/><path class="cls-2" d="M145.15,381.34a3.21,3.21,0,0,1,2.75,1.36,5.27,5.27,0,0,1,.9,3.21,5.06,5.06,0,0,1-1.16,3.55,3.26,3.26,0,0,1-2.49,1.05,3.21,3.21,0,0,1-2.74-1.36,5.27,5.27,0,0,1-.9-3.21,5,5,0,0,1,1.17-3.54A3.21,3.21,0,0,1,145.15,381.34Zm0,.86a2.16,2.16,0,0,0-1.92,1.08,4.91,4.91,0,0,0-.62,2.64,4.56,4.56,0,0,0,.8,2.9,2.27,2.27,0,0,0,3.67-.25,4.92,4.92,0,0,0,.62-2.65,4.5,4.5,0,0,0-.8-2.9A2.15,2.15,0,0,0,145.15,382.2Z" transform="translate(0 -0.56)"/><path class="cls-2" d="M156.2,383.45l-1,.31a1.86,1.86,0,0,0-1.87-1.57,2,2,0,0,0-1.36.44,1.26,1.26,0,0,0-.42,1,1.34,1.34,0,0,0,.46,1.11,3.48,3.48,0,0,0,1.38.58l.38.12a4.12,4.12,0,0,1,2.19,1.09,2.55,2.55,0,0,1-.44,3.38,4,4,0,0,1-4.31,0,3,3,0,0,1-1-1.58l1-.36a2.29,2.29,0,0,0,.87,1.36,2.16,2.16,0,0,0,1.27.37,2.24,2.24,0,0,0,1.59-.49,1.4,1.4,0,0,0,.42-1.06,1.42,1.42,0,0,0-.44-1.13,4.28,4.28,0,0,0-1.54-.66l-.35-.1a4.18,4.18,0,0,1-2.06-1.06,2.28,2.28,0,0,1-.45-1.49,2.1,2.1,0,0,1,.81-1.71,3,3,0,0,1,2-.62A2.81,2.81,0,0,1,156.2,383.45Z" transform="translate(0 -0.56)"/><path class="cls-2" d="M164.13,381.5v.89h-2.78v7.95h-1v-7.95h-2.75v-.89Z" transform="translate(0 -0.56)"/><line class="cls-1" x1="58.5" y1="262.99" x2="58.5" y2="253.17"/><polygon class="cls-2" points="63.49 254.63 58.5 245.99 53.51 254.63 63.49 254.63"/><line class="cls-1" x1="58.5" y1="168.49" x2="58.5" y2="158.67"/><polygon class="cls-2" points="63.49 160.13 58.5 151.49 53.51 160.13 63.49 160.13"/><line class="cls-1" x1="56.5" y1="64.99" x2="56.5" y2="28.17"/><polygon class="cls-2" points="61.49 29.63 56.5 20.99 51.51 29.63 61.49 29.63"/><path class="cls-2" d="M28.14,1.5v.88H23.61V5.21H27v.88H23.61V9.46h4.61v.88H22.57V1.5Z" transform="translate(0 -0.56)"/><path class="cls-2" d="M30.77,4.21V5.33a2.46,2.46,0,0,1,2-1.25,1.56,1.56,0,0,1,1.08.38,1.43,1.43,0,0,1,.46.85,2.5,2.5,0,0,1,2-1.23,1.55,1.55,0,0,1,1.25.52A1.8,1.8,0,0,1,38,5.83v4.51H37V6.18c0-.83-.34-1.25-1-1.25a1.5,1.5,0,0,0-.94.37,3,3,0,0,0-.7.85v4.19h-1V6.18c0-.83-.32-1.25-1-1.25a1.51,1.51,0,0,0-.92.36,3,3,0,0,0-.73.86v4.19h-1V4.21Z" transform="translate(0 -0.56)"/><path class="cls-2" d="M40,5.68a2.26,2.26,0,0,1,2.44-1.61q2.22,0,2.22,2V8.35a15.31,15.31,0,0,0,.12,2h-.88a7.41,7.41,0,0,1-.14-1,2.4,2.4,0,0,1-2.1,1.12,1.87,1.87,0,0,1-1.45-.56,1.72,1.72,0,0,1-.43-1.23c0-1.1.67-1.78,2-2a16.06,16.06,0,0,1,1.92-.2V6.17a1.45,1.45,0,0,0-.34-1.1A1.61,1.61,0,0,0,40.92,6ZM43.7,7.17a9,9,0,0,0-1.7.18c-.86.19-1.28.62-1.28,1.3a1,1,0,0,0,.34.84,1.24,1.24,0,0,0,.83.27A2.11,2.11,0,0,0,43.7,8.54Z" transform="translate(0 -0.56)"/><path class="cls-2" d="M47.9,1.85V3H46.7V1.85Zm-.11,2.36v6.13h-1V4.21Z" transform="translate(0 -0.56)"/><path class="cls-2" d="M51,1.34v9H50v-9Z" transform="translate(0 -0.56)"/><path class="cls-2" d="M61.53,3a15,15,0,0,1-.64,3.1A9.33,9.33,0,0,1,60,8.23a2.06,2.06,0,0,1-1.76,1.24,1.5,1.5,0,0,1-1.28-.8,3.56,3.56,0,0,1-.47-1.93A4,4,0,0,1,56.85,5a4.38,4.38,0,0,1,1-1.35,5.1,5.1,0,0,1,3.6-1.33,4.35,4.35,0,0,1,3.29,1.22,3.66,3.66,0,0,1,1,2.65,3.77,3.77,0,0,1-1.06,2.72,5.54,5.54,0,0,1-2.75,1.46.26.26,0,0,1-.11,0,.23.23,0,0,1-.2-.15,1.43,1.43,0,0,0-.47-.44A5.14,5.14,0,0,0,64,8.35,3.33,3.33,0,0,0,64.86,6a2.89,2.89,0,0,0-1-2.29A3.12,3.12,0,0,0,61.76,3ZM60.7,3a3.84,3.84,0,0,0-2.34,1.1A3.53,3.53,0,0,0,57.2,6.73a2.54,2.54,0,0,0,.37,1.49.75.75,0,0,0,.61.39c.41,0,.78-.3,1.11-.88a10.69,10.69,0,0,0,.93-2.26A12.56,12.56,0,0,0,60.7,3Z" transform="translate(0 -0.56)"/><path class="cls-2" d="M78.74,10.16a1.19,1.19,0,0,0-.23.55c0,.13,0,.21-.07.23a.43.43,0,0,1-.21,0q-2.34.15-4.26.15a8,8,0,0,1-3-.38A2.42,2.42,0,0,1,69.9,9.55a13.82,13.82,0,0,1-1.29,1.18,1.28,1.28,0,0,0-.26.24c0,.07-.08.1-.14.1a.17.17,0,0,1-.14-.09,4.27,4.27,0,0,1-.35-.64c.28-.15.53-.3.75-.44a9.19,9.19,0,0,0,1.1-1V6h-.89l-.83,0c-.06,0-.09,0-.09-.1V5.35a.08.08,0,0,1,.09-.09l.83,0h.65l.86,0c.07,0,.1,0,.1.09l0,1.12V8.92a2,2,0,0,0,1,1.19,6.6,6.6,0,0,0,2.4.3A49.45,49.45,0,0,0,78.74,10.16Zm-8.56-7.4a.13.13,0,0,1,0,.07s0,.08-.1.13l-.31.25a.45.45,0,0,1-.15.07s-.05,0-.07-.07a11.78,11.78,0,0,0-1.31-1.7s0-.05,0-.07,0-.06.1-.11l.31-.2a.24.24,0,0,1,.11-.06.11.11,0,0,1,.07,0A11.73,11.73,0,0,1,70.18,2.76Zm8.19,6.16a1.23,1.23,0,0,0-.3.44q-.06.21-.15.21l-.17-.05a5.83,5.83,0,0,1-3.24-3,4.21,4.21,0,0,1-1,1.82,6.21,6.21,0,0,1-1.74,1.18.39.39,0,0,1-.17.07s-.08-.06-.16-.19A1.37,1.37,0,0,0,71,9a5.5,5.5,0,0,0,2-1.28A3.76,3.76,0,0,0,73.94,6H72.87l-1.64,0c-.07,0-.1,0-.1-.09V5.49c0-.06,0-.09.1-.09l1.64,0H74A10.27,10.27,0,0,0,74.13,4V3.63h-1l-1.61,0c-.06,0-.09,0-.09-.1V3.08A.08.08,0,0,1,71.54,3l1.61,0H75a19.1,19.1,0,0,0,.92-1.69,2.93,2.93,0,0,0,.19-.61q.38.11.72.24c.07,0,.11.09.11.14s-.05.13-.14.18a.9.9,0,0,0-.22.31A15.83,15.83,0,0,1,75.69,3h.48l1.59,0c.07,0,.1,0,.1.09v.48c0,.07,0,.1-.1.1l-1.59,0H74.83a17.14,17.14,0,0,1-.11,1.79h1.7l1.65,0c.07,0,.1,0,.1.09V6c0,.06,0,.09-.1.09L76.42,6H74.9A5.69,5.69,0,0,0,78.37,8.92ZM73.76,2.3a.18.18,0,0,1,0,.06s0,.07-.14.12l-.31.16a.36.36,0,0,1-.13,0s0,0-.08-.09a8.61,8.61,0,0,0-.82-1.36s0-.05,0-.07,0-.06.11-.09L72.7.91l.12,0s0,0,.08.05A8.94,8.94,0,0,1,73.76,2.3Z" transform="translate(0 -0.56)"/><path class="cls-2" d="M82.74.9a.26.26,0,0,1-.09.18,1.16,1.16,0,0,0-.23.47c-.25.69-.48,1.26-.69,1.73V9.42l0,1.88c0,.07,0,.1-.09.1h-.58s-.08,0-.08-.1l0-1.88v-3C81,5.6,81,5,81,4.61A12.64,12.64,0,0,1,80,6.16c-.08.09-.13.14-.16.14s-.06,0-.09-.14a1.31,1.31,0,0,0-.3-.46,13.12,13.12,0,0,0,2.31-4.32,3.93,3.93,0,0,0,.16-.82,4.88,4.88,0,0,1,.7.21C82.69.81,82.74.85,82.74.9Zm7.69,2.63c0,.07,0,.1-.1.1l-1.68,0H84.41l-1.68,0c-.07,0-.1,0-.1-.1V3c0-.06,0-.09.1-.09l1.68,0h4.24l1.68,0c.07,0,.1,0,.1.09ZM89.3,11.24a.08.08,0,0,1-.09.09h-.56c-.07,0-.1,0-.1-.09v-.5H84.23v.54c0,.07,0,.1-.1.1h-.54a.09.09,0,0,1-.1-.1l0-1.47V8.92l0-1s0-.08.1-.08l1.56,0h2.51l1.55,0c.06,0,.09,0,.09.08l0,.87v1ZM89,5.14c0,.07,0,.1-.1.1l-1.45,0H85.31l-1.46,0c-.07,0-.1,0-.1-.1V4.68c0-.07,0-.1.1-.1l1.46,0h2.18l1.45,0c.07,0,.1,0,.1.1Zm0,1.63c0,.06,0,.09-.1.09l-1.45,0H85.31l-1.46,0c-.07,0-.1,0-.1-.09V6.3c0-.06,0-.09.1-.09l1.46,0h2.18l1.45,0c.07,0,.1,0,.1.09Zm.11-4.88c0,.06,0,.08-.11.08L87.58,2H85.33L83.86,2c-.07,0-.1,0-.1-.08V1.4c0-.06,0-.09.1-.09l1.47,0h2.25l1.46,0c.07,0,.11,0,.11.09Zm-.6,8.24V8.47H84.23v1.66Z" transform="translate(0 -0.56)"/><path class="cls-2" d="M226.55,432.53v.8h-3.34v-.8Z" transform="translate(0 -0.56)"/><path class="cls-2" d="M238.56,427.5v8.84h-1v-4.19h-4.35v4.19h-1V427.5h1v3.76h4.35V427.5Z" transform="translate(0 -0.56)"/><path class="cls-2" d="M246.87,427.5v.89h-2.78v7.95H243v-7.95h-2.75v-.89Z" transform="translate(0 -0.56)"/><path class="cls-2" d="M257.1,427.5v8.84h-1v-5.2l0-2.79h-.21c-.29,1.11-.55,2-.78,2.72l-1.66,5.27h-1.34l-1.62-5.25c-.13-.38-.27-.87-.44-1.45l-.37-1.29h-.2c0,.13,0,.27,0,.41l0,2.4v5.18h-.94V427.5h1.76l1.58,5.21.43,1.42c.15.53.28,1,.38,1.27h.2l.83-2.67,1.6-5.23Z" transform="translate(0 -0.56)"/><path class="cls-2" d="M260.66,427.5v7.95h4.39v.89h-5.43V427.5Z" transform="translate(0 -0.56)"/><path class="cls-2" d="M226.55,447.53v.8h-3.34v-.8Z" transform="translate(0 -0.56)"/><path class="cls-2" d="M234.4,442.5v6.64a2.28,2.28,0,0,1-.8,1.9,2.52,2.52,0,0,1-1.56.47c-.15,0-.43,0-.84-.05l0-.85a5.36,5.36,0,0,0,.82.06,1.26,1.26,0,0,0,1-.45,1.87,1.87,0,0,0,.35-1.19V442.5Z" transform="translate(0 -0.56)"/><path class="cls-2" d="M242.31,444.45l-1,.31a1.86,1.86,0,0,0-1.87-1.57,2,2,0,0,0-1.36.44,1.26,1.26,0,0,0-.42,1,1.34,1.34,0,0,0,.46,1.11,3.48,3.48,0,0,0,1.38.58l.38.12a4.12,4.12,0,0,1,2.19,1.09,2.55,2.55,0,0,1-.44,3.38,4,4,0,0,1-4.31,0,3,3,0,0,1-1-1.58l1-.36a2.29,2.29,0,0,0,.87,1.36,2.16,2.16,0,0,0,1.27.37,2.2,2.2,0,0,0,1.58-.49,1.37,1.37,0,0,0,.43-1.06A1.42,1.42,0,0,0,241,448a4.28,4.28,0,0,0-1.54-.66l-.36-.1a4.14,4.14,0,0,1-2.05-1.06,2.28,2.28,0,0,1-.45-1.49,2.1,2.1,0,0,1,.81-1.71,3,3,0,0,1,2-.62A2.81,2.81,0,0,1,242.31,444.45Z" transform="translate(0 -0.56)"/><line class="cls-1" x1="276.5" y1="50.49" x2="276.5" y2="138.31"/><polygon class="cls-2" points="271.51 136.85 276.5 145.49 281.49 136.85 271.51 136.85"/><rect class="cls-15" x="264" y="89.49" width="40" height="17"/><path class="cls-2" d="M265.89,93.34v4A2.71,2.71,0,0,1,268,96.07a1.61,1.61,0,0,1,1.29.53,1.77,1.77,0,0,1,.42,1.23v4.51h-1V98.18c0-.83-.34-1.25-1-1.25a2.34,2.34,0,0,0-1.79,1.22v4.19h-1v-9Z" transform="translate(0 -0.56)"/><path class="cls-2" d="M274.14,96.08a2.35,2.35,0,0,1,2,1,3.64,3.64,0,0,1,.65,2.23,3.51,3.51,0,0,1-.83,2.47,2.37,2.37,0,0,1-1.81.76,2.34,2.34,0,0,1-2-1,3.59,3.59,0,0,1-.64-2.22,3.5,3.5,0,0,1,.83-2.47A2.37,2.37,0,0,1,274.14,96.08Zm0,.75a1.39,1.39,0,0,0-1.26.72,3.31,3.31,0,0,0-.38,1.73,3.11,3.11,0,0,0,.49,1.91,1.35,1.35,0,0,0,1.14.55,1.38,1.38,0,0,0,1.26-.71,3.47,3.47,0,0,0,.38-1.75,3.07,3.07,0,0,0-.49-1.89A1.36,1.36,0,0,0,274.14,96.83Z" transform="translate(0 -0.56)"/><path class="cls-2" d="M280.85,96.08a2.36,2.36,0,0,1,2,1,3.64,3.64,0,0,1,.65,2.23,3.51,3.51,0,0,1-.83,2.47,2.37,2.37,0,0,1-1.81.76,2.34,2.34,0,0,1-2-1,3.59,3.59,0,0,1-.64-2.22,3.5,3.5,0,0,1,.83-2.47A2.36,2.36,0,0,1,280.85,96.08Zm0,.75a1.39,1.39,0,0,0-1.26.72,3.31,3.31,0,0,0-.38,1.73,3.11,3.11,0,0,0,.49,1.91,1.46,1.46,0,0,0,2.39-.16,3.36,3.36,0,0,0,.39-1.75,3.07,3.07,0,0,0-.49-1.89A1.36,1.36,0,0,0,280.85,96.83Z" transform="translate(0 -0.56)"/><path class="cls-2" d="M290.1,96.21,288,98.54l2.26,3.8h-1.1l-1.82-3.15-1.08,1.15v2h-1v-9h1v5.93l2.7-3.06Z" transform="translate(0 -0.56)"/></svg>